SplineFontDB: 3.0
FontName: Asap-Bold
FullName: Asap Bold
FamilyName: Asap
Weight: Bold
Copyright: Copyright (c) 2011-2014, Omnibus-Type (www.omnibus-type.com omnibus.type@gmail.com) with Reserved Font Name 'Asap'
Version: 001.006
ItalicAngle: 0
UnderlinePosition: -102.4
UnderlineWidth: 102.4
Ascent: 1638
Descent: 410
sfntRevision: 0x00010189
LayerCount: 2
Layer: 0 1 "Back"  1
Layer: 1 1 "Fore"  0
XUID: [1021 191 1600663927 7403238]
FSType: 8
OS2Version: 3
OS2_WeightWidthSlopeOnly: 0
OS2_UseTypoMetrics: 1
CreationTime: 1410960463
ModificationTime: 1410988458
PfmFamily: 17
TTFWeight: 700
TTFWidth: 5
LineGap: 0
VLineGap: 0
Panose: 2 15 8 4 3 1 2 6 2 3
OS2TypoAscent: 2079
OS2TypoAOffset: 0
OS2TypoDescent: -492
OS2TypoDOffset: 0
OS2TypoLinegap: 0
OS2WinAscent: 2079
OS2WinAOffset: 0
OS2WinDescent: 492
OS2WinDOffset: 0
HheadAscent: 2079
HheadAOffset: 0
HheadDescent: -492
HheadDOffset: 0
OS2SubXSize: 1331
OS2SubYSize: 1229
OS2SubXOff: 0
OS2SubYOff: 154
OS2SupXSize: 1331
OS2SupYSize: 1229
OS2SupXOff: 0
OS2SupYOff: 717
OS2StrikeYSize: 102
OS2StrikeYPos: 641
OS2Vendor: 'OMNI'
OS2CodePages: 20000193.00000000
OS2UnicodeRanges: 20000007.00000000.00000000.00000000
Lookup: 1 0 0 "'aalt' Access All Alternates lookup 0"  {"'aalt' Access All Alternates lookup 0 subtable"  } ['aalt' ('DFLT' <'dflt' > 'grek' <'dflt' > 'latn' <'AZE ' 'CAT ' 'CRT ' 'ESP ' 'KAZ ' 'MOL ' 'NLD ' 'PLK ' 'ROM ' 'TAT ' 'TRK ' 'dflt' > ) ]
Lookup: 6 0 0 "'locl' Localized Forms in Latin lookup 1"  {"'locl' Localized Forms in Latin lookup 1 contextual 0"  "'locl' Localized Forms in Latin lookup 1 contextual 1"  } ['locl' ('latn' <'AZE ' 'CAT ' 'CRT ' 'ESP ' 'KAZ ' 'MOL ' 'PLK ' 'ROM ' 'TAT ' 'TRK ' 'dflt' > ) ]
Lookup: 1 0 0 "'locl' Localized Forms in Latin lookup 2"  {"'locl' Localized Forms in Latin lookup 2 subtable"  } ['locl' ('latn' <'TRK ' > ) ]
Lookup: 1 0 0 "'locl' Localized Forms in Latin lookup 3"  {"'locl' Localized Forms in Latin lookup 3 subtable"  } ['locl' ('latn' <'AZE ' > ) ]

StartChar: .notdef
Encoding: 65536 -1 0
Width: 1052
Flags: MW
HStem: 0 102<178 874 178 1038> 1331 102<176 872 176 176>
VStem: 14 100<195 195 195 1239> 934 104<195 1239 1239 1239>
LayerCount: 2
Fore
SplineSet
14 1434 m 1,0,-1
 1038 1434 l 1,1,-1
 1038 0 l 1,2,-1
 14 0 l 1,3,-1
 14 1434 l 1,0,-1
872 1331 m 1,4,-1
 176 1331 l 1,5,-1
 526 809 l 1,6,-1
 872 1331 l 1,4,-1
115 195 m 1,7,-1
 465 717 l 1,8,-1
 115 1239 l 1,9,-1
 115 195 l 1,7,-1
934 195 m 1,10,-1
 934 1239 l 1,11,-1
 588 717 l 1,12,-1
 934 195 l 1,10,-1
874 102 m 1,13,-1
 524 625 l 1,14,-1
 178 102 l 1,15,-1
 874 102 l 1,13,-1
EndSplineSet
EndChar

StartChar: A
Encoding: 65 65 1
Width: 1255
GlyphClass: 2
Flags: MW
HStem: 289 270<471 778 471 866 383 778> 1397 41G<575 682 682 712>
VStem: 0 1255<27 46>
AnchorPoint: "Anchor-1" 629 1434 basechar 0
AnchorPoint: "Anchor-0" 635 0 basechar 0
LayerCount: 2
Fore
SplineSet
575 1438 m 2,0,-1
 682 1438 l 2,1,2
 782 1438 782 1438 799 1395 c 2,3,-1
 1249 78 l 2,4,5
 1255 56 1255 56 1255 41 c 0,6,7
 1255 -4 1255 -4 1153 -4 c 2,8,-1
 1063 -4 l 2,9,10
 963 -4 963 -4 948 39 c 2,11,-1
 866 289 l 1,12,-1
 383 289 l 1,13,-1
 301 39 l 2,14,15
 287 -4 287 -4 207 -4 c 2,16,-1
 125 -4 l 2,17,18
 0 -4 0 -4 0 41 c 0,19,20
 0 49 0 49 8 78 c 2,21,-1
 459 1395 l 2,22,23
 475 1438 475 1438 575 1438 c 2,0,-1
631 1055 m 1,24,-1
 623 1055 l 1,25,26
 605 955 605 955 592 924 c 2,27,-1
 471 559 l 1,28,-1
 778 559 l 1,29,-1
 662 924 l 2,30,31
 647 965 647 965 631 1055 c 1,24,-1
EndSplineSet
Substitution2: "Single Substitution lookup 20 subtable" ordfeminine
Substitution2: "'aalt' Access All Alternates lookup 0 subtable" ordfeminine
Position2: "'cpsp' Capital Spacing lookup 0 subtable" dx=10 dy=0 dh=20 dv=0
EndChar

StartChar: Aacute
Encoding: 193 193 2
Width: 1255
GlyphClass: 2
Flags: MW
HStem: 289 270<471 778 471 866 383 778> 1397 41G<575 682 682 712> 1540 326<524 834>
VStem: 0 1255<27 46>
AnchorPoint: "Anchor-1" 641 1796 basechar 0
AnchorPoint: "Anchor-0" 635 0 basechar 0
LayerCount: 2
Fore
SplineSet
618 1810 m 0,0,1
 649 1865 649 1865 782 1865.5 c 128,-1,2
 915 1866 915 1866 915 1837 c 0,3,4
 915 1825 915 1825 903 1808.5 c 128,-1,5
 891 1792 891 1792 854 1754 c 128,-1,6
 817 1716 817 1716 802.5 1701 c 128,-1,7
 788 1686 788 1686 759.5 1654 c 128,-1,8
 731 1622 731 1622 702 1591 c 0,9,10
 655 1540 655 1540 549 1540 c 0,11,12
 486 1540 486 1540 485 1571 c 0,13,14
 485 1593 485 1593 515 1637 c 128,-1,15
 545 1681 545 1681 569 1724 c 128,-1,16
 593 1767 593 1767 618 1810 c 0,0,1
575 1438 m 2,17,-1
 682 1438 l 2,18,19
 782 1438 782 1438 799 1395 c 2,20,-1
 1249 78 l 2,21,22
 1255 56 1255 56 1255 41 c 0,23,24
 1255 -4 1255 -4 1153 -4 c 2,25,-1
 1063 -4 l 2,26,27
 963 -4 963 -4 948 39 c 2,28,-1
 866 289 l 1,29,-1
 383 289 l 1,30,-1
 301 39 l 2,31,32
 287 -4 287 -4 207 -4 c 2,33,-1
 125 -4 l 2,34,35
 0 -4 0 -4 0 41 c 0,36,37
 0 49 0 49 8 78 c 2,38,-1
 459 1395 l 2,39,40
 475 1438 475 1438 575 1438 c 2,17,-1
631 1055 m 1,41,-1
 623 1055 l 1,42,43
 605 955 605 955 592 924 c 2,44,-1
 471 559 l 1,45,-1
 778 559 l 1,46,-1
 662 924 l 2,47,48
 647 965 647 965 631 1055 c 1,41,-1
EndSplineSet
Position2: "'cpsp' Capital Spacing lookup 0 subtable" dx=10 dy=0 dh=20 dv=0
EndChar

StartChar: Abreve
Encoding: 258 258 3
Width: 1255
GlyphClass: 2
Flags: MW
HStem: 289 270<471 778 471 866 383 778> 1397 41G<575 682 682 712> 1540 186<577 684 577 718>
VStem: 0 1255<27 46>
AnchorPoint: "Anchor-1" 629 1767 basechar 0
AnchorPoint: "Anchor-0" 635 0 basechar 0
LayerCount: 2
Fore
SplineSet
858 1827 m 0,0,1
 930 1827 930 1827 930 1769 c 0,2,3
 930 1679 930 1679 844 1609.5 c 128,-1,4
 758 1540 758 1540 629 1540 c 128,-1,5
 500 1540 500 1540 414 1609.5 c 128,-1,6
 328 1679 328 1679 328 1769 c 0,7,8
 328 1826 328 1826 399 1827 c 0,9,10
 434 1827 434 1827 459.5 1798 c 128,-1,11
 485 1769 485 1769 498 1759 c 0,12,13
 537 1726 537 1726 608.5 1726 c 128,-1,14
 680 1726 680 1726 717 1739.5 c 128,-1,15
 754 1753 754 1753 764 1762.5 c 128,-1,16
 774 1772 774 1772 798.5 1799.5 c 128,-1,17
 823 1827 823 1827 858 1827 c 0,0,1
575 1438 m 2,18,-1
 682 1438 l 2,19,20
 782 1438 782 1438 799 1395 c 2,21,-1
 1249 78 l 2,22,23
 1255 56 1255 56 1255 41 c 0,24,25
 1255 -4 1255 -4 1153 -4 c 2,26,-1
 1063 -4 l 2,27,28
 963 -4 963 -4 948 39 c 2,29,-1
 866 289 l 1,30,-1
 383 289 l 1,31,-1
 301 39 l 2,32,33
 287 -4 287 -4 207 -4 c 2,34,-1
 125 -4 l 2,35,36
 0 -4 0 -4 0 41 c 0,37,38
 0 49 0 49 8 78 c 2,39,-1
 459 1395 l 2,40,41
 475 1438 475 1438 575 1438 c 2,18,-1
631 1055 m 1,42,-1
 623 1055 l 1,43,44
 605 955 605 955 592 924 c 2,45,-1
 471 559 l 1,46,-1
 778 559 l 1,47,-1
 662 924 l 2,48,49
 647 965 647 965 631 1055 c 1,42,-1
EndSplineSet
Position2: "'cpsp' Capital Spacing lookup 0 subtable" dx=10 dy=0 dh=20 dv=0
EndChar

StartChar: Abreveacute
Encoding: 7854 7854 4
Width: 1255
GlyphClass: 2
Flags: MW
HStem: 289 270<471 778 471 866 383 778> 1397 41G<575 682 682 712> 1540 166<577 684 577 718> 1808 254<734 881>
VStem: 0 1255<27 46>
AnchorPoint: "Anchor-1" 629 1786 basechar 0
AnchorPoint: "Anchor-0" 635 0 basechar 0
LayerCount: 2
Fore
SplineSet
770 2062 m 0,0,1
 852 2062 852 2062 852 2013 c 0,2,3
 852 1999 852 1999 826.5 1964 c 128,-1,4
 801 1929 801 1929 700 1808 c 0,5,6
 669 1777 669 1777 588 1778 c 0,7,8
 545 1778 545 1778 545 1808 c 0,9,10
 545 1814 545 1814 616 2007 c 0,11,12
 645 2062 645 2062 770 2062 c 0,0,1
858 1808 m 0,13,14
 930 1808 930 1808 930 1751 c 0,15,16
 930 1669 930 1669 844 1604.5 c 128,-1,17
 758 1540 758 1540 629 1540 c 128,-1,18
 500 1540 500 1540 414 1604.5 c 128,-1,19
 328 1669 328 1669 328 1751 c 0,20,21
 328 1808 328 1808 399 1808 c 0,22,23
 434 1808 434 1808 467 1772 c 0,24,25
 520 1706 520 1706 629 1706 c 0,26,27
 724 1706 724 1706 764 1741 c 0,28,29
 778 1753 778 1753 795 1776 c 0,30,31
 823 1808 823 1808 858 1808 c 0,13,14
575 1438 m 2,32,-1
 682 1438 l 2,33,34
 782 1438 782 1438 799 1395 c 2,35,-1
 1249 78 l 2,36,37
 1255 56 1255 56 1255 41 c 0,38,39
 1255 -4 1255 -4 1153 -4 c 2,40,-1
 1063 -4 l 2,41,42
 963 -4 963 -4 948 39 c 2,43,-1
 866 289 l 1,44,-1
 383 289 l 1,45,-1
 301 39 l 2,46,47
 287 -4 287 -4 207 -4 c 2,48,-1
 125 -4 l 2,49,50
 0 -4 0 -4 0 41 c 0,51,52
 0 49 0 49 8 78 c 2,53,-1
 459 1395 l 2,54,55
 475 1438 475 1438 575 1438 c 2,32,-1
631 1055 m 1,56,-1
 623 1055 l 1,57,58
 605 955 605 955 592 924 c 2,59,-1
 471 559 l 1,60,-1
 778 559 l 1,61,-1
 662 924 l 2,62,63
 647 965 647 965 631 1055 c 1,56,-1
EndSplineSet
Position2: "'cpsp' Capital Spacing lookup 0 subtable" dx=10 dy=0 dh=20 dv=0
EndChar

StartChar: Abrevedotbelow
Encoding: 7862 7862 5
Width: 1255
GlyphClass: 2
Flags: MW
HStem: -418 254<596 682> 289 270<471 778 471 866 383 778> 1397 41G<575 682 682 712> 1540 186<577 684 577 718>
VStem: 516 246<-352 -229 -374 -208>
AnchorPoint: "Anchor-1" 643 -168 basechar 0
AnchorPoint: "Anchor-0" 641 -416 basechar 0
LayerCount: 2
Fore
SplineSet
858 1827 m 0,0,1
 930 1827 930 1827 930 1769 c 0,2,3
 930 1679 930 1679 844 1609.5 c 128,-1,4
 758 1540 758 1540 629 1540 c 128,-1,5
 500 1540 500 1540 414 1609.5 c 128,-1,6
 328 1679 328 1679 328 1769 c 0,7,8
 328 1826 328 1826 399 1827 c 0,9,10
 434 1827 434 1827 459.5 1798 c 128,-1,11
 485 1769 485 1769 498 1759 c 0,12,13
 537 1726 537 1726 608.5 1726 c 128,-1,14
 680 1726 680 1726 717 1739.5 c 128,-1,15
 754 1753 754 1753 764 1762.5 c 128,-1,16
 774 1772 774 1772 798.5 1799.5 c 128,-1,17
 823 1827 823 1827 858 1827 c 0,0,1
575 1438 m 2,18,-1
 682 1438 l 2,19,20
 782 1438 782 1438 799 1395 c 2,21,-1
 1249 78 l 2,22,23
 1255 56 1255 56 1255 41 c 0,24,25
 1255 -4 1255 -4 1153 -4 c 2,26,-1
 1063 -4 l 2,27,28
 963 -4 963 -4 948 39 c 2,29,-1
 866 289 l 1,30,-1
 383 289 l 1,31,-1
 301 39 l 2,32,33
 287 -4 287 -4 207 -4 c 2,34,-1
 125 -4 l 2,35,36
 0 -4 0 -4 0 41 c 0,37,38
 0 49 0 49 8 78 c 2,39,-1
 459 1395 l 2,40,41
 475 1438 475 1438 575 1438 c 2,18,-1
631 1055 m 1,42,-1
 623 1055 l 1,43,44
 605 955 605 955 592 924 c 2,45,-1
 471 559 l 1,46,-1
 778 559 l 1,47,-1
 662 924 l 2,48,49
 647 965 647 965 631 1055 c 1,42,-1
639 -164 m 128,-1,51
 762 -164 762 -164 762 -229 c 2,52,-1
 762 -352 l 2,53,54
 762 -418 762 -418 639 -418 c 128,-1,55
 516 -418 516 -418 516 -352 c 2,56,-1
 516 -229 l 2,57,50
 516 -164 516 -164 639 -164 c 128,-1,51
EndSplineSet
Position2: "'cpsp' Capital Spacing lookup 0 subtable" dx=10 dy=0 dh=20 dv=0
EndChar

StartChar: Abrevegrave
Encoding: 7856 7856 6
Width: 1255
GlyphClass: 2
Flags: MW
HStem: 289 270<471 778 471 866 383 778> 1397 41G<575 682 682 712> 1540 166<577 684 577 718> 1776 285<461 694>
VStem: 0 1255<27 46>
AnchorPoint: "Anchor-1" 629 1786 basechar 0
AnchorPoint: "Anchor-0" 635 0 basechar 0
LayerCount: 2
Fore
SplineSet
492 2060 m 0,0,1
 642 2060 642 2060 666 2005 c 0,2,3
 734 1835 734 1835 733.5 1805.5 c 128,-1,4
 733 1776 733 1776 659.5 1776 c 128,-1,5
 586 1776 586 1776 548 1823 c 128,-1,6
 510 1870 510 1870 463 1930.5 c 128,-1,7
 416 1991 416 1991 405.5 2005 c 128,-1,8
 395 2019 395 2019 395 2032 c 0,9,10
 396 2060 396 2060 492 2060 c 0,0,1
858 1808 m 0,11,12
 930 1808 930 1808 930 1751 c 0,13,14
 930 1669 930 1669 844 1604.5 c 128,-1,15
 758 1540 758 1540 629 1540 c 128,-1,16
 500 1540 500 1540 414 1604.5 c 128,-1,17
 328 1669 328 1669 328 1751 c 0,18,19
 328 1808 328 1808 399 1808 c 0,20,21
 434 1808 434 1808 467 1772 c 0,22,23
 520 1706 520 1706 629 1706 c 0,24,25
 724 1706 724 1706 764 1741 c 0,26,27
 778 1753 778 1753 795 1776 c 0,28,29
 823 1808 823 1808 858 1808 c 0,11,12
575 1438 m 2,30,-1
 682 1438 l 2,31,32
 782 1438 782 1438 799 1395 c 2,33,-1
 1249 78 l 2,34,35
 1255 56 1255 56 1255 41 c 0,36,37
 1255 -4 1255 -4 1153 -4 c 2,38,-1
 1063 -4 l 2,39,40
 963 -4 963 -4 948 39 c 2,41,-1
 866 289 l 1,42,-1
 383 289 l 1,43,-1
 301 39 l 2,44,45
 287 -4 287 -4 207 -4 c 2,46,-1
 125 -4 l 2,47,48
 0 -4 0 -4 0 41 c 0,49,50
 0 49 0 49 8 78 c 2,51,-1
 459 1395 l 2,52,53
 475 1438 475 1438 575 1438 c 2,30,-1
631 1055 m 1,54,-1
 623 1055 l 1,55,56
 605 955 605 955 592 924 c 2,57,-1
 471 559 l 1,58,-1
 778 559 l 1,59,-1
 662 924 l 2,60,61
 647 965 647 965 631 1055 c 1,54,-1
EndSplineSet
Position2: "'cpsp' Capital Spacing lookup 0 subtable" dx=10 dy=0 dh=20 dv=0
EndChar

StartChar: Abrevehookabove
Encoding: 7858 7858 7
Width: 1255
GlyphClass: 2
Flags: MW
HStem: 289 270<471 778 471 866 383 778> 1397 41G<575 682 682 712> 1540 166<577 684 577 718> 1921 143<489 659>
VStem: 649 141<1913 1932>
AnchorPoint: "Anchor-1" 629 1786 basechar 0
AnchorPoint: "Anchor-0" 635 0 basechar 0
LayerCount: 2
Fore
SplineSet
649 1921 m 0,0,1
 649 1956 649 1956 607 1956 c 128,-1,2
 565 1956 565 1956 532.5 1938.5 c 128,-1,3
 500 1921 500 1921 498 1921 c 0,4,5
 486 1921 486 1921 461 1953 c 128,-1,6
 436 1985 436 1985 436 2006.5 c 128,-1,7
 436 2028 436 2028 490.5 2046 c 128,-1,8
 545 2064 545 2064 616.5 2064 c 128,-1,9
 688 2064 688 2064 739.5 2027.5 c 128,-1,10
 791 1991 791 1991 791 1933.5 c 128,-1,11
 791 1876 791 1876 735.5 1832 c 128,-1,12
 680 1788 680 1788 638 1788 c 128,-1,13
 596 1788 596 1788 571.5 1800 c 128,-1,14
 547 1812 547 1812 547 1831 c 0,15,16
 547 1849 547 1849 613 1877 c 0,17,18
 649 1892 649 1892 649 1921 c 0,0,1
858 1808 m 0,19,20
 930 1808 930 1808 930 1751 c 0,21,22
 930 1669 930 1669 844 1604.5 c 128,-1,23
 758 1540 758 1540 629 1540 c 128,-1,24
 500 1540 500 1540 414 1604.5 c 128,-1,25
 328 1669 328 1669 328 1751 c 0,26,27
 328 1808 328 1808 399 1808 c 0,28,29
 434 1808 434 1808 467 1772 c 0,30,31
 520 1706 520 1706 629 1706 c 0,32,33
 724 1706 724 1706 764 1741 c 0,34,35
 778 1753 778 1753 795 1776 c 0,36,37
 823 1808 823 1808 858 1808 c 0,19,20
575 1438 m 2,38,-1
 682 1438 l 2,39,40
 782 1438 782 1438 799 1395 c 2,41,-1
 1249 78 l 2,42,43
 1255 56 1255 56 1255 41 c 0,44,45
 1255 -4 1255 -4 1153 -4 c 2,46,-1
 1063 -4 l 2,47,48
 963 -4 963 -4 948 39 c 2,49,-1
 866 289 l 1,50,-1
 383 289 l 1,51,-1
 301 39 l 2,52,53
 287 -4 287 -4 207 -4 c 2,54,-1
 125 -4 l 2,55,56
 0 -4 0 -4 0 41 c 0,57,58
 0 49 0 49 8 78 c 2,59,-1
 459 1395 l 2,60,61
 475 1438 475 1438 575 1438 c 2,38,-1
631 1055 m 1,62,-1
 623 1055 l 1,63,64
 605 955 605 955 592 924 c 2,65,-1
 471 559 l 1,66,-1
 778 559 l 1,67,-1
 662 924 l 2,68,69
 647 965 647 965 631 1055 c 1,62,-1
EndSplineSet
Position2: "'cpsp' Capital Spacing lookup 0 subtable" dx=10 dy=0 dh=20 dv=0
EndChar

StartChar: Abrevetilde
Encoding: 7860 7860 8
Width: 1255
GlyphClass: 2
Flags: MW
HStem: 289 270<471 778 471 866 383 778> 1397 41G<575 682 682 712> 1540 166<577 684 577 718> 1847 176<751 777> 1903 176<501 530>
VStem: 0 1255<27 46>
AnchorPoint: "Anchor-1" 629 1786 basechar 0
AnchorPoint: "Anchor-0" 635 0 basechar 0
LayerCount: 2
Fore
SplineSet
868 2054 m 128,-1,1
 915 2085 915 2085 950 2041 c 128,-1,2
 985 1997 985 1997 936 1931 c 1,3,4
 858 1847 858 1847 739 1847 c 0,5,6
 673 1847 673 1847 614 1875 c 128,-1,7
 555 1903 555 1903 512 1903 c 128,-1,8
 469 1903 469 1903 423 1876 c 128,-1,9
 377 1849 377 1849 341 1898.5 c 128,-1,10
 305 1948 305 1948 348 1995 c 0,11,12
 442 2079 442 2079 539 2079 c 0,13,14
 605 2079 605 2079 669 2051 c 128,-1,15
 733 2023 733 2023 777 2023 c 128,-1,0
 821 2023 821 2023 868 2054 c 128,-1,1
858 1808 m 0,16,17
 930 1808 930 1808 930 1751 c 0,18,19
 930 1669 930 1669 844 1604.5 c 128,-1,20
 758 1540 758 1540 629 1540 c 128,-1,21
 500 1540 500 1540 414 1604.5 c 128,-1,22
 328 1669 328 1669 328 1751 c 0,23,24
 328 1808 328 1808 399 1808 c 0,25,26
 434 1808 434 1808 467 1772 c 0,27,28
 520 1706 520 1706 629 1706 c 0,29,30
 724 1706 724 1706 764 1741 c 0,31,32
 778 1753 778 1753 795 1776 c 0,33,34
 823 1808 823 1808 858 1808 c 0,16,17
575 1438 m 2,35,-1
 682 1438 l 2,36,37
 782 1438 782 1438 799 1395 c 2,38,-1
 1249 78 l 2,39,40
 1255 56 1255 56 1255 41 c 0,41,42
 1255 -4 1255 -4 1153 -4 c 2,43,-1
 1063 -4 l 2,44,45
 963 -4 963 -4 948 39 c 2,46,-1
 866 289 l 1,47,-1
 383 289 l 1,48,-1
 301 39 l 2,49,50
 287 -4 287 -4 207 -4 c 2,51,-1
 125 -4 l 2,52,53
 0 -4 0 -4 0 41 c 0,54,55
 0 49 0 49 8 78 c 2,56,-1
 459 1395 l 2,57,58
 475 1438 475 1438 575 1438 c 2,35,-1
631 1055 m 1,59,-1
 623 1055 l 1,60,61
 605 955 605 955 592 924 c 2,62,-1
 471 559 l 1,63,-1
 778 559 l 1,64,-1
 662 924 l 2,65,66
 647 965 647 965 631 1055 c 1,59,-1
EndSplineSet
Position2: "'cpsp' Capital Spacing lookup 0 subtable" dx=10 dy=0 dh=20 dv=0
EndChar

StartChar: Acircumflex
Encoding: 194 194 9
Width: 1255
GlyphClass: 2
Flags: MW
HStem: 289 270<471 778 471 866 383 778> 1397 41G<575 682 682 712> 1534 299<375 641 389 641 618 825 618 870>
VStem: 0 1255<27 46>
AnchorPoint: "Anchor-1" 936 1624 basechar 0
AnchorPoint: "Anchor-0" 635 0 basechar 0
LayerCount: 2
Fore
SplineSet
618 1833 m 2,0,-1
 641 1833 l 2,1,2
 741 1833 741 1833 766 1794 c 2,3,-1
 899 1585 l 2,4,5
 911 1567 911 1567 911 1554 c 0,6,7
 911 1534 911 1534 870 1534 c 2,8,-1
 825 1534 l 2,9,10
 719 1534 719 1534 686 1583 c 2,11,-1
 629 1665 l 1,12,-1
 571 1585 l 2,13,14
 534 1534 534 1534 434 1534 c 2,15,-1
 389 1534 l 2,16,17
 348 1534 348 1534 348 1554 c 0,18,19
 348 1566 348 1566 360 1585 c 2,20,-1
 494 1794 l 2,21,22
 518 1833 518 1833 618 1833 c 2,0,-1
575 1438 m 2,23,-1
 682 1438 l 2,24,25
 782 1438 782 1438 799 1395 c 2,26,-1
 1249 78 l 2,27,28
 1255 56 1255 56 1255 41 c 0,29,30
 1255 -4 1255 -4 1153 -4 c 2,31,-1
 1063 -4 l 2,32,33
 963 -4 963 -4 948 39 c 2,34,-1
 866 289 l 1,35,-1
 383 289 l 1,36,-1
 301 39 l 2,37,38
 287 -4 287 -4 207 -4 c 2,39,-1
 125 -4 l 2,40,41
 0 -4 0 -4 0 41 c 0,42,43
 0 49 0 49 8 78 c 2,44,-1
 459 1395 l 2,45,46
 475 1438 475 1438 575 1438 c 2,23,-1
631 1055 m 1,47,-1
 623 1055 l 1,48,49
 605 955 605 955 592 924 c 2,50,-1
 471 559 l 1,51,-1
 778 559 l 1,52,-1
 662 924 l 2,53,54
 647 965 647 965 631 1055 c 1,47,-1
EndSplineSet
Position2: "'cpsp' Capital Spacing lookup 0 subtable" dx=10 dy=0 dh=20 dv=0
EndChar

StartChar: Acircumflexacute
Encoding: 7844 7844 10
Width: 1255
GlyphClass: 2
Flags: MW
HStem: 289 270<471 778 471 866 383 778> 1397 41G<575 682 682 712> 1720 113
VStem: 0 1255<27 46>
AnchorPoint: "Anchor-1" 903 1698 basechar 0
AnchorPoint: "Anchor-0" 635 0 basechar 0
LayerCount: 2
Fore
SplineSet
1044 1974 m 0,0,1
 1126 1974 1126 1974 1126 1925 c 0,2,3
 1126 1911 1126 1911 1100.5 1876 c 128,-1,4
 1075 1841 1075 1841 975 1720 c 0,5,6
 944 1689 944 1689 862 1690 c 0,7,8
 819 1690 819 1690 819 1720 c 0,9,10
 819 1726 819 1726 891 1919 c 0,11,12
 919 1974 919 1974 1044 1974 c 0,0,1
618 1833 m 2,13,-1
 641 1833 l 2,14,15
 723 1833 723 1833 745 1794 c 2,16,-1
 868 1585 l 2,17,18
 880 1567 880 1567 881 1554 c 0,19,20
 881 1534 881 1534 840 1534 c 2,21,-1
 795 1534 l 2,22,23
 672 1534 672 1534 655 1583 c 2,24,-1
 629 1665 l 1,25,-1
 571 1585 l 2,26,27
 534 1534 534 1534 434 1534 c 2,28,-1
 389 1534 l 2,29,30
 348 1534 348 1534 348 1554 c 0,31,32
 348 1566 348 1566 360 1585 c 2,33,-1
 494 1794 l 2,34,35
 518 1833 518 1833 618 1833 c 2,13,-1
575 1438 m 2,36,-1
 682 1438 l 2,37,38
 782 1438 782 1438 799 1395 c 2,39,-1
 1249 78 l 2,40,41
 1255 56 1255 56 1255 41 c 0,42,43
 1255 -4 1255 -4 1153 -4 c 2,44,-1
 1063 -4 l 2,45,46
 963 -4 963 -4 948 39 c 2,47,-1
 866 289 l 1,48,-1
 383 289 l 1,49,-1
 301 39 l 2,50,51
 287 -4 287 -4 207 -4 c 2,52,-1
 125 -4 l 2,53,54
 0 -4 0 -4 0 41 c 0,55,56
 0 49 0 49 8 78 c 2,57,-1
 459 1395 l 2,58,59
 475 1438 475 1438 575 1438 c 2,36,-1
631 1055 m 1,60,-1
 623 1055 l 1,61,62
 605 955 605 955 592 924 c 2,63,-1
 471 559 l 1,64,-1
 778 559 l 1,65,-1
 662 924 l 2,66,67
 647 965 647 965 631 1055 c 1,60,-1
EndSplineSet
Position2: "'cpsp' Capital Spacing lookup 0 subtable" dx=10 dy=0 dh=20 dv=0
EndChar

StartChar: Acircumflexdotbelow
Encoding: 7852 7852 11
Width: 1255
GlyphClass: 2
Flags: MW
HStem: -418 254<596 682> 289 270<471 778 471 866 383 778> 1397 41G<575 682 682 712> 1534 299<375 641 389 641 618 825 618 870>
VStem: 516 246<-352 -229 -374 -208>
AnchorPoint: "Anchor-1" 643 -168 basechar 0
AnchorPoint: "Anchor-0" 641 -416 basechar 0
LayerCount: 2
Fore
SplineSet
618 1833 m 2,0,-1
 641 1833 l 2,1,2
 741 1833 741 1833 766 1794 c 2,3,-1
 899 1585 l 2,4,5
 911 1567 911 1567 911 1554 c 0,6,7
 911 1534 911 1534 870 1534 c 2,8,-1
 825 1534 l 2,9,10
 719 1534 719 1534 686 1583 c 2,11,-1
 629 1665 l 1,12,-1
 571 1585 l 2,13,14
 534 1534 534 1534 434 1534 c 2,15,-1
 389 1534 l 2,16,17
 348 1534 348 1534 348 1554 c 0,18,19
 348 1566 348 1566 360 1585 c 2,20,-1
 494 1794 l 2,21,22
 518 1833 518 1833 618 1833 c 2,0,-1
575 1438 m 2,23,-1
 682 1438 l 2,24,25
 782 1438 782 1438 799 1395 c 2,26,-1
 1249 78 l 2,27,28
 1255 56 1255 56 1255 41 c 0,29,30
 1255 -4 1255 -4 1153 -4 c 2,31,-1
 1063 -4 l 2,32,33
 963 -4 963 -4 948 39 c 2,34,-1
 866 289 l 1,35,-1
 383 289 l 1,36,-1
 301 39 l 2,37,38
 287 -4 287 -4 207 -4 c 2,39,-1
 125 -4 l 2,40,41
 0 -4 0 -4 0 41 c 0,42,43
 0 49 0 49 8 78 c 2,44,-1
 459 1395 l 2,45,46
 475 1438 475 1438 575 1438 c 2,23,-1
631 1055 m 1,47,-1
 623 1055 l 1,48,49
 605 955 605 955 592 924 c 2,50,-1
 471 559 l 1,51,-1
 778 559 l 1,52,-1
 662 924 l 2,53,54
 647 965 647 965 631 1055 c 1,47,-1
639 -164 m 128,-1,56
 762 -164 762 -164 762 -229 c 2,57,-1
 762 -352 l 2,58,59
 762 -418 762 -418 639 -418 c 128,-1,60
 516 -418 516 -418 516 -352 c 2,61,-1
 516 -229 l 2,62,55
 516 -164 516 -164 639 -164 c 128,-1,56
EndSplineSet
Position2: "'cpsp' Capital Spacing lookup 0 subtable" dx=10 dy=0 dh=20 dv=0
EndChar

StartChar: Acircumflexgrave
Encoding: 7846 7846 12
Width: 1255
GlyphClass: 2
Flags: MW
HStem: 289 270<471 778 471 866 383 778> 1397 41G<575 682 682 712> 1534 299<375 641 389 641 618 795 618 840> 1688 285<735 969>
VStem: 0 1255<27 46>
AnchorPoint: "Anchor-1" 903 1698 basechar 0
AnchorPoint: "Anchor-0" 635 0 basechar 0
LayerCount: 2
Fore
SplineSet
766 1972 m 0,0,1
 916 1972 916 1972 940 1917 c 0,2,3
 1008 1749 1008 1749 1008 1718.5 c 128,-1,4
 1008 1688 1008 1688 934 1688 c 0,5,6
 860 1688 860 1688 822 1735 c 0,7,8
 784 1782 784 1782 737 1842 c 0,9,10
 690 1902 690 1902 680 1916.5 c 128,-1,11
 670 1931 670 1931 670 1944 c 0,12,13
 670 1972 670 1972 766 1972 c 0,0,1
618 1833 m 2,14,-1
 641 1833 l 2,15,16
 723 1833 723 1833 745 1794 c 2,17,-1
 868 1585 l 2,18,19
 880 1567 880 1567 881 1554 c 0,20,21
 881 1534 881 1534 840 1534 c 2,22,-1
 795 1534 l 2,23,24
 672 1534 672 1534 655 1583 c 2,25,-1
 629 1665 l 1,26,-1
 571 1585 l 2,27,28
 534 1534 534 1534 434 1534 c 2,29,-1
 389 1534 l 2,30,31
 348 1534 348 1534 348 1554 c 0,32,33
 348 1566 348 1566 360 1585 c 2,34,-1
 494 1794 l 2,35,36
 518 1833 518 1833 618 1833 c 2,14,-1
575 1438 m 2,37,-1
 682 1438 l 2,38,39
 782 1438 782 1438 799 1395 c 2,40,-1
 1249 78 l 2,41,42
 1255 56 1255 56 1255 41 c 0,43,44
 1255 -4 1255 -4 1153 -4 c 2,45,-1
 1063 -4 l 2,46,47
 963 -4 963 -4 948 39 c 2,48,-1
 866 289 l 1,49,-1
 383 289 l 1,50,-1
 301 39 l 2,51,52
 287 -4 287 -4 207 -4 c 2,53,-1
 125 -4 l 2,54,55
 0 -4 0 -4 0 41 c 0,56,57
 0 49 0 49 8 78 c 2,58,-1
 459 1395 l 2,59,60
 475 1438 475 1438 575 1438 c 2,37,-1
631 1055 m 1,61,-1
 623 1055 l 1,62,63
 605 955 605 955 592 924 c 2,64,-1
 471 559 l 1,65,-1
 778 559 l 1,66,-1
 662 924 l 2,67,68
 647 965 647 965 631 1055 c 1,61,-1
EndSplineSet
Position2: "'cpsp' Capital Spacing lookup 0 subtable" dx=10 dy=0 dh=20 dv=0
EndChar

StartChar: Acircumflexhookabove
Encoding: 7848 7848 13
Width: 1255
GlyphClass: 2
Flags: MW
HStem: 289 270<471 778 471 866 383 778> 1397 41G<575 682 682 712> 1534 299<375 641 389 641 765 781 618 795 618 840> 1833 143<764 934>
VStem: 924 141<1825 1844>
AnchorPoint: "Anchor-1" 903 1698 basechar 0
AnchorPoint: "Anchor-0" 635 0 basechar 0
LayerCount: 2
Fore
SplineSet
924 1833 m 0,0,1
 924 1868 924 1868 882 1868 c 128,-1,2
 840 1868 840 1868 807 1850.5 c 128,-1,3
 774 1833 774 1833 772 1833 c 0,4,5
 760 1833 760 1833 735.5 1864.5 c 128,-1,6
 711 1896 711 1896 711 1917.5 c 128,-1,7
 711 1939 711 1939 765 1957.5 c 128,-1,8
 819 1976 819 1976 891 1976 c 128,-1,9
 963 1976 963 1976 1014 1939.5 c 128,-1,10
 1065 1903 1065 1903 1065 1845.5 c 128,-1,11
 1065 1788 1065 1788 1010.5 1744 c 128,-1,12
 956 1700 956 1700 913 1700 c 128,-1,13
 870 1700 870 1700 845.5 1712 c 128,-1,14
 821 1724 821 1724 821 1743 c 0,15,16
 821 1761 821 1761 888 1789 c 0,17,18
 924 1804 924 1804 924 1833 c 0,0,1
618 1833 m 2,19,-1
 641 1833 l 2,20,21
 723 1833 723 1833 745 1794 c 2,22,-1
 868 1585 l 2,23,24
 880 1567 880 1567 881 1554 c 0,25,26
 881 1534 881 1534 840 1534 c 2,27,-1
 795 1534 l 2,28,29
 672 1534 672 1534 655 1583 c 2,30,-1
 629 1665 l 1,31,-1
 571 1585 l 2,32,33
 534 1534 534 1534 434 1534 c 2,34,-1
 389 1534 l 2,35,36
 348 1534 348 1534 348 1554 c 0,37,38
 348 1566 348 1566 360 1585 c 2,39,-1
 494 1794 l 2,40,41
 518 1833 518 1833 618 1833 c 2,19,-1
575 1438 m 2,42,-1
 682 1438 l 2,43,44
 782 1438 782 1438 799 1395 c 2,45,-1
 1249 78 l 2,46,47
 1255 56 1255 56 1255 41 c 0,48,49
 1255 -4 1255 -4 1153 -4 c 2,50,-1
 1063 -4 l 2,51,52
 963 -4 963 -4 948 39 c 2,53,-1
 866 289 l 1,54,-1
 383 289 l 1,55,-1
 301 39 l 2,56,57
 287 -4 287 -4 207 -4 c 2,58,-1
 125 -4 l 2,59,60
 0 -4 0 -4 0 41 c 0,61,62
 0 49 0 49 8 78 c 2,63,-1
 459 1395 l 2,64,65
 475 1438 475 1438 575 1438 c 2,42,-1
631 1055 m 1,66,-1
 623 1055 l 1,67,68
 605 955 605 955 592 924 c 2,69,-1
 471 559 l 1,70,-1
 778 559 l 1,71,-1
 662 924 l 2,72,73
 647 965 647 965 631 1055 c 1,66,-1
EndSplineSet
Position2: "'cpsp' Capital Spacing lookup 0 subtable" dx=10 dy=0 dh=20 dv=0
EndChar

StartChar: Acircumflextilde
Encoding: 7850 7850 14
Width: 1255
GlyphClass: 2
Flags: MW
HStem: 289 270<471 778 471 866 383 778> 1397 41G<575 682 682 712> 1534 250<375 641 389 641 618 825 618 870> 1847 176<742 769> 1903 176<493 522>
VStem: 0 1255<27 46>
AnchorPoint: "Anchor-1" 897 1714 basechar 0
AnchorPoint: "Anchor-0" 635 0 basechar 0
LayerCount: 2
Fore
SplineSet
530 2079 m 0,0,1
 596 2079 596 2079 660.5 2051 c 128,-1,2
 725 2023 725 2023 770 2023 c 128,-1,3
 815 2023 815 2023 861 2054 c 128,-1,4
 907 2085 907 2085 942 2041 c 128,-1,5
 977 1997 977 1997 928 1931 c 1,6,7
 850 1847 850 1847 731 1847 c 0,8,9
 665 1847 665 1847 606 1875 c 128,-1,10
 547 1903 547 1903 504 1903 c 128,-1,11
 461 1903 461 1903 415 1876 c 128,-1,12
 369 1849 369 1849 333 1898.5 c 128,-1,13
 297 1948 297 1948 340 1995 c 0,14,15
 434 2079 434 2079 530 2079 c 0,0,1
618 1784 m 2,16,-1
 641 1784 l 2,17,18
 729 1784 729 1784 766 1745 c 1,19,-1
 899 1585 l 1,20,21
 911 1567 911 1567 911 1554 c 0,22,23
 911 1534 911 1534 870 1534 c 2,24,-1
 825 1534 l 2,25,26
 766 1534 766 1534 686 1583 c 1,27,-1
 629 1638 l 1,28,-1
 571 1585 l 2,29,30
 567 1583 567 1583 549.5 1572 c 128,-1,31
 532 1561 532 1561 527 1558.5 c 128,-1,32
 522 1556 522 1556 508 1549 c 128,-1,33
 494 1542 494 1542 484 1540 c 0,34,35
 456 1534 456 1534 434 1534 c 2,36,-1
 389 1534 l 2,37,38
 348 1534 348 1534 348 1554 c 0,39,40
 348 1566 348 1566 360 1585 c 1,41,-1
 494 1745 l 1,42,43
 530 1784 530 1784 618 1784 c 2,16,-1
575 1438 m 2,44,-1
 682 1438 l 2,45,46
 782 1438 782 1438 799 1395 c 2,47,-1
 1249 78 l 2,48,49
 1255 56 1255 56 1255 41 c 0,50,51
 1255 -4 1255 -4 1153 -4 c 2,52,-1
 1063 -4 l 2,53,54
 963 -4 963 -4 948 39 c 2,55,-1
 866 289 l 1,56,-1
 383 289 l 1,57,-1
 301 39 l 2,58,59
 287 -4 287 -4 207 -4 c 2,60,-1
 125 -4 l 2,61,62
 0 -4 0 -4 0 41 c 0,63,64
 0 49 0 49 8 78 c 2,65,-1
 459 1395 l 2,66,67
 475 1438 475 1438 575 1438 c 2,44,-1
631 1055 m 1,68,-1
 623 1055 l 1,69,70
 605 955 605 955 592 924 c 2,71,-1
 471 559 l 1,72,-1
 778 559 l 1,73,-1
 662 924 l 2,74,75
 647 965 647 965 631 1055 c 1,68,-1
EndSplineSet
Position2: "'cpsp' Capital Spacing lookup 0 subtable" dx=10 dy=0 dh=20 dv=0
EndChar

StartChar: Adieresis
Encoding: 196 196 15
Width: 1255
GlyphClass: 2
Flags: MW
HStem: 289 270<471 778 471 866 383 778> 1397 41G<575 682 682 712> 1546 254<401 487 770 856>
VStem: 322 246<1612 1735 1590 1756> 690 246<1612 1735 1590 1756>
AnchorPoint: "Anchor-1" 641 1796 basechar 0
AnchorPoint: "Anchor-0" 635 0 basechar 0
LayerCount: 2
Fore
SplineSet
444.5 1800 m 128,-1,1
 567 1800 567 1800 567 1735 c 2,2,-1
 567 1612 l 2,3,4
 567 1546 567 1546 444.5 1546 c 128,-1,5
 322 1546 322 1546 322 1612 c 2,6,-1
 322 1735 l 2,7,0
 322 1800 322 1800 444.5 1800 c 128,-1,1
813 1800 m 128,-1,9
 936 1800 936 1800 936 1735 c 2,10,-1
 936 1612 l 2,11,12
 936 1546 936 1546 813 1546 c 128,-1,13
 690 1546 690 1546 690 1612 c 2,14,-1
 690 1735 l 2,15,8
 690 1800 690 1800 813 1800 c 128,-1,9
575 1438 m 2,16,-1
 682 1438 l 2,17,18
 782 1438 782 1438 799 1395 c 2,19,-1
 1249 78 l 2,20,21
 1255 56 1255 56 1255 41 c 0,22,23
 1255 -4 1255 -4 1153 -4 c 2,24,-1
 1063 -4 l 2,25,26
 963 -4 963 -4 948 39 c 2,27,-1
 866 289 l 1,28,-1
 383 289 l 1,29,-1
 301 39 l 2,30,31
 287 -4 287 -4 207 -4 c 2,32,-1
 125 -4 l 2,33,34
 0 -4 0 -4 0 41 c 0,35,36
 0 49 0 49 8 78 c 2,37,-1
 459 1395 l 2,38,39
 475 1438 475 1438 575 1438 c 2,16,-1
631 1055 m 1,40,-1
 623 1055 l 1,41,42
 605 955 605 955 592 924 c 2,43,-1
 471 559 l 1,44,-1
 778 559 l 1,45,-1
 662 924 l 2,46,47
 647 965 647 965 631 1055 c 1,40,-1
EndSplineSet
Position2: "'cpsp' Capital Spacing lookup 0 subtable" dx=10 dy=0 dh=20 dv=0
EndChar

StartChar: Adotbelow
Encoding: 7840 7840 16
Width: 1255
GlyphClass: 2
Flags: MW
HStem: -418 254<596 682> 289 270<471 778 471 866 383 778> 1397 41G<575 682 682 712>
VStem: 516 246<-352 -229 -374 -208>
AnchorPoint: "Anchor-1" 643 -168 basechar 0
AnchorPoint: "Anchor-0" 641 -416 basechar 0
LayerCount: 2
Fore
SplineSet
575 1438 m 2,0,-1
 682 1438 l 2,1,2
 782 1438 782 1438 799 1395 c 2,3,-1
 1249 78 l 2,4,5
 1255 56 1255 56 1255 41 c 0,6,7
 1255 -4 1255 -4 1153 -4 c 2,8,-1
 1063 -4 l 2,9,10
 963 -4 963 -4 948 39 c 2,11,-1
 866 289 l 1,12,-1
 383 289 l 1,13,-1
 301 39 l 2,14,15
 287 -4 287 -4 207 -4 c 2,16,-1
 125 -4 l 2,17,18
 0 -4 0 -4 0 41 c 0,19,20
 0 49 0 49 8 78 c 2,21,-1
 459 1395 l 2,22,23
 475 1438 475 1438 575 1438 c 2,0,-1
631 1055 m 1,24,-1
 623 1055 l 1,25,26
 605 955 605 955 592 924 c 2,27,-1
 471 559 l 1,28,-1
 778 559 l 1,29,-1
 662 924 l 2,30,31
 647 965 647 965 631 1055 c 1,24,-1
639 -164 m 128,-1,33
 762 -164 762 -164 762 -229 c 2,34,-1
 762 -352 l 2,35,36
 762 -418 762 -418 639 -418 c 128,-1,37
 516 -418 516 -418 516 -352 c 2,38,-1
 516 -229 l 2,39,32
 516 -164 516 -164 639 -164 c 128,-1,33
EndSplineSet
Position2: "'cpsp' Capital Spacing lookup 0 subtable" dx=10 dy=0 dh=20 dv=0
EndChar

StartChar: Agrave
Encoding: 192 192 17
Width: 1255
GlyphClass: 2
Flags: MW
HStem: 289 270<471 778 471 866 383 778> 1397 41G<575 682 682 712> 1540 326<436 745>
VStem: 0 1255<27 46>
AnchorPoint: "Anchor-1" 623 1796 basechar 0
AnchorPoint: "Anchor-0" 635 0 basechar 0
LayerCount: 2
Fore
SplineSet
354 1837 m 0,0,1
 354 1866 354 1866 487.5 1866 c 128,-1,2
 621 1866 621 1866 651 1810 c 0,3,4
 676 1767 676 1767 700.5 1724 c 128,-1,5
 725 1681 725 1681 739.5 1659.5 c 128,-1,6
 754 1638 754 1638 765 1618 c 0,7,8
 784 1583 784 1583 784 1571 c 0,9,10
 784 1540 784 1540 721 1540 c 0,11,12
 615 1540 615 1540 560.5 1599.5 c 128,-1,13
 506 1659 506 1659 441.5 1727.5 c 128,-1,14
 377 1796 377 1796 365.5 1810.5 c 128,-1,15
 354 1825 354 1825 354 1837 c 0,0,1
575 1438 m 2,16,-1
 682 1438 l 2,17,18
 782 1438 782 1438 799 1395 c 2,19,-1
 1249 78 l 2,20,21
 1255 56 1255 56 1255 41 c 0,22,23
 1255 -4 1255 -4 1153 -4 c 2,24,-1
 1063 -4 l 2,25,26
 963 -4 963 -4 948 39 c 2,27,-1
 866 289 l 1,28,-1
 383 289 l 1,29,-1
 301 39 l 2,30,31
 287 -4 287 -4 207 -4 c 2,32,-1
 125 -4 l 2,33,34
 0 -4 0 -4 0 41 c 0,35,36
 0 49 0 49 8 78 c 2,37,-1
 459 1395 l 2,38,39
 475 1438 475 1438 575 1438 c 2,16,-1
631 1055 m 1,40,-1
 623 1055 l 1,41,42
 605 955 605 955 592 924 c 2,43,-1
 471 559 l 1,44,-1
 778 559 l 1,45,-1
 662 924 l 2,46,47
 647 965 647 965 631 1055 c 1,40,-1
EndSplineSet
Position2: "'cpsp' Capital Spacing lookup 0 subtable" dx=10 dy=0 dh=20 dv=0
EndChar

StartChar: Ahookabove
Encoding: 7842 7842 18
Width: 1255
GlyphClass: 2
Flags: MW
HStem: 289 270<471 778 471 866 383 778> 1397 41G<575 682 682 712> 1776 125<620 655>
VStem: 705 178<1700 1745>
AnchorPoint: "Anchor-1" 631 1796 basechar 0
AnchorPoint: "Anchor-0" 635 0 basechar 0
LayerCount: 2
Fore
SplineSet
636 1643.5 m 128,-1,1
 705 1696 705 1696 705 1723.5 c 128,-1,2
 705 1751 705 1751 685.5 1763.5 c 128,-1,3
 666 1776 666 1776 639 1776 c 128,-1,4
 612 1776 612 1776 585.5 1763.5 c 128,-1,5
 559 1751 559 1751 550 1751 c 128,-1,6
 541 1751 541 1751 516.5 1783 c 128,-1,7
 492 1815 492 1815 492 1836.5 c 128,-1,8
 492 1858 492 1858 547 1879.5 c 128,-1,9
 602 1901 602 1901 655 1901 c 0,10,11
 764 1901 764 1901 823.5 1858 c 128,-1,12
 883 1815 883 1815 883 1741 c 128,-1,13
 883 1667 883 1667 800 1598.5 c 128,-1,14
 717 1530 717 1530 680 1530 c 128,-1,15
 643 1530 643 1530 605 1547.5 c 128,-1,16
 567 1565 567 1565 567 1578 c 128,-1,0
 567 1591 567 1591 636 1643.5 c 128,-1,1
575 1438 m 2,17,-1
 682 1438 l 2,18,19
 782 1438 782 1438 799 1395 c 2,20,-1
 1249 78 l 2,21,22
 1255 56 1255 56 1255 41 c 0,23,24
 1255 -4 1255 -4 1153 -4 c 2,25,-1
 1063 -4 l 2,26,27
 963 -4 963 -4 948 39 c 2,28,-1
 866 289 l 1,29,-1
 383 289 l 1,30,-1
 301 39 l 2,31,32
 287 -4 287 -4 207 -4 c 2,33,-1
 125 -4 l 2,34,35
 0 -4 0 -4 0 41 c 0,36,37
 0 49 0 49 8 78 c 2,38,-1
 459 1395 l 2,39,40
 475 1438 475 1438 575 1438 c 2,17,-1
631 1055 m 1,41,-1
 623 1055 l 1,42,43
 605 955 605 955 592 924 c 2,44,-1
 471 559 l 1,45,-1
 778 559 l 1,46,-1
 662 924 l 2,47,48
 647 965 647 965 631 1055 c 1,41,-1
EndSplineSet
Position2: "'cpsp' Capital Spacing lookup 0 subtable" dx=10 dy=0 dh=20 dv=0
EndChar

StartChar: Amacron
Encoding: 256 256 19
Width: 1255
GlyphClass: 2
Flags: MW
HStem: 289 270<471 778 471 866 383 778> 1397 41G<575 682 682 712> 1585 195<388 850 410 850>
VStem: 0 1255<27 46>
AnchorPoint: "Anchor-1" 627 1796 basechar 0
AnchorPoint: "Anchor-0" 635 0 basechar 0
LayerCount: 2
Fore
SplineSet
410 1780 m 2,0,-1
 850 1780 l 2,1,2
 911 1780 911 1780 911 1698 c 2,3,-1
 911 1667 l 2,4,5
 911 1585 911 1585 850 1585 c 2,6,-1
 410 1585 l 2,7,8
 349 1585 349 1585 348 1667 c 2,9,-1
 348 1698 l 2,10,11
 349 1780 349 1780 410 1780 c 2,0,-1
575 1438 m 2,12,-1
 682 1438 l 2,13,14
 782 1438 782 1438 799 1395 c 2,15,-1
 1249 78 l 2,16,17
 1255 56 1255 56 1255 41 c 0,18,19
 1255 -4 1255 -4 1153 -4 c 2,20,-1
 1063 -4 l 2,21,22
 963 -4 963 -4 948 39 c 2,23,-1
 866 289 l 1,24,-1
 383 289 l 1,25,-1
 301 39 l 2,26,27
 287 -4 287 -4 207 -4 c 2,28,-1
 125 -4 l 2,29,30
 0 -4 0 -4 0 41 c 0,31,32
 0 49 0 49 8 78 c 2,33,-1
 459 1395 l 2,34,35
 475 1438 475 1438 575 1438 c 2,12,-1
631 1055 m 1,36,-1
 623 1055 l 1,37,38
 605 955 605 955 592 924 c 2,39,-1
 471 559 l 1,40,-1
 778 559 l 1,41,-1
 662 924 l 2,42,43
 647 965 647 965 631 1055 c 1,36,-1
EndSplineSet
Position2: "'cpsp' Capital Spacing lookup 0 subtable" dx=10 dy=0 dh=20 dv=0
EndChar

StartChar: Aogonek
Encoding: 260 260 20
Width: 1255
GlyphClass: 2
Flags: MW
HStem: -375 143<1211 1251> 289 270<471 778 471 866 383 778> 1397 41G<575 682 682 712>
VStem: 971 137<-176 -150>
AnchorPoint: "Anchor-1" 629 1434 basechar 0
AnchorPoint: "Anchor-0" 995 -416 basechar 0
LayerCount: 2
Fore
SplineSet
1335 -215 m 0,0,1
 1380 -215 1380 -215 1380 -272 c 0,2,3
 1380 -374 1380 -374 1212 -375 c 0,4,5
 1136 -375 1136 -375 1083 -351.5 c 128,-1,6
 1030 -328 1030 -328 1009 -291 c 0,7,8
 971 -226 971 -226 971 -166 c 0,9,10
 971 -55 971 -55 1020 -2 c 1,11,12
 961 4 961 4 948 39 c 2,13,-1
 866 289 l 1,14,-1
 383 289 l 1,15,-1
 301 39 l 2,16,17
 287 -4 287 -4 207 -4 c 2,18,-1
 125 -4 l 2,19,20
 0 -4 0 -4 0 41 c 0,21,22
 0 49 0 49 8 78 c 2,23,-1
 459 1395 l 2,24,25
 475 1438 475 1438 575 1438 c 2,26,-1
 682 1438 l 2,27,28
 782 1438 782 1438 799 1395 c 2,29,-1
 1249 78 l 2,30,31
 1255 56 1255 56 1255 41 c 0,32,33
 1255 -4 1255 -4 1153 -4 c 2,34,-1
 1130 -4 l 1,35,-1
 1130 -10 l 2,36,37
 1130 -22 1130 -22 1119 -58 c 128,-1,38
 1108 -94 1108 -94 1108 -127 c 0,39,40
 1108 -231 1108 -231 1235 -231 c 0,41,42
 1262 -231 1262 -231 1290.5 -223 c 128,-1,43
 1319 -215 1319 -215 1335 -215 c 0,0,1
778 559 m 1,44,-1
 662 924 l 2,45,46
 648 965 648 965 631 1055 c 1,47,-1
 623 1055 l 1,48,49
 605 955 605 955 592 924 c 2,50,-1
 471 559 l 1,51,-1
 778 559 l 1,44,-1
EndSplineSet
Position2: "'cpsp' Capital Spacing lookup 0 subtable" dx=10 dy=0 dh=20 dv=0
EndChar

StartChar: Aring
Encoding: 197 197 21
Width: 1255
GlyphClass: 2
Flags: MW
HStem: 289 270<471 778 471 866 383 778> 1397 41G<575 682 682 712> 1489 127<608 649 608 686> 1765 131<608 649>
VStem: 426 129<1669 1710 1669 1749> 705 129<1669 1710>
AnchorPoint: "Anchor-1" 631 1796 basechar 0
AnchorPoint: "Anchor-0" 635 0 basechar 0
LayerCount: 2
Fore
SplineSet
629 1896 m 128,-1,1
 715 1896 715 1896 774.5 1837 c 128,-1,2
 834 1778 834 1778 834 1692 c 128,-1,3
 834 1606 834 1606 774.5 1547.5 c 128,-1,4
 715 1489 715 1489 629 1489 c 128,-1,5
 543 1489 543 1489 484.5 1547.5 c 128,-1,6
 426 1606 426 1606 426 1692 c 128,-1,7
 426 1778 426 1778 484.5 1837 c 128,-1,0
 543 1896 543 1896 629 1896 c 128,-1,1
628.5 1765 m 128,-1,9
 598 1765 598 1765 576.5 1742.5 c 128,-1,10
 555 1720 555 1720 555 1689.5 c 128,-1,11
 555 1659 555 1659 576.5 1637.5 c 128,-1,12
 598 1616 598 1616 628.5 1616 c 128,-1,13
 659 1616 659 1616 682 1637.5 c 128,-1,14
 705 1659 705 1659 705 1689.5 c 128,-1,15
 705 1720 705 1720 682 1742.5 c 128,-1,8
 659 1765 659 1765 628.5 1765 c 128,-1,9
575 1438 m 2,16,-1
 682 1438 l 2,17,18
 782 1438 782 1438 799 1395 c 2,19,-1
 1249 78 l 2,20,21
 1255 56 1255 56 1255 41 c 0,22,23
 1255 -4 1255 -4 1153 -4 c 2,24,-1
 1063 -4 l 2,25,26
 963 -4 963 -4 948 39 c 2,27,-1
 866 289 l 1,28,-1
 383 289 l 1,29,-1
 301 39 l 2,30,31
 287 -4 287 -4 207 -4 c 2,32,-1
 125 -4 l 2,33,34
 0 -4 0 -4 0 41 c 0,35,36
 0 49 0 49 8 78 c 2,37,-1
 459 1395 l 2,38,39
 475 1438 475 1438 575 1438 c 2,16,-1
631 1055 m 1,40,-1
 623 1055 l 1,41,42
 605 955 605 955 592 924 c 2,43,-1
 471 559 l 1,44,-1
 778 559 l 1,45,-1
 662 924 l 2,46,47
 647 965 647 965 631 1055 c 1,40,-1
EndSplineSet
Position2: "'cpsp' Capital Spacing lookup 0 subtable" dx=10 dy=0 dh=20 dv=0
EndChar

StartChar: Aringacute
Encoding: 506 506 22
Width: 1255
GlyphClass: 2
Flags: MW
HStem: 289 270<471 778 471 866 383 778> 1499 131<608 649> 1663 244<573 834>
VStem: 426 129<1411 1444 1403 1483> 705 129<1410 1444>
AnchorPoint: "Anchor-1" 631 1530 basechar 0
AnchorPoint: "Anchor-0" 0 0 basechar 0
LayerCount: 2
Fore
SplineSet
598 1663 m 0,0,1
 535 1663 535 1663 535 1694 c 1,2,3
 572 1780 572 1780 618 1851 c 0,4,5
 649 1906 649 1906 782 1907 c 0,6,7
 915 1907 915 1907 915 1878 c 0,8,9
 915 1866 915 1866 852 1807 c 0,10,11
 789 1749 789 1749 752 1714 c 0,12,13
 704 1663 704 1663 598 1663 c 0,0,1
817 1343 m 1,14,-1
 1249 78 l 2,15,16
 1255 56 1255 56 1255 41 c 0,17,18
 1255 -4 1255 -4 1153 -4 c 2,19,-1
 1063 -4 l 2,20,21
 963 -4 963 -4 948 39 c 2,22,-1
 866 289 l 1,23,-1
 383 289 l 1,24,-1
 301 39 l 2,25,26
 287 -4 287 -4 207 -4 c 2,27,-1
 125 -4 l 2,28,29
 0 -4 0 -4 0 41 c 0,30,31
 0 49 0 49 8 78 c 2,32,-1
 442 1346 l 1,33,34
 426 1385 426 1385 426 1425 c 0,35,36
 426 1511 426 1511 484.5 1570.5 c 128,-1,37
 543 1630 543 1630 629 1630 c 128,-1,38
 715 1630 715 1630 774.5 1570.5 c 128,-1,39
 834 1511 834 1511 834 1425 c 0,40,41
 833 1382 833 1382 817 1343 c 1,14,-1
628.5 1499 m 128,-1,43
 598 1499 598 1499 576.5 1476.5 c 128,-1,44
 555 1454 555 1454 555 1423.5 c 128,-1,45
 555 1393 555 1393 576.5 1371.5 c 128,-1,46
 598 1350 598 1350 628.5 1350 c 128,-1,47
 659 1350 659 1350 682 1371.5 c 128,-1,48
 705 1393 705 1393 705 1423.5 c 128,-1,49
 705 1454 705 1454 682 1476.5 c 128,-1,42
 659 1499 659 1499 628.5 1499 c 128,-1,43
778 559 m 1,50,-1
 662 924 l 2,51,52
 648 965 648 965 631 1055 c 1,53,-1
 623 1055 l 1,54,55
 605 955 605 955 592 924 c 2,56,-1
 471 559 l 1,57,-1
 778 559 l 1,50,-1
EndSplineSet
Position2: "'cpsp' Capital Spacing lookup 0 subtable" dx=10 dy=0 dh=20 dv=0
EndChar

StartChar: Atilde
Encoding: 195 195 23
Width: 1255
GlyphClass: 2
Flags: MW
HStem: 289 270<471 778 471 866 383 778> 1397 41G<575 682 682 712> 1550 176<742 771> 1606 176<468 500>
VStem: 0 1255<27 46>
AnchorPoint: "Anchor-1" 627 1796 basechar 0
AnchorPoint: "Anchor-0" 635 0 basechar 0
LayerCount: 2
Fore
SplineSet
299 1698 m 0,0,1
 405 1782 405 1782 493.5 1782 c 128,-1,2
 582 1782 582 1782 652.5 1754 c 128,-1,3
 723 1726 723 1726 771 1726 c 128,-1,4
 819 1726 819 1726 870.5 1757 c 128,-1,5
 922 1788 922 1788 963 1745 c 0,6,7
 1002 1700 1002 1700 946 1634 c 0,8,9
 862 1550 862 1550 729 1550 c 0,10,11
 659 1550 659 1550 593.5 1578 c 128,-1,12
 528 1606 528 1606 480 1606 c 128,-1,13
 432 1606 432 1606 382 1579 c 128,-1,14
 332 1552 332 1552 292 1601.5 c 128,-1,15
 252 1651 252 1651 299 1698 c 0,0,1
575 1438 m 2,16,-1
 682 1438 l 2,17,18
 782 1438 782 1438 799 1395 c 2,19,-1
 1249 78 l 2,20,21
 1255 56 1255 56 1255 41 c 0,22,23
 1255 -4 1255 -4 1153 -4 c 2,24,-1
 1063 -4 l 2,25,26
 963 -4 963 -4 948 39 c 2,27,-1
 866 289 l 1,28,-1
 383 289 l 1,29,-1
 301 39 l 2,30,31
 287 -4 287 -4 207 -4 c 2,32,-1
 125 -4 l 2,33,34
 0 -4 0 -4 0 41 c 0,35,36
 0 49 0 49 8 78 c 2,37,-1
 459 1395 l 2,38,39
 475 1438 475 1438 575 1438 c 2,16,-1
631 1055 m 1,40,-1
 623 1055 l 1,41,42
 605 955 605 955 592 924 c 2,43,-1
 471 559 l 1,44,-1
 778 559 l 1,45,-1
 662 924 l 2,46,47
 647 965 647 965 631 1055 c 1,40,-1
EndSplineSet
Position2: "'cpsp' Capital Spacing lookup 0 subtable" dx=10 dy=0 dh=20 dv=0
EndChar

StartChar: AE
Encoding: 198 198 24
Width: 1873
GlyphClass: 2
Flags: MW
HStem: 0 268<1010 1710 1233 1710 1233 1710> 289 270<553 868 553 918 420 868> 600 268<1169 1653 1169 1169> 1165 268<1059 1708 1059 1059>
VStem: 2 1769<27 102>
AnchorPoint: "Anchor-1" 938 1434 basechar 0
AnchorPoint: "Anchor-0" 0 0 basechar 0
LayerCount: 2
Fore
SplineSet
758 1434 m 2,0,-1
 1708 1434 l 2,1,2
 1769 1434 1769 1434 1769 1331 c 2,3,-1
 1769 1268 l 2,4,5
 1769 1166 1769 1166 1708 1165 c 2,6,-1
 1059 1165 l 1,7,-1
 1116 868 l 1,8,-1
 1653 868 l 2,9,10
 1714 868 1714 868 1714 766 c 2,11,-1
 1714 702 l 2,12,13
 1714 600 1714 600 1653 600 c 2,14,-1
 1169 600 l 1,15,-1
 1233 268 l 1,16,-1
 1710 268 l 2,17,18
 1771 268 1771 268 1772 166 c 2,19,-1
 1772 102 l 2,20,21
 1772 0 1772 0 1710 0 c 2,22,-1
 1032 0 l 2,23,24
 973 0 973 0 961 61 c 2,25,-1
 918 289 l 1,26,-1
 420 289 l 1,27,-1
 297 39 l 2,28,29
 274 -4 274 -4 203 -4 c 2,30,-1
 127 -4 l 2,31,32
 2 -4 2 -4 2 41 c 0,33,34
 2 61 2 61 10 78 c 2,35,-1
 668 1378 l 2,36,37
 697 1434 697 1434 758 1434 c 2,0,-1
793 1100 m 1,38,-1
 735 932 l 1,39,-1
 553 559 l 1,40,-1
 868 559 l 1,41,-1
 801 930 l 1,42,-1
 801 1100 l 1,43,-1
 793 1100 l 1,38,-1
EndSplineSet
Position2: "'cpsp' Capital Spacing lookup 0 subtable" dx=10 dy=0 dh=20 dv=0
EndChar

StartChar: AEacute
Encoding: 508 508 25
Width: 1873
GlyphClass: 2
Flags: MW
HStem: 0 268<1010 1710 1233 1710 1233 1710> 289 270<553 868 553 918 420 868> 600 268<1169 1653 1169 1169> 1165 268<1059 1708 1059 1059> 1540 326<834 1143>
VStem: 2 1769<27 102>
AnchorPoint: "Anchor-1" 950 1796 basechar 0
AnchorPoint: "Anchor-0" 0 0 basechar 0
LayerCount: 2
Fore
SplineSet
928 1810 m 0,0,1
 959 1865 959 1865 1092 1865.5 c 128,-1,2
 1225 1866 1225 1866 1225 1837 c 0,3,4
 1225 1825 1225 1825 1212.5 1808.5 c 128,-1,5
 1200 1792 1200 1792 1163 1754 c 128,-1,6
 1126 1716 1126 1716 1112 1701 c 128,-1,7
 1098 1686 1098 1686 1069 1654 c 128,-1,8
 1040 1622 1040 1622 1012 1591 c 0,9,10
 965 1540 965 1540 858 1540 c 0,11,12
 795 1540 795 1540 795 1571 c 0,13,14
 795 1593 795 1593 824.5 1637 c 128,-1,15
 854 1681 854 1681 878.5 1724 c 128,-1,16
 903 1767 903 1767 928 1810 c 0,0,1
758 1434 m 2,17,-1
 1708 1434 l 2,18,19
 1769 1434 1769 1434 1769 1331 c 2,20,-1
 1769 1268 l 2,21,22
 1769 1166 1769 1166 1708 1165 c 2,23,-1
 1059 1165 l 1,24,-1
 1116 868 l 1,25,-1
 1653 868 l 2,26,27
 1714 868 1714 868 1714 766 c 2,28,-1
 1714 702 l 2,29,30
 1714 600 1714 600 1653 600 c 2,31,-1
 1169 600 l 1,32,-1
 1233 268 l 1,33,-1
 1710 268 l 2,34,35
 1771 268 1771 268 1772 166 c 2,36,-1
 1772 102 l 2,37,38
 1772 0 1772 0 1710 0 c 2,39,-1
 1032 0 l 2,40,41
 973 0 973 0 961 61 c 2,42,-1
 918 289 l 1,43,-1
 420 289 l 1,44,-1
 297 39 l 2,45,46
 274 -4 274 -4 203 -4 c 2,47,-1
 127 -4 l 2,48,49
 2 -4 2 -4 2 41 c 0,50,51
 2 61 2 61 10 78 c 2,52,-1
 668 1378 l 2,53,54
 697 1434 697 1434 758 1434 c 2,17,-1
793 1100 m 1,55,-1
 735 932 l 1,56,-1
 553 559 l 1,57,-1
 868 559 l 1,58,-1
 801 930 l 1,59,-1
 801 1100 l 1,60,-1
 793 1100 l 1,55,-1
EndSplineSet
Position2: "'cpsp' Capital Spacing lookup 0 subtable" dx=10 dy=0 dh=20 dv=0
EndChar

StartChar: B
Encoding: 66 66 26
Width: 1214
GlyphClass: 2
Flags: MW
HStem: 0 268<195 657 457 657 457 657> 594 268<457 598 457 598 598 625> 1167 266<457 457 457 602>
VStem: 141 315<268 594 862 1167> 788 324<1001 1066> 846 324<381 487>
LayerCount: 2
Fore
SplineSet
223 1434 m 2,0,-1
 629 1434 l 2,1,2
 879 1434 879 1434 995.5 1337.5 c 128,-1,3
 1112 1241 1112 1241 1112 1071 c 0,4,5
 1112 969 1112 969 1049.5 884 c 128,-1,6
 987 799 987 799 891 760 c 1,7,-1
 893 752 l 1,8,9
 1014 727 1014 727 1091.5 631 c 128,-1,10
 1169 535 1169 535 1169 416 c 0,11,12
 1169 215 1169 215 1041 107.5 c 128,-1,13
 913 0 913 0 657 0 c 2,14,-1
 223 0 l 2,15,16
 141 0 141 0 141 82 c 2,17,-1
 141 1352 l 2,18,19
 141 1434 141 1434 223 1434 c 2,0,-1
457 1167 m 1,20,-1
 457 862 l 1,21,-1
 598 862 l 2,22,23
 688 862 688 862 738 905 c 128,-1,24
 788 948 788 948 788 1016 c 0,25,26
 788 1168 788 1168 602 1167 c 2,27,-1
 457 1167 l 1,20,-1
457 594 m 1,28,-1
 457 268 l 1,29,-1
 657 268 l 2,30,31
 747 268 747 268 796.5 311 c 128,-1,32
 846 354 846 354 846 434 c 0,33,34
 846 594 846 594 625 594 c 2,35,-1
 457 594 l 1,28,-1
EndSplineSet
Position2: "'cpsp' Capital Spacing lookup 0 subtable" dx=10 dy=0 dh=20 dv=0
EndChar

StartChar: C
Encoding: 67 67 27
Width: 1267
GlyphClass: 2
Flags: MW
HStem: -16 268<648 848> 1180 270<649 866 549 867>
VStem: 92 324<565 872 565 965>
AnchorPoint: "Anchor-1" 754 1434 basechar 0
AnchorPoint: "Anchor-0" 764 0 basechar 0
LayerCount: 2
Fore
SplineSet
776 1450 m 0,0,1
 926 1450 926 1450 1065 1409 c 128,-1,2
 1204 1368 1204 1368 1204 1307 c 0,3,4
 1204 1262 1204 1262 1156 1188 c 128,-1,5
 1108 1114 1108 1114 1071 1114 c 0,6,7
 1065 1114 1065 1114 1029 1130 c 0,8,9
 921 1179 921 1179 770 1180 c 0,10,11
 416 1180 416 1180 416 716 c 128,-1,12
 416 252 416 252 766 252 c 0,13,14
 913 252 913 252 1049 313 c 0,15,16
 1094 333 1094 333 1102 334 c 0,17,18
 1145 334 1145 334 1184 263.5 c 128,-1,19
 1223 193 1223 193 1223 156 c 0,20,21
 1223 74 1223 74 1071.5 29 c 128,-1,22
 920 -16 920 -16 766 -16 c 0,23,24
 422 -16 422 -16 257 163 c 128,-1,25
 92 342 92 342 92 721 c 0,26,27
 92 1450 92 1450 776 1450 c 0,0,1
EndSplineSet
Position2: "'cpsp' Capital Spacing lookup 0 subtable" dx=10 dy=0 dh=20 dv=0
EndChar

StartChar: Cacute
Encoding: 262 262 28
Width: 1267
GlyphClass: 2
Flags: MW
HStem: -16 268<648 848> 1180 270<649 866 549 867> 1540 326<649 958>
VStem: 92 324<565 872 565 965>
AnchorPoint: "Anchor-1" 766 1796 basechar 0
AnchorPoint: "Anchor-0" 764 0 basechar 0
LayerCount: 2
Fore
SplineSet
743 1810 m 0,0,1
 774 1865 774 1865 907 1865.5 c 128,-1,2
 1040 1866 1040 1866 1040 1837 c 0,3,4
 1040 1825 1040 1825 1028 1808.5 c 128,-1,5
 1016 1792 1016 1792 979 1754 c 128,-1,6
 942 1716 942 1716 927.5 1701 c 128,-1,7
 913 1686 913 1686 884.5 1654 c 128,-1,8
 856 1622 856 1622 827 1591 c 0,9,10
 780 1540 780 1540 674 1540 c 0,11,12
 611 1540 611 1540 610 1571 c 0,13,14
 610 1593 610 1593 640 1637 c 128,-1,15
 670 1681 670 1681 694 1724 c 128,-1,16
 718 1767 718 1767 743 1810 c 0,0,1
776 1450 m 0,17,18
 926 1450 926 1450 1065 1409 c 128,-1,19
 1204 1368 1204 1368 1204 1307 c 0,20,21
 1204 1262 1204 1262 1156 1188 c 128,-1,22
 1108 1114 1108 1114 1071 1114 c 0,23,24
 1065 1114 1065 1114 1029 1130 c 0,25,26
 921 1179 921 1179 770 1180 c 0,27,28
 416 1180 416 1180 416 716 c 128,-1,29
 416 252 416 252 766 252 c 0,30,31
 913 252 913 252 1049 313 c 0,32,33
 1094 333 1094 333 1102 334 c 0,34,35
 1145 334 1145 334 1184 263.5 c 128,-1,36
 1223 193 1223 193 1223 156 c 0,37,38
 1223 74 1223 74 1071.5 29 c 128,-1,39
 920 -16 920 -16 766 -16 c 0,40,41
 422 -16 422 -16 257 163 c 128,-1,42
 92 342 92 342 92 721 c 0,43,44
 92 1450 92 1450 776 1450 c 0,17,18
EndSplineSet
Substitution2: "'locl' Localized Forms in Latin lookup 11 subtable" Cacute.loclPLK
Substitution2: "'aalt' Access All Alternates lookup 0 subtable" Cacute.loclPLK
Position2: "'cpsp' Capital Spacing lookup 0 subtable" dx=10 dy=0 dh=20 dv=0
EndChar

StartChar: Ccaron
Encoding: 268 268 29
Width: 1267
GlyphClass: 2
Flags: MW
HStem: -16 268<648 848> 1180 270<649 866 549 867> 1534 299<514 743 514 766>
VStem: 92 324<565 872 565 965>
AnchorPoint: "Anchor-1" 756 1796 basechar 0
AnchorPoint: "Anchor-0" 764 0 basechar 0
LayerCount: 2
Fore
SplineSet
950 1833 m 2,0,-1
 995 1833 l 2,1,2
 1036 1833 1036 1833 1036 1812 c 0,3,4
 1036 1800 1036 1800 1024 1782 c 2,5,-1
 891 1573 l 2,6,7
 866 1534 866 1534 766 1534 c 2,8,-1
 743 1534 l 2,9,10
 643 1534 643 1534 618 1573 c 2,11,-1
 485 1782 l 2,12,13
 473 1800 473 1800 473 1812 c 0,14,15
 473 1832 473 1832 514 1833 c 2,16,-1
 559 1833 l 2,17,18
 659 1833 659 1833 696 1782 c 2,19,-1
 754 1702 l 1,20,-1
 811 1784 l 2,21,22
 844 1833 844 1833 950 1833 c 2,0,-1
776 1450 m 0,23,24
 926 1450 926 1450 1065 1409 c 128,-1,25
 1204 1368 1204 1368 1204 1307 c 0,26,27
 1204 1262 1204 1262 1156 1188 c 128,-1,28
 1108 1114 1108 1114 1071 1114 c 0,29,30
 1065 1114 1065 1114 1029 1130 c 0,31,32
 921 1179 921 1179 770 1180 c 0,33,34
 416 1180 416 1180 416 716 c 128,-1,35
 416 252 416 252 766 252 c 0,36,37
 913 252 913 252 1049 313 c 0,38,39
 1094 333 1094 333 1102 334 c 0,40,41
 1145 334 1145 334 1184 263.5 c 128,-1,42
 1223 193 1223 193 1223 156 c 0,43,44
 1223 74 1223 74 1071.5 29 c 128,-1,45
 920 -16 920 -16 766 -16 c 0,46,47
 422 -16 422 -16 257 163 c 128,-1,48
 92 342 92 342 92 721 c 0,49,50
 92 1450 92 1450 776 1450 c 0,23,24
EndSplineSet
Position2: "'cpsp' Capital Spacing lookup 0 subtable" dx=10 dy=0 dh=20 dv=0
EndChar

StartChar: Ccedilla
Encoding: 199 199 30
Width: 1267
GlyphClass: 2
Flags: MW
HStem: -434 150<670 729 668 808> -14 266<827 827> 1180 270<649 866 549 867>
VStem: 92 324<565 872 565 965> 760 211<-261 -224>
AnchorPoint: "Anchor-1" 754 1434 basechar 0
AnchorPoint: "Anchor-0" 719 -416 basechar 0
LayerCount: 2
Fore
SplineSet
1223 156 m 0,0,1
 1223 82 1223 82 1101 38 c 128,-1,2
 979 -6 979 -6 827 -14 c 1,3,-1
 813 -74 l 1,4,5
 876 -82 876 -82 923.5 -120 c 128,-1,6
 971 -158 971 -158 971 -229 c 0,7,8
 971 -434 971 -434 727 -434 c 0,9,10
 631 -434 631 -434 545 -405.5 c 128,-1,11
 459 -377 459 -377 459 -332 c 128,-1,12
 459 -287 459 -287 482.5 -264.5 c 128,-1,13
 506 -242 506 -242 524.5 -242 c 128,-1,14
 543 -242 543 -242 603.5 -263.5 c 128,-1,15
 664 -285 664 -285 712 -285 c 128,-1,16
 760 -285 760 -285 760 -250 c 0,17,18
 760 -223 760 -223 705.5 -199.5 c 128,-1,19
 651 -176 651 -176 651 -152 c 0,20,21
 651 -140 651 -140 692 -14 c 1,22,23
 387 4 387 4 239.5 183 c 128,-1,24
 92 362 92 362 92 721 c 0,25,26
 92 1450 92 1450 776 1450 c 0,27,28
 926 1450 926 1450 1065 1409 c 128,-1,29
 1204 1368 1204 1368 1204 1307 c 0,30,31
 1204 1262 1204 1262 1156 1188 c 128,-1,32
 1108 1114 1108 1114 1071 1114 c 0,33,34
 1065 1114 1065 1114 1029 1130 c 0,35,36
 921 1179 921 1179 770 1180 c 0,37,38
 416 1180 416 1180 416 716 c 128,-1,39
 416 252 416 252 766 252 c 0,40,41
 913 252 913 252 1049 313 c 0,42,43
 1094 333 1094 333 1102 334 c 0,44,45
 1145 334 1145 334 1184 263.5 c 128,-1,46
 1223 193 1223 193 1223 156 c 0,0,1
EndSplineSet
Position2: "'cpsp' Capital Spacing lookup 0 subtable" dx=10 dy=0 dh=20 dv=0
EndChar

StartChar: Ccircumflex
Encoding: 264 264 31
Width: 1267
GlyphClass: 2
Flags: MW
HStem: -16 268<648 848> 1180 270<649 866 549 867> 1534 299<500 766 514 766 743 950 743 995>
VStem: 92 324<565 872 565 965>
AnchorPoint: "Anchor-1" 1061 1624 basechar 0
AnchorPoint: "Anchor-0" 764 0 basechar 0
LayerCount: 2
Fore
SplineSet
743 1833 m 2,0,-1
 766 1833 l 2,1,2
 866 1833 866 1833 891 1794 c 2,3,-1
 1024 1585 l 2,4,5
 1036 1567 1036 1567 1036 1554 c 0,6,7
 1036 1534 1036 1534 995 1534 c 2,8,-1
 950 1534 l 2,9,10
 844 1534 844 1534 811 1583 c 2,11,-1
 754 1665 l 1,12,-1
 696 1585 l 2,13,14
 659 1534 659 1534 559 1534 c 2,15,-1
 514 1534 l 2,16,17
 473 1534 473 1534 473 1554 c 0,18,19
 473 1566 473 1566 485 1585 c 2,20,-1
 618 1794 l 2,21,22
 643 1833 643 1833 743 1833 c 2,0,-1
776 1450 m 0,23,24
 926 1450 926 1450 1065 1409 c 128,-1,25
 1204 1368 1204 1368 1204 1307 c 0,26,27
 1204 1262 1204 1262 1156 1188 c 128,-1,28
 1108 1114 1108 1114 1071 1114 c 0,29,30
 1065 1114 1065 1114 1029 1130 c 0,31,32
 921 1179 921 1179 770 1180 c 0,33,34
 416 1180 416 1180 416 716 c 128,-1,35
 416 252 416 252 766 252 c 0,36,37
 913 252 913 252 1049 313 c 0,38,39
 1094 333 1094 333 1102 334 c 0,40,41
 1145 334 1145 334 1184 263.5 c 128,-1,42
 1223 193 1223 193 1223 156 c 0,43,44
 1223 74 1223 74 1071.5 29 c 128,-1,45
 920 -16 920 -16 766 -16 c 0,46,47
 422 -16 422 -16 257 163 c 128,-1,48
 92 342 92 342 92 721 c 0,49,50
 92 1450 92 1450 776 1450 c 0,23,24
EndSplineSet
Position2: "'cpsp' Capital Spacing lookup 0 subtable" dx=10 dy=0 dh=20 dv=0
EndChar

StartChar: Cdotaccent
Encoding: 266 266 32
Width: 1267
GlyphClass: 2
Flags: MW
HStem: -16 268<648 848> 1180 270<649 866 549 867> 1546 254<711 797>
VStem: 92 324<565 872 565 965> 631 246<1612 1735 1590 1756>
AnchorPoint: "Anchor-1" 758 1796 basechar 0
AnchorPoint: "Anchor-0" 764 0 basechar 0
LayerCount: 2
Fore
SplineSet
754 1800 m 128,-1,1
 877 1800 877 1800 877 1735 c 2,2,-1
 877 1612 l 2,3,4
 877 1546 877 1546 754 1546 c 128,-1,5
 631 1546 631 1546 631 1612 c 2,6,-1
 631 1735 l 2,7,0
 631 1800 631 1800 754 1800 c 128,-1,1
776 1450 m 0,8,9
 926 1450 926 1450 1065 1409 c 128,-1,10
 1204 1368 1204 1368 1204 1307 c 0,11,12
 1204 1262 1204 1262 1156 1188 c 128,-1,13
 1108 1114 1108 1114 1071 1114 c 0,14,15
 1065 1114 1065 1114 1029 1130 c 0,16,17
 921 1179 921 1179 770 1180 c 0,18,19
 416 1180 416 1180 416 716 c 128,-1,20
 416 252 416 252 766 252 c 0,21,22
 913 252 913 252 1049 313 c 0,23,24
 1094 333 1094 333 1102 334 c 0,25,26
 1145 334 1145 334 1184 263.5 c 128,-1,27
 1223 193 1223 193 1223 156 c 0,28,29
 1223 74 1223 74 1071.5 29 c 128,-1,30
 920 -16 920 -16 766 -16 c 0,31,32
 422 -16 422 -16 257 163 c 128,-1,33
 92 342 92 342 92 721 c 0,34,35
 92 1450 92 1450 776 1450 c 0,8,9
EndSplineSet
Position2: "'cpsp' Capital Spacing lookup 0 subtable" dx=10 dy=0 dh=20 dv=0
EndChar

StartChar: D
Encoding: 68 68 33
Width: 1423
GlyphClass: 2
Flags: MW
HStem: 0 268<195 682 459 682 459 682> 1165 268<459 459 459 682>
VStem: 141 317<268 1165 268 1352 268 1380> 1014 324<571 862>
AnchorPoint: "Anchor-1" 682 1434 basechar 0
AnchorPoint: "Anchor-0" 678 0 basechar 0
LayerCount: 2
Fore
SplineSet
223 1434 m 2,0,-1
 682 1434 l 2,1,2
 999 1434 999 1434 1168 1248.5 c 128,-1,3
 1337 1063 1337 1063 1337 717 c 128,-1,4
 1337 371 1337 371 1168 185.5 c 128,-1,5
 999 0 999 0 682 0 c 2,6,-1
 223 0 l 2,7,8
 141 0 141 0 141 82 c 2,9,-1
 141 1352 l 2,10,11
 141 1434 141 1434 223 1434 c 2,0,-1
459 1165 m 1,12,-1
 459 268 l 1,13,-1
 682 268 l 2,14,15
 846 268 846 268 930 383 c 128,-1,16
 1014 498 1014 498 1014 717 c 128,-1,17
 1014 936 1014 936 930 1050.5 c 128,-1,18
 846 1165 846 1165 682 1165 c 2,19,-1
 459 1165 l 1,12,-1
EndSplineSet
Position2: "'cpsp' Capital Spacing lookup 0 subtable" dx=10 dy=0 dh=20 dv=0
EndChar

StartChar: DZ
Encoding: 497 497 34
Width: 2684
GlyphClass: 2
Flags: MW
HStem: 0 268<195 682 459 682 459 682 1925 2550> 1165 268<459 459 459 682 1599 2169>
VStem: 141 317<268 1165 268 1352 268 1380> 1014 324<571 862>
AnchorPoint: "Anchor-1" 2054 1434 basechar 0
AnchorPoint: "Anchor-0" 2036 0 basechar 0
LayerCount: 2
Fore
SplineSet
223 1434 m 2,0,-1
 682 1434 l 2,1,2
 999 1434 999 1434 1168 1248.5 c 128,-1,3
 1337 1063 1337 1063 1337 717 c 128,-1,4
 1337 371 1337 371 1168 185.5 c 128,-1,5
 999 0 999 0 682 0 c 2,6,-1
 223 0 l 2,7,8
 141 0 141 0 141 82 c 2,9,-1
 141 1352 l 2,10,11
 141 1434 141 1434 223 1434 c 2,0,-1
1599 1434 m 2,12,-1
 2535 1434 l 2,13,14
 2558 1434 2558 1434 2584.5 1362 c 128,-1,15
 2611 1290 2611 1290 2611 1262 c 0,16,17
 2611 1233 2611 1233 2609 1229 c 2,18,-1
 1925 268 l 1,19,-1
 2550 268 l 2,20,21
 2611 268 2611 268 2611 166 c 2,22,-1
 2611 102 l 2,23,24
 2611 0 2611 0 2550 0 c 2,25,-1
 1559 0 l 2,26,27
 1534 0 1534 0 1506.5 68.5 c 128,-1,28
 1479 137 1479 137 1479 166 c 0,29,30
 1479 195 1479 195 1483 203 c 2,31,-1
 2169 1165 l 1,32,-1
 1599 1165 l 2,33,34
 1538 1165 1538 1165 1538 1268 c 2,35,-1
 1538 1331 l 2,36,37
 1538 1434 1538 1434 1599 1434 c 2,12,-1
459 1165 m 1,38,-1
 459 268 l 1,39,-1
 682 268 l 2,40,41
 846 268 846 268 930 383 c 128,-1,42
 1014 498 1014 498 1014 717 c 128,-1,43
 1014 936 1014 936 930 1050.5 c 128,-1,44
 846 1165 846 1165 682 1165 c 2,45,-1
 459 1165 l 1,38,-1
EndSplineSet
Position2: "'cpsp' Capital Spacing lookup 0 subtable" dx=10 dy=0 dh=20 dv=0
EndChar

StartChar: DZcaron
Encoding: 452 452 35
Width: 2684
GlyphClass: 2
Flags: MW
HStem: 0 268<195 682 459 682 459 682 1925 2550> 1165 268<459 459 459 682 1599 2169> 1534 299<1815 2044 1815 2066>
VStem: 141 317<268 1165 268 1352 268 1380> 1014 324<571 862>
AnchorPoint: "Anchor-1" 2056 1796 basechar 0
AnchorPoint: "Anchor-0" 2036 0 basechar 0
LayerCount: 2
Fore
SplineSet
2251 1833 m 2,0,-1
 2296 1833 l 2,1,2
 2337 1833 2337 1833 2337 1812 c 0,3,4
 2337 1800 2337 1800 2324 1782 c 2,5,-1
 2191 1573 l 2,6,7
 2166 1534 2166 1534 2066 1534 c 2,8,-1
 2044 1534 l 2,9,10
 1944 1534 1944 1534 1919 1573 c 2,11,-1
 1786 1782 l 2,12,13
 1774 1800 1774 1800 1774 1812 c 0,14,15
 1774 1832 1774 1832 1815 1833 c 2,16,-1
 1860 1833 l 2,17,18
 1960 1833 1960 1833 1997 1782 c 2,19,-1
 2054 1702 l 1,20,-1
 2111 1784 l 2,21,22
 2145 1833 2145 1833 2251 1833 c 2,0,-1
223 1434 m 2,23,-1
 682 1434 l 2,24,25
 999 1434 999 1434 1168 1248.5 c 128,-1,26
 1337 1063 1337 1063 1337 717 c 128,-1,27
 1337 371 1337 371 1168 185.5 c 128,-1,28
 999 0 999 0 682 0 c 2,29,-1
 223 0 l 2,30,31
 141 0 141 0 141 82 c 2,32,-1
 141 1352 l 2,33,34
 141 1434 141 1434 223 1434 c 2,23,-1
1599 1434 m 2,35,-1
 2535 1434 l 2,36,37
 2558 1434 2558 1434 2584.5 1362 c 128,-1,38
 2611 1290 2611 1290 2611 1262 c 0,39,40
 2611 1233 2611 1233 2609 1229 c 2,41,-1
 1925 268 l 1,42,-1
 2550 268 l 2,43,44
 2611 268 2611 268 2611 166 c 2,45,-1
 2611 102 l 2,46,47
 2611 0 2611 0 2550 0 c 2,48,-1
 1559 0 l 2,49,50
 1534 0 1534 0 1506.5 68.5 c 128,-1,51
 1479 137 1479 137 1479 166 c 0,52,53
 1479 195 1479 195 1483 203 c 2,54,-1
 2169 1165 l 1,55,-1
 1599 1165 l 2,56,57
 1538 1165 1538 1165 1538 1268 c 2,58,-1
 1538 1331 l 2,59,60
 1538 1434 1538 1434 1599 1434 c 2,35,-1
459 1165 m 1,61,-1
 459 268 l 1,62,-1
 682 268 l 2,63,64
 846 268 846 268 930 383 c 128,-1,65
 1014 498 1014 498 1014 717 c 128,-1,66
 1014 936 1014 936 930 1050.5 c 128,-1,67
 846 1165 846 1165 682 1165 c 2,68,-1
 459 1165 l 1,61,-1
EndSplineSet
Position2: "'cpsp' Capital Spacing lookup 0 subtable" dx=10 dy=0 dh=20 dv=0
EndChar

StartChar: Eth
Encoding: 208 208 36
Width: 1425
GlyphClass: 2
Flags: MW
HStem: 0 268<199 686 463 686 463 686> 596 266<65 145 86 145 463 584> 1165 268<463 463 463 686>
VStem: 145 317<268 596 268 596 268 596 862 1165> 1018 324<571 862>
LayerCount: 2
Fore
SplineSet
227 1434 m 2,0,-1
 686 1434 l 2,1,2
 1003 1434 1003 1434 1172 1248.5 c 128,-1,3
 1341 1063 1341 1063 1341 717 c 128,-1,4
 1341 371 1341 371 1172.5 185.5 c 128,-1,5
 1004 0 1004 0 686 0 c 2,6,-1
 227 0 l 2,7,8
 145 0 145 0 145 82 c 2,9,-1
 145 596 l 1,10,-1
 86 596 l 2,11,12
 25 596 25 596 25 698 c 2,13,-1
 25 760 l 2,14,15
 25 862 25 862 86 862 c 2,16,-1
 145 862 l 1,17,-1
 145 1352 l 2,18,19
 145 1434 145 1434 227 1434 c 2,0,-1
463 1165 m 1,20,-1
 463 862 l 1,21,-1
 584 862 l 2,22,23
 645 862 645 862 645 760 c 2,24,-1
 645 698 l 2,25,26
 645 596 645 596 584 596 c 2,27,-1
 463 596 l 1,28,-1
 463 268 l 1,29,-1
 686 268 l 2,30,31
 850 268 850 268 934 383 c 128,-1,32
 1018 498 1018 498 1018 717 c 128,-1,33
 1018 936 1018 936 934 1050.5 c 128,-1,34
 850 1165 850 1165 686 1165 c 2,35,-1
 463 1165 l 1,20,-1
EndSplineSet
Position2: "'cpsp' Capital Spacing lookup 0 subtable" dx=10 dy=0 dh=20 dv=0
EndChar

StartChar: Dcaron
Encoding: 270 270 37
Width: 1423
GlyphClass: 2
Flags: MW
HStem: 0 268<195 682 459 682 459 682> 1165 268<459 459 459 682> 1534 299<442 672 442 694>
VStem: 141 317<268 1165 268 1352 268 1380> 1014 324<571 862>
AnchorPoint: "Anchor-1" 684 1796 basechar 0
AnchorPoint: "Anchor-0" 678 0 basechar 0
LayerCount: 2
Fore
SplineSet
879 1833 m 2,0,-1
 924 1833 l 2,1,2
 965 1833 965 1833 965 1812 c 0,3,4
 965 1800 965 1800 952 1782 c 2,5,-1
 819 1573 l 2,6,7
 794 1534 794 1534 694 1534 c 2,8,-1
 672 1534 l 2,9,10
 572 1534 572 1534 547 1573 c 2,11,-1
 414 1782 l 2,12,13
 402 1800 402 1800 401 1812 c 0,14,15
 401 1832 401 1832 442 1833 c 2,16,-1
 487 1833 l 2,17,18
 587 1833 587 1833 625 1782 c 2,19,-1
 682 1702 l 1,20,-1
 739 1784 l 2,21,22
 773 1833 773 1833 879 1833 c 2,0,-1
223 1434 m 2,23,-1
 682 1434 l 2,24,25
 999 1434 999 1434 1168 1248.5 c 128,-1,26
 1337 1063 1337 1063 1337 717 c 128,-1,27
 1337 371 1337 371 1168 185.5 c 128,-1,28
 999 0 999 0 682 0 c 2,29,-1
 223 0 l 2,30,31
 141 0 141 0 141 82 c 2,32,-1
 141 1352 l 2,33,34
 141 1434 141 1434 223 1434 c 2,23,-1
459 1165 m 1,35,-1
 459 268 l 1,36,-1
 682 268 l 2,37,38
 846 268 846 268 930 383 c 128,-1,39
 1014 498 1014 498 1014 717 c 128,-1,40
 1014 936 1014 936 930 1050.5 c 128,-1,41
 846 1165 846 1165 682 1165 c 2,42,-1
 459 1165 l 1,35,-1
EndSplineSet
Position2: "'cpsp' Capital Spacing lookup 0 subtable" dx=10 dy=0 dh=20 dv=0
EndChar

StartChar: Dcroat
Encoding: 272 272 38
Width: 1425
GlyphClass: 2
Flags: MW
HStem: 0 268<199 686 463 686 463 686> 596 266<65 145 86 145 463 584> 1165 268<463 463 463 686>
VStem: 145 317<268 596 268 596 268 596 862 1165> 1018 324<571 862>
LayerCount: 2
Fore
SplineSet
227 1434 m 2,0,-1
 686 1434 l 2,1,2
 1003 1434 1003 1434 1172 1248.5 c 128,-1,3
 1341 1063 1341 1063 1341 717 c 128,-1,4
 1341 371 1341 371 1172.5 185.5 c 128,-1,5
 1004 0 1004 0 686 0 c 2,6,-1
 227 0 l 2,7,8
 145 0 145 0 145 82 c 2,9,-1
 145 596 l 1,10,-1
 86 596 l 2,11,12
 25 596 25 596 25 698 c 2,13,-1
 25 760 l 2,14,15
 25 862 25 862 86 862 c 2,16,-1
 145 862 l 1,17,-1
 145 1352 l 2,18,19
 145 1434 145 1434 227 1434 c 2,0,-1
463 1165 m 1,20,-1
 463 862 l 1,21,-1
 584 862 l 2,22,23
 645 862 645 862 645 760 c 2,24,-1
 645 698 l 2,25,26
 645 596 645 596 584 596 c 2,27,-1
 463 596 l 1,28,-1
 463 268 l 1,29,-1
 686 268 l 2,30,31
 850 268 850 268 934 383 c 128,-1,32
 1018 498 1018 498 1018 717 c 128,-1,33
 1018 936 1018 936 934 1050.5 c 128,-1,34
 850 1165 850 1165 686 1165 c 2,35,-1
 463 1165 l 1,20,-1
EndSplineSet
Position2: "'cpsp' Capital Spacing lookup 0 subtable" dx=10 dy=0 dh=20 dv=0
EndChar

StartChar: Ddotbelow
Encoding: 7692 7692 39
Width: 1423
GlyphClass: 2
Flags: MW
HStem: -418 254<639 725> 0 268<195 682 459 682 459 682> 1165 268<459 459 459 682>
VStem: 141 317<268 1165 268 1352 268 1380> 559 246<-352 -229 -374 -208> 1014 324<571 862>
AnchorPoint: "Anchor-1" 686 -168 basechar 0
AnchorPoint: "Anchor-0" 684 -416 basechar 0
LayerCount: 2
Fore
SplineSet
223 1434 m 2,0,-1
 682 1434 l 2,1,2
 999 1434 999 1434 1168 1248.5 c 128,-1,3
 1337 1063 1337 1063 1337 717 c 128,-1,4
 1337 371 1337 371 1168 185.5 c 128,-1,5
 999 0 999 0 682 0 c 2,6,-1
 223 0 l 2,7,8
 141 0 141 0 141 82 c 2,9,-1
 141 1352 l 2,10,11
 141 1434 141 1434 223 1434 c 2,0,-1
459 1165 m 1,12,-1
 459 268 l 1,13,-1
 682 268 l 2,14,15
 846 268 846 268 930 383 c 128,-1,16
 1014 498 1014 498 1014 717 c 128,-1,17
 1014 936 1014 936 930 1050.5 c 128,-1,18
 846 1165 846 1165 682 1165 c 2,19,-1
 459 1165 l 1,12,-1
682 -164 m 128,-1,21
 805 -164 805 -164 805 -229 c 2,22,-1
 805 -352 l 2,23,24
 805 -418 805 -418 682 -418 c 128,-1,25
 559 -418 559 -418 559 -352 c 2,26,-1
 559 -229 l 2,27,20
 559 -164 559 -164 682 -164 c 128,-1,21
EndSplineSet
Position2: "'cpsp' Capital Spacing lookup 0 subtable" dx=10 dy=0 dh=20 dv=0
EndChar

StartChar: Dz
Encoding: 498 498 40
Width: 2424
GlyphClass: 2
Flags: MW
HStem: 0 240<1884 2304 1884 2304> 831 240<1551 2298 1573 1954> 1165 268<459 459 459 682>
VStem: 141 317<268 1165 268 1352 268 1380> 1014 324<571 862>
AnchorPoint: "Anchor-1" 1925 1071 basechar 0
AnchorPoint: "Anchor-0" 1917 0 basechar 0
LayerCount: 2
Fore
SplineSet
223 1434 m 2,0,-1
 682 1434 l 2,1,2
 999 1434 999 1434 1168 1248.5 c 128,-1,3
 1337 1063 1337 1063 1337 717 c 128,-1,4
 1337 371 1337 371 1168 185.5 c 128,-1,5
 999 0 999 0 682 0 c 2,6,-1
 223 0 l 2,7,8
 141 0 141 0 141 82 c 2,9,-1
 141 1352 l 2,10,11
 141 1434 141 1434 223 1434 c 2,0,-1
459 1165 m 1,12,-1
 459 268 l 1,13,-1
 682 268 l 2,14,15
 846 268 846 268 930 383 c 128,-1,16
 1014 498 1014 498 1014 717 c 128,-1,17
 1014 936 1014 936 930 1050.5 c 128,-1,18
 846 1165 846 1165 682 1165 c 2,19,-1
 459 1165 l 1,12,-1
1573 1071 m 2,20,-1
 2298 1071 l 2,21,22
 2314 1071 2314 1071 2335.5 1013.5 c 128,-1,23
 2357 956 2357 956 2357 924 c 0,24,25
 2357 892 2357 892 2351 883 c 2,26,-1
 1884 240 l 1,27,-1
 2304 240 l 2,28,29
 2365 240 2365 240 2365 137 c 2,30,-1
 2365 102 l 2,31,32
 2365 0 2365 0 2304 0 c 2,33,-1
 1538 0 l 2,34,35
 1520 0 1520 0 1499.5 56.5 c 128,-1,36
 1479 113 1479 113 1479 144 c 0,37,38
 1479 176 1479 176 1485 184 c 2,39,-1
 1954 831 l 1,40,-1
 1573 831 l 2,41,42
 1512 831 1512 831 1511 934 c 2,43,-1
 1511 969 l 2,44,45
 1512 1071 1512 1071 1573 1071 c 2,20,-1
EndSplineSet
Position2: "'cpsp' Capital Spacing lookup 0 subtable" dx=10 dy=0 dh=20 dv=0
EndChar

StartChar: Dzcaron
Encoding: 453 453 41
Width: 2424
GlyphClass: 2
Flags: MW
HStem: 0 240<1884 2304 1884 2304> 831 240<1551 2298 1573 1954> 1165 268<459 459 459 682> 1171 299<1686 1915 1686 1937>
VStem: 141 317<268 1165 268 1352 268 1380> 1014 324<571 862>
AnchorPoint: "Anchor-1" 1927 1434 basechar 0
AnchorPoint: "Anchor-0" 1917 0 basechar 0
LayerCount: 2
Fore
SplineSet
2122 1470 m 2,0,-1
 2167 1470 l 2,1,2
 2208 1470 2208 1470 2208 1450 c 0,3,4
 2208 1438 2208 1438 2195 1419 c 2,5,-1
 2062 1210 l 2,6,7
 2037 1171 2037 1171 1937 1171 c 2,8,-1
 1915 1171 l 2,9,10
 1815 1171 1815 1171 1790 1210 c 2,11,-1
 1657 1419 l 2,12,13
 1645 1437 1645 1437 1645 1450 c 0,14,15
 1645 1470 1645 1470 1686 1470 c 2,16,-1
 1731 1470 l 2,17,18
 1831 1470 1831 1470 1868 1419 c 2,19,-1
 1925 1339 l 1,20,-1
 1982 1421 l 2,21,22
 2016 1470 2016 1470 2122 1470 c 2,0,-1
223 1434 m 2,23,-1
 682 1434 l 2,24,25
 999 1434 999 1434 1168 1248.5 c 128,-1,26
 1337 1063 1337 1063 1337 717 c 128,-1,27
 1337 371 1337 371 1168 185.5 c 128,-1,28
 999 0 999 0 682 0 c 2,29,-1
 223 0 l 2,30,31
 141 0 141 0 141 82 c 2,32,-1
 141 1352 l 2,33,34
 141 1434 141 1434 223 1434 c 2,23,-1
459 1165 m 1,35,-1
 459 268 l 1,36,-1
 682 268 l 2,37,38
 846 268 846 268 930 383 c 128,-1,39
 1014 498 1014 498 1014 717 c 128,-1,40
 1014 936 1014 936 930 1050.5 c 128,-1,41
 846 1165 846 1165 682 1165 c 2,42,-1
 459 1165 l 1,35,-1
1573 1071 m 2,43,-1
 2298 1071 l 2,44,45
 2314 1071 2314 1071 2335.5 1013.5 c 128,-1,46
 2357 956 2357 956 2357 924 c 0,47,48
 2357 892 2357 892 2351 883 c 2,49,-1
 1884 240 l 1,50,-1
 2304 240 l 2,51,52
 2365 240 2365 240 2365 137 c 2,53,-1
 2365 102 l 2,54,55
 2365 0 2365 0 2304 0 c 2,56,-1
 1538 0 l 2,57,58
 1520 0 1520 0 1499.5 56.5 c 128,-1,59
 1479 113 1479 113 1479 144 c 0,60,61
 1479 176 1479 176 1485 184 c 2,62,-1
 1954 831 l 1,63,-1
 1573 831 l 2,64,65
 1512 831 1512 831 1511 934 c 2,66,-1
 1511 969 l 2,67,68
 1512 1071 1512 1071 1573 1071 c 2,43,-1
EndSplineSet
Position2: "'cpsp' Capital Spacing lookup 0 subtable" dx=10 dy=0 dh=20 dv=0
EndChar

StartChar: E
Encoding: 69 69 42
Width: 1118
GlyphClass: 2
Flags: MW
HStem: 0 268<195 975 457 975 457 975> 600 268<457 918 457 918> 1165 268<457 973 457 457>
VStem: 141 315<268 600 868 1165>
AnchorPoint: "Anchor-1" 604 1434 basechar 0
AnchorPoint: "Anchor-0" 588 0 basechar 0
LayerCount: 2
Fore
SplineSet
223 1434 m 2,0,-1
 973 1434 l 2,1,2
 1034 1434 1034 1434 1034 1331 c 2,3,-1
 1034 1268 l 2,4,5
 1034 1166 1034 1166 973 1165 c 2,6,-1
 457 1165 l 1,7,-1
 457 868 l 1,8,-1
 918 868 l 2,9,10
 979 868 979 868 979 766 c 2,11,-1
 979 702 l 2,12,13
 979 600 979 600 918 600 c 2,14,-1
 457 600 l 1,15,-1
 457 268 l 1,16,-1
 975 268 l 2,17,18
 1036 268 1036 268 1036 166 c 2,19,-1
 1036 102 l 2,20,21
 1036 0 1036 0 975 0 c 2,22,-1
 223 0 l 2,23,24
 141 0 141 0 141 82 c 2,25,-1
 141 1352 l 2,26,27
 141 1434 141 1434 223 1434 c 2,0,-1
EndSplineSet
Position2: "'cpsp' Capital Spacing lookup 0 subtable" dx=10 dy=0 dh=20 dv=0
EndChar

StartChar: Eacute
Encoding: 201 201 43
Width: 1118
GlyphClass: 2
Flags: MW
HStem: 0 268<195 975 457 975 457 975> 600 268<457 918 457 918> 1165 268<457 973 457 457> 1540 326<500 809>
VStem: 141 315<268 600 868 1165>
AnchorPoint: "Anchor-1" 616 1796 basechar 0
AnchorPoint: "Anchor-0" 588 0 basechar 0
LayerCount: 2
Fore
SplineSet
594 1810 m 0,0,1
 625 1865 625 1865 758 1865.5 c 128,-1,2
 891 1866 891 1866 891 1837 c 0,3,4
 891 1825 891 1825 878.5 1808.5 c 128,-1,5
 866 1792 866 1792 829.5 1754 c 128,-1,6
 793 1716 793 1716 778.5 1701 c 128,-1,7
 764 1686 764 1686 735.5 1654 c 128,-1,8
 707 1622 707 1622 678 1591 c 0,9,10
 631 1540 631 1540 524 1540 c 0,11,12
 461 1540 461 1540 461 1571 c 0,13,14
 461 1593 461 1593 490.5 1637 c 128,-1,15
 520 1681 520 1681 544.5 1724 c 128,-1,16
 569 1767 569 1767 594 1810 c 0,0,1
223 1434 m 2,17,-1
 973 1434 l 2,18,19
 1034 1434 1034 1434 1034 1331 c 2,20,-1
 1034 1268 l 2,21,22
 1034 1166 1034 1166 973 1165 c 2,23,-1
 457 1165 l 1,24,-1
 457 868 l 1,25,-1
 918 868 l 2,26,27
 979 868 979 868 979 766 c 2,28,-1
 979 702 l 2,29,30
 979 600 979 600 918 600 c 2,31,-1
 457 600 l 1,32,-1
 457 268 l 1,33,-1
 975 268 l 2,34,35
 1036 268 1036 268 1036 166 c 2,36,-1
 1036 102 l 2,37,38
 1036 0 1036 0 975 0 c 2,39,-1
 223 0 l 2,40,41
 141 0 141 0 141 82 c 2,42,-1
 141 1352 l 2,43,44
 141 1434 141 1434 223 1434 c 2,17,-1
EndSplineSet
Position2: "'cpsp' Capital Spacing lookup 0 subtable" dx=10 dy=0 dh=20 dv=0
EndChar

StartChar: Ebreve
Encoding: 276 276 44
Width: 1118
GlyphClass: 2
Flags: MW
HStem: 0 268<195 975 457 975 457 975> 600 268<457 918 457 918> 1165 268<457 973 457 457> 1540 186<552 659 552 693>
VStem: 141 315<268 600 868 1165>
AnchorPoint: "Anchor-1" 604 1767 basechar 0
AnchorPoint: "Anchor-0" 588 0 basechar 0
LayerCount: 2
Fore
SplineSet
834 1827 m 0,0,1
 906 1827 906 1827 905 1769 c 0,2,3
 905 1679 905 1679 819 1609.5 c 128,-1,4
 733 1540 733 1540 604 1540 c 128,-1,5
 475 1540 475 1540 389 1609.5 c 128,-1,6
 303 1679 303 1679 303 1769 c 0,7,8
 303 1826 303 1826 375 1827 c 0,9,10
 410 1827 410 1827 435.5 1798 c 128,-1,11
 461 1769 461 1769 473 1759 c 0,12,13
 512 1726 512 1726 583.5 1726 c 128,-1,14
 655 1726 655 1726 692 1739.5 c 128,-1,15
 729 1753 729 1753 739.5 1762.5 c 128,-1,16
 750 1772 750 1772 774.5 1799.5 c 128,-1,17
 799 1827 799 1827 834 1827 c 0,0,1
223 1434 m 2,18,-1
 973 1434 l 2,19,20
 1034 1434 1034 1434 1034 1331 c 2,21,-1
 1034 1268 l 2,22,23
 1034 1166 1034 1166 973 1165 c 2,24,-1
 457 1165 l 1,25,-1
 457 868 l 1,26,-1
 918 868 l 2,27,28
 979 868 979 868 979 766 c 2,29,-1
 979 702 l 2,30,31
 979 600 979 600 918 600 c 2,32,-1
 457 600 l 1,33,-1
 457 268 l 1,34,-1
 975 268 l 2,35,36
 1036 268 1036 268 1036 166 c 2,37,-1
 1036 102 l 2,38,39
 1036 0 1036 0 975 0 c 2,40,-1
 223 0 l 2,41,42
 141 0 141 0 141 82 c 2,43,-1
 141 1352 l 2,44,45
 141 1434 141 1434 223 1434 c 2,18,-1
EndSplineSet
Position2: "'cpsp' Capital Spacing lookup 0 subtable" dx=10 dy=0 dh=20 dv=0
EndChar

StartChar: Ecaron
Encoding: 282 282 45
Width: 1118
GlyphClass: 2
Flags: MW
HStem: 0 268<195 975 457 975 457 975> 600 268<457 918 457 918> 1165 268<457 973 457 457> 1534 299<365 594 365 616>
VStem: 141 315<268 600 868 1165>
AnchorPoint: "Anchor-1" 606 1796 basechar 0
AnchorPoint: "Anchor-0" 588 0 basechar 0
LayerCount: 2
Fore
SplineSet
801 1833 m 2,0,-1
 846 1833 l 2,1,2
 887 1833 887 1833 887 1812 c 0,3,4
 887 1800 887 1800 874 1782 c 2,5,-1
 741 1573 l 2,6,7
 716 1534 716 1534 616 1534 c 2,8,-1
 594 1534 l 2,9,10
 494 1534 494 1534 469 1573 c 2,11,-1
 336 1782 l 2,12,13
 324 1800 324 1800 324 1812 c 0,14,15
 324 1832 324 1832 365 1833 c 2,16,-1
 410 1833 l 2,17,18
 510 1833 510 1833 547 1782 c 2,19,-1
 604 1702 l 1,20,-1
 662 1784 l 2,21,22
 695 1833 695 1833 801 1833 c 2,0,-1
223 1434 m 2,23,-1
 973 1434 l 2,24,25
 1034 1434 1034 1434 1034 1331 c 2,26,-1
 1034 1268 l 2,27,28
 1034 1166 1034 1166 973 1165 c 2,29,-1
 457 1165 l 1,30,-1
 457 868 l 1,31,-1
 918 868 l 2,32,33
 979 868 979 868 979 766 c 2,34,-1
 979 702 l 2,35,36
 979 600 979 600 918 600 c 2,37,-1
 457 600 l 1,38,-1
 457 268 l 1,39,-1
 975 268 l 2,40,41
 1036 268 1036 268 1036 166 c 2,42,-1
 1036 102 l 2,43,44
 1036 0 1036 0 975 0 c 2,45,-1
 223 0 l 2,46,47
 141 0 141 0 141 82 c 2,48,-1
 141 1352 l 2,49,50
 141 1434 141 1434 223 1434 c 2,23,-1
EndSplineSet
Position2: "'cpsp' Capital Spacing lookup 0 subtable" dx=10 dy=0 dh=20 dv=0
EndChar

StartChar: Ecircumflex
Encoding: 202 202 46
Width: 1118
GlyphClass: 2
Flags: MW
HStem: 0 268<195 975 457 975 457 975> 600 268<457 918 457 918> 1165 268<457 973 457 457> 1534 299<350 616 365 616 594 801 594 846>
VStem: 141 315<268 600 868 1165>
AnchorPoint: "Anchor-1" 911 1624 basechar 0
AnchorPoint: "Anchor-0" 588 0 basechar 0
LayerCount: 2
Fore
SplineSet
594 1833 m 2,0,-1
 616 1833 l 2,1,2
 716 1833 716 1833 741 1794 c 2,3,-1
 874 1585 l 2,4,5
 886 1567 886 1567 887 1554 c 0,6,7
 887 1534 887 1534 846 1534 c 2,8,-1
 801 1534 l 2,9,10
 695 1534 695 1534 662 1583 c 2,11,-1
 604 1665 l 1,12,-1
 547 1585 l 2,13,14
 510 1534 510 1534 410 1534 c 2,15,-1
 365 1534 l 2,16,17
 324 1534 324 1534 324 1554 c 0,18,19
 324 1566 324 1566 336 1585 c 2,20,-1
 469 1794 l 2,21,22
 494 1833 494 1833 594 1833 c 2,0,-1
223 1434 m 2,23,-1
 973 1434 l 2,24,25
 1034 1434 1034 1434 1034 1331 c 2,26,-1
 1034 1268 l 2,27,28
 1034 1166 1034 1166 973 1165 c 2,29,-1
 457 1165 l 1,30,-1
 457 868 l 1,31,-1
 918 868 l 2,32,33
 979 868 979 868 979 766 c 2,34,-1
 979 702 l 2,35,36
 979 600 979 600 918 600 c 2,37,-1
 457 600 l 1,38,-1
 457 268 l 1,39,-1
 975 268 l 2,40,41
 1036 268 1036 268 1036 166 c 2,42,-1
 1036 102 l 2,43,44
 1036 0 1036 0 975 0 c 2,45,-1
 223 0 l 2,46,47
 141 0 141 0 141 82 c 2,48,-1
 141 1352 l 2,49,50
 141 1434 141 1434 223 1434 c 2,23,-1
EndSplineSet
Position2: "'cpsp' Capital Spacing lookup 0 subtable" dx=10 dy=0 dh=20 dv=0
EndChar

StartChar: Ecircumflexacute
Encoding: 7870 7870 47
Width: 1118
GlyphClass: 2
Flags: MW
HStem: 0 268<195 975 457 975 457 975> 600 268<457 918 457 918> 1165 268<457 973 457 457> 1720 113
VStem: 141 315<268 600 868 1165>
AnchorPoint: "Anchor-1" 879 1698 basechar 0
AnchorPoint: "Anchor-0" 588 0 basechar 0
LayerCount: 2
Fore
SplineSet
1020 1974 m 0,0,1
 1102 1974 1102 1974 1102 1925 c 0,2,3
 1102 1911 1102 1911 1076.5 1876 c 128,-1,4
 1051 1841 1051 1841 950 1720 c 0,5,6
 919 1689 919 1689 838 1690 c 0,7,8
 795 1690 795 1690 795 1720 c 0,9,10
 795 1726 795 1726 866 1919 c 0,11,12
 895 1974 895 1974 1020 1974 c 0,0,1
594 1833 m 2,13,-1
 616 1833 l 2,14,15
 698 1833 698 1833 721 1794 c 2,16,-1
 844 1585 l 2,17,18
 856 1567 856 1567 856 1554 c 0,19,20
 856 1534 856 1534 815 1534 c 2,21,-1
 770 1534 l 2,22,23
 647 1534 647 1534 631 1583 c 2,24,-1
 604 1665 l 1,25,-1
 547 1585 l 2,26,27
 510 1534 510 1534 410 1534 c 2,28,-1
 365 1534 l 2,29,30
 324 1534 324 1534 324 1554 c 0,31,32
 324 1566 324 1566 336 1585 c 2,33,-1
 469 1794 l 2,34,35
 494 1833 494 1833 594 1833 c 2,13,-1
223 1434 m 2,36,-1
 973 1434 l 2,37,38
 1034 1434 1034 1434 1034 1331 c 2,39,-1
 1034 1268 l 2,40,41
 1034 1166 1034 1166 973 1165 c 2,42,-1
 457 1165 l 1,43,-1
 457 868 l 1,44,-1
 918 868 l 2,45,46
 979 868 979 868 979 766 c 2,47,-1
 979 702 l 2,48,49
 979 600 979 600 918 600 c 2,50,-1
 457 600 l 1,51,-1
 457 268 l 1,52,-1
 975 268 l 2,53,54
 1036 268 1036 268 1036 166 c 2,55,-1
 1036 102 l 2,56,57
 1036 0 1036 0 975 0 c 2,58,-1
 223 0 l 2,59,60
 141 0 141 0 141 82 c 2,61,-1
 141 1352 l 2,62,63
 141 1434 141 1434 223 1434 c 2,36,-1
EndSplineSet
Position2: "'cpsp' Capital Spacing lookup 0 subtable" dx=10 dy=0 dh=20 dv=0
EndChar

StartChar: Ecircumflexdotbelow
Encoding: 7878 7878 48
Width: 1118
GlyphClass: 2
Flags: MW
HStem: -418 254<549 635> 0 268<195 975 457 975 457 975> 600 268<457 918 457 918> 1165 268<457 973 457 457> 1534 299<350 616 365 616 594 801 594 846>
VStem: 141 315<268 600 868 1165> 469 246<-352 -229 -374 -208>
AnchorPoint: "Anchor-1" 596 -168 basechar 0
AnchorPoint: "Anchor-0" 594 -416 basechar 0
LayerCount: 2
Fore
SplineSet
594 1833 m 2,0,-1
 616 1833 l 2,1,2
 716 1833 716 1833 741 1794 c 2,3,-1
 874 1585 l 2,4,5
 886 1567 886 1567 887 1554 c 0,6,7
 887 1534 887 1534 846 1534 c 2,8,-1
 801 1534 l 2,9,10
 695 1534 695 1534 662 1583 c 2,11,-1
 604 1665 l 1,12,-1
 547 1585 l 2,13,14
 510 1534 510 1534 410 1534 c 2,15,-1
 365 1534 l 2,16,17
 324 1534 324 1534 324 1554 c 0,18,19
 324 1566 324 1566 336 1585 c 2,20,-1
 469 1794 l 2,21,22
 494 1833 494 1833 594 1833 c 2,0,-1
223 1434 m 2,23,-1
 973 1434 l 2,24,25
 1034 1434 1034 1434 1034 1331 c 2,26,-1
 1034 1268 l 2,27,28
 1034 1166 1034 1166 973 1165 c 2,29,-1
 457 1165 l 1,30,-1
 457 868 l 1,31,-1
 918 868 l 2,32,33
 979 868 979 868 979 766 c 2,34,-1
 979 702 l 2,35,36
 979 600 979 600 918 600 c 2,37,-1
 457 600 l 1,38,-1
 457 268 l 1,39,-1
 975 268 l 2,40,41
 1036 268 1036 268 1036 166 c 2,42,-1
 1036 102 l 2,43,44
 1036 0 1036 0 975 0 c 2,45,-1
 223 0 l 2,46,47
 141 0 141 0 141 82 c 2,48,-1
 141 1352 l 2,49,50
 141 1434 141 1434 223 1434 c 2,23,-1
592 -164 m 128,-1,52
 715 -164 715 -164 715 -229 c 2,53,-1
 715 -352 l 2,54,55
 715 -418 715 -418 592 -418 c 128,-1,56
 469 -418 469 -418 469 -352 c 2,57,-1
 469 -229 l 2,58,51
 469 -164 469 -164 592 -164 c 128,-1,52
EndSplineSet
Position2: "'cpsp' Capital Spacing lookup 0 subtable" dx=10 dy=0 dh=20 dv=0
EndChar

StartChar: Ecircumflexgrave
Encoding: 7872 7872 49
Width: 1118
GlyphClass: 2
Flags: MW
HStem: 0 268<195 975 457 975 457 975> 600 268<457 918 457 918> 1165 268<457 973 457 457> 1534 299<350 616 365 616 594 770 594 815> 1688 285<711 944>
VStem: 141 315<268 600 868 1165>
AnchorPoint: "Anchor-1" 879 1698 basechar 0
AnchorPoint: "Anchor-0" 588 0 basechar 0
LayerCount: 2
Fore
SplineSet
741 1972 m 0,0,1
 891 1972 891 1972 915 1917 c 0,2,3
 983 1749 983 1749 983 1718.5 c 128,-1,4
 983 1688 983 1688 909 1688 c 0,5,6
 835 1688 835 1688 798 1735 c 0,7,8
 760 1782 760 1782 713 1842 c 0,9,10
 666 1902 666 1902 655.5 1916.5 c 128,-1,11
 645 1931 645 1931 645 1944 c 0,12,13
 645 1972 645 1972 741 1972 c 0,0,1
594 1833 m 2,14,-1
 616 1833 l 2,15,16
 698 1833 698 1833 721 1794 c 2,17,-1
 844 1585 l 2,18,19
 856 1567 856 1567 856 1554 c 0,20,21
 856 1534 856 1534 815 1534 c 2,22,-1
 770 1534 l 2,23,24
 647 1534 647 1534 631 1583 c 2,25,-1
 604 1665 l 1,26,-1
 547 1585 l 2,27,28
 510 1534 510 1534 410 1534 c 2,29,-1
 365 1534 l 2,30,31
 324 1534 324 1534 324 1554 c 0,32,33
 324 1566 324 1566 336 1585 c 2,34,-1
 469 1794 l 2,35,36
 494 1833 494 1833 594 1833 c 2,14,-1
223 1434 m 2,37,-1
 973 1434 l 2,38,39
 1034 1434 1034 1434 1034 1331 c 2,40,-1
 1034 1268 l 2,41,42
 1034 1166 1034 1166 973 1165 c 2,43,-1
 457 1165 l 1,44,-1
 457 868 l 1,45,-1
 918 868 l 2,46,47
 979 868 979 868 979 766 c 2,48,-1
 979 702 l 2,49,50
 979 600 979 600 918 600 c 2,51,-1
 457 600 l 1,52,-1
 457 268 l 1,53,-1
 975 268 l 2,54,55
 1036 268 1036 268 1036 166 c 2,56,-1
 1036 102 l 2,57,58
 1036 0 1036 0 975 0 c 2,59,-1
 223 0 l 2,60,61
 141 0 141 0 141 82 c 2,62,-1
 141 1352 l 2,63,64
 141 1434 141 1434 223 1434 c 2,37,-1
EndSplineSet
Position2: "'cpsp' Capital Spacing lookup 0 subtable" dx=10 dy=0 dh=20 dv=0
EndChar

StartChar: Ecircumflexhookabove
Encoding: 7874 7874 50
Width: 1118
GlyphClass: 2
Flags: MW
HStem: 0 268<195 975 457 975 457 975> 600 268<457 918 457 918> 1165 268<457 973 457 457> 1534 299<350 616 365 616 740 757 594 770 594 815> 1833 143<739 909>
VStem: 141 315<268 600 868 1165> 899 141<1825 1844>
AnchorPoint: "Anchor-1" 879 1698 basechar 0
AnchorPoint: "Anchor-0" 588 0 basechar 0
LayerCount: 2
Fore
SplineSet
899 1833 m 0,0,1
 899 1868 899 1868 857 1868 c 128,-1,2
 815 1868 815 1868 782.5 1850.5 c 128,-1,3
 750 1833 750 1833 748 1833 c 0,4,5
 736 1833 736 1833 711 1864.5 c 128,-1,6
 686 1896 686 1896 686 1917.5 c 128,-1,7
 686 1939 686 1939 740.5 1957.5 c 128,-1,8
 795 1976 795 1976 866.5 1976 c 128,-1,9
 938 1976 938 1976 989 1939.5 c 128,-1,10
 1040 1903 1040 1903 1040 1845.5 c 128,-1,11
 1040 1788 1040 1788 985 1744 c 128,-1,12
 930 1700 930 1700 888 1700 c 128,-1,13
 846 1700 846 1700 821.5 1712 c 128,-1,14
 797 1724 797 1724 797 1743 c 0,15,16
 797 1761 797 1761 863 1789 c 0,17,18
 899 1804 899 1804 899 1833 c 0,0,1
594 1833 m 2,19,-1
 616 1833 l 2,20,21
 698 1833 698 1833 721 1794 c 2,22,-1
 844 1585 l 2,23,24
 856 1567 856 1567 856 1554 c 0,25,26
 856 1534 856 1534 815 1534 c 2,27,-1
 770 1534 l 2,28,29
 647 1534 647 1534 631 1583 c 2,30,-1
 604 1665 l 1,31,-1
 547 1585 l 2,32,33
 510 1534 510 1534 410 1534 c 2,34,-1
 365 1534 l 2,35,36
 324 1534 324 1534 324 1554 c 0,37,38
 324 1566 324 1566 336 1585 c 2,39,-1
 469 1794 l 2,40,41
 494 1833 494 1833 594 1833 c 2,19,-1
223 1434 m 2,42,-1
 973 1434 l 2,43,44
 1034 1434 1034 1434 1034 1331 c 2,45,-1
 1034 1268 l 2,46,47
 1034 1166 1034 1166 973 1165 c 2,48,-1
 457 1165 l 1,49,-1
 457 868 l 1,50,-1
 918 868 l 2,51,52
 979 868 979 868 979 766 c 2,53,-1
 979 702 l 2,54,55
 979 600 979 600 918 600 c 2,56,-1
 457 600 l 1,57,-1
 457 268 l 1,58,-1
 975 268 l 2,59,60
 1036 268 1036 268 1036 166 c 2,61,-1
 1036 102 l 2,62,63
 1036 0 1036 0 975 0 c 2,64,-1
 223 0 l 2,65,66
 141 0 141 0 141 82 c 2,67,-1
 141 1352 l 2,68,69
 141 1434 141 1434 223 1434 c 2,42,-1
EndSplineSet
Position2: "'cpsp' Capital Spacing lookup 0 subtable" dx=10 dy=0 dh=20 dv=0
EndChar

StartChar: Ecircumflextilde
Encoding: 7876 7876 51
Width: 1118
GlyphClass: 2
Flags: MW
HStem: 0 268<195 975 457 975 457 975> 600 268<457 918 457 918> 1165 268<457 973 457 457> 1534 250<350 616 365 616 594 801 594 846> 1847 176<718 744> 1903 176<468 498>
VStem: 141 315<268 600 868 1165>
AnchorPoint: "Anchor-1" 872 1714 basechar 0
AnchorPoint: "Anchor-0" 588 0 basechar 0
LayerCount: 2
Fore
SplineSet
506 2079 m 0,0,1
 572 2079 572 2079 636 2051 c 128,-1,2
 700 2023 700 2023 745.5 2023 c 128,-1,3
 791 2023 791 2023 837 2054 c 128,-1,4
 883 2085 883 2085 917.5 2041 c 128,-1,5
 952 1997 952 1997 903 1931 c 1,6,7
 825 1847 825 1847 707 1847 c 0,8,9
 641 1847 641 1847 581.5 1875 c 128,-1,10
 522 1903 522 1903 479 1903 c 128,-1,11
 436 1903 436 1903 390 1876 c 128,-1,12
 344 1849 344 1849 308 1898.5 c 128,-1,13
 272 1948 272 1948 315 1995 c 0,14,15
 410 2079 410 2079 506 2079 c 0,0,1
594 1784 m 2,16,-1
 616 1784 l 2,17,18
 704 1784 704 1784 741 1745 c 1,19,-1
 874 1585 l 1,20,21
 886 1567 886 1567 887 1554 c 0,22,23
 887 1534 887 1534 846 1534 c 2,24,-1
 801 1534 l 2,25,26
 742 1534 742 1534 662 1583 c 1,27,-1
 604 1638 l 1,28,-1
 547 1585 l 2,29,30
 543 1583 543 1583 525.5 1572 c 128,-1,31
 508 1561 508 1561 503 1558.5 c 128,-1,32
 498 1556 498 1556 483.5 1549 c 128,-1,33
 469 1542 469 1542 460 1540 c 0,34,35
 432 1534 432 1534 410 1534 c 2,36,-1
 365 1534 l 2,37,38
 324 1534 324 1534 324 1554 c 0,39,40
 324 1566 324 1566 336 1585 c 1,41,-1
 469 1745 l 1,42,43
 506 1784 506 1784 594 1784 c 2,16,-1
223 1434 m 2,44,-1
 973 1434 l 2,45,46
 1034 1434 1034 1434 1034 1331 c 2,47,-1
 1034 1268 l 2,48,49
 1034 1166 1034 1166 973 1165 c 2,50,-1
 457 1165 l 1,51,-1
 457 868 l 1,52,-1
 918 868 l 2,53,54
 979 868 979 868 979 766 c 2,55,-1
 979 702 l 2,56,57
 979 600 979 600 918 600 c 2,58,-1
 457 600 l 1,59,-1
 457 268 l 1,60,-1
 975 268 l 2,61,62
 1036 268 1036 268 1036 166 c 2,63,-1
 1036 102 l 2,64,65
 1036 0 1036 0 975 0 c 2,66,-1
 223 0 l 2,67,68
 141 0 141 0 141 82 c 2,69,-1
 141 1352 l 2,70,71
 141 1434 141 1434 223 1434 c 2,44,-1
EndSplineSet
Position2: "'cpsp' Capital Spacing lookup 0 subtable" dx=10 dy=0 dh=20 dv=0
EndChar

StartChar: Edieresis
Encoding: 203 203 52
Width: 1118
GlyphClass: 2
Flags: MW
HStem: 0 268<195 975 457 975 457 975> 600 268<457 918 457 918> 1165 268<457 973 457 457> 1546 254<377 463 745 831>
VStem: 141 315<268 600 868 1165> 297 246<1612 1735 1590 1756> 666 246<1612 1735 1590 1756>
AnchorPoint: "Anchor-1" 616 1796 basechar 0
AnchorPoint: "Anchor-0" 588 0 basechar 0
LayerCount: 2
Fore
SplineSet
420 1800 m 128,-1,1
 543 1800 543 1800 543 1735 c 2,2,-1
 543 1612 l 2,3,4
 543 1546 543 1546 420 1546 c 128,-1,5
 297 1546 297 1546 297 1612 c 2,6,-1
 297 1735 l 2,7,0
 297 1800 297 1800 420 1800 c 128,-1,1
788.5 1800 m 128,-1,9
 911 1800 911 1800 911 1735 c 2,10,-1
 911 1612 l 2,11,12
 911 1546 911 1546 788.5 1546 c 128,-1,13
 666 1546 666 1546 666 1612 c 2,14,-1
 666 1735 l 2,15,8
 666 1800 666 1800 788.5 1800 c 128,-1,9
223 1434 m 2,16,-1
 973 1434 l 2,17,18
 1034 1434 1034 1434 1034 1331 c 2,19,-1
 1034 1268 l 2,20,21
 1034 1166 1034 1166 973 1165 c 2,22,-1
 457 1165 l 1,23,-1
 457 868 l 1,24,-1
 918 868 l 2,25,26
 979 868 979 868 979 766 c 2,27,-1
 979 702 l 2,28,29
 979 600 979 600 918 600 c 2,30,-1
 457 600 l 1,31,-1
 457 268 l 1,32,-1
 975 268 l 2,33,34
 1036 268 1036 268 1036 166 c 2,35,-1
 1036 102 l 2,36,37
 1036 0 1036 0 975 0 c 2,38,-1
 223 0 l 2,39,40
 141 0 141 0 141 82 c 2,41,-1
 141 1352 l 2,42,43
 141 1434 141 1434 223 1434 c 2,16,-1
EndSplineSet
Position2: "'cpsp' Capital Spacing lookup 0 subtable" dx=10 dy=0 dh=20 dv=0
EndChar

StartChar: Edotaccent
Encoding: 278 278 53
Width: 1118
GlyphClass: 2
Flags: MW
HStem: 0 268<195 975 457 975 457 975> 600 268<457 918 457 918> 1165 268<457 973 457 457> 1546 254<561 647>
VStem: 141 315<268 600 868 1165> 481 246<1612 1735 1590 1756>
AnchorPoint: "Anchor-1" 608 1796 basechar 0
AnchorPoint: "Anchor-0" 588 0 basechar 0
LayerCount: 2
Fore
SplineSet
604 1800 m 128,-1,1
 727 1800 727 1800 727 1735 c 2,2,-1
 727 1612 l 2,3,4
 727 1546 727 1546 604 1546 c 128,-1,5
 481 1546 481 1546 481 1612 c 2,6,-1
 481 1735 l 2,7,0
 481 1800 481 1800 604 1800 c 128,-1,1
223 1434 m 2,8,-1
 973 1434 l 2,9,10
 1034 1434 1034 1434 1034 1331 c 2,11,-1
 1034 1268 l 2,12,13
 1034 1166 1034 1166 973 1165 c 2,14,-1
 457 1165 l 1,15,-1
 457 868 l 1,16,-1
 918 868 l 2,17,18
 979 868 979 868 979 766 c 2,19,-1
 979 702 l 2,20,21
 979 600 979 600 918 600 c 2,22,-1
 457 600 l 1,23,-1
 457 268 l 1,24,-1
 975 268 l 2,25,26
 1036 268 1036 268 1036 166 c 2,27,-1
 1036 102 l 2,28,29
 1036 0 1036 0 975 0 c 2,30,-1
 223 0 l 2,31,32
 141 0 141 0 141 82 c 2,33,-1
 141 1352 l 2,34,35
 141 1434 141 1434 223 1434 c 2,8,-1
EndSplineSet
Position2: "'cpsp' Capital Spacing lookup 0 subtable" dx=10 dy=0 dh=20 dv=0
EndChar

StartChar: Edotbelow
Encoding: 7864 7864 54
Width: 1118
GlyphClass: 2
Flags: MW
HStem: -418 254<549 635> 0 268<195 975 457 975 457 975> 600 268<457 918 457 918> 1165 268<457 973 457 457>
VStem: 141 315<268 600 868 1165> 469 246<-352 -229 -374 -208>
AnchorPoint: "Anchor-1" 596 -168 basechar 0
AnchorPoint: "Anchor-0" 594 -416 basechar 0
LayerCount: 2
Fore
SplineSet
223 1434 m 2,0,-1
 973 1434 l 2,1,2
 1034 1434 1034 1434 1034 1331 c 2,3,-1
 1034 1268 l 2,4,5
 1034 1166 1034 1166 973 1165 c 2,6,-1
 457 1165 l 1,7,-1
 457 868 l 1,8,-1
 918 868 l 2,9,10
 979 868 979 868 979 766 c 2,11,-1
 979 702 l 2,12,13
 979 600 979 600 918 600 c 2,14,-1
 457 600 l 1,15,-1
 457 268 l 1,16,-1
 975 268 l 2,17,18
 1036 268 1036 268 1036 166 c 2,19,-1
 1036 102 l 2,20,21
 1036 0 1036 0 975 0 c 2,22,-1
 223 0 l 2,23,24
 141 0 141 0 141 82 c 2,25,-1
 141 1352 l 2,26,27
 141 1434 141 1434 223 1434 c 2,0,-1
592 -164 m 128,-1,29
 715 -164 715 -164 715 -229 c 2,30,-1
 715 -352 l 2,31,32
 715 -418 715 -418 592 -418 c 128,-1,33
 469 -418 469 -418 469 -352 c 2,34,-1
 469 -229 l 2,35,28
 469 -164 469 -164 592 -164 c 128,-1,29
EndSplineSet
Position2: "'cpsp' Capital Spacing lookup 0 subtable" dx=10 dy=0 dh=20 dv=0
EndChar

StartChar: Egrave
Encoding: 200 200 55
Width: 1118
GlyphClass: 2
Flags: MW
HStem: 0 268<195 975 457 975 457 975> 600 268<457 918 457 918> 1165 268<457 973 457 457> 1540 326<412 721>
VStem: 141 315<268 600 868 1165>
AnchorPoint: "Anchor-1" 598 1796 basechar 0
AnchorPoint: "Anchor-0" 588 0 basechar 0
LayerCount: 2
Fore
SplineSet
330 1837 m 0,0,1
 330 1866 330 1866 463 1866 c 128,-1,2
 596 1866 596 1866 627 1810 c 0,3,4
 652 1767 652 1767 676 1724 c 128,-1,5
 700 1681 700 1681 714.5 1659.5 c 128,-1,6
 729 1638 729 1638 740 1618 c 0,7,8
 759 1583 759 1583 760 1571 c 0,9,10
 760 1540 760 1540 696 1540 c 0,11,12
 590 1540 590 1540 535.5 1599.5 c 128,-1,13
 481 1659 481 1659 416.5 1727.5 c 128,-1,14
 352 1796 352 1796 341 1810.5 c 128,-1,15
 330 1825 330 1825 330 1837 c 0,0,1
223 1434 m 2,16,-1
 973 1434 l 2,17,18
 1034 1434 1034 1434 1034 1331 c 2,19,-1
 1034 1268 l 2,20,21
 1034 1166 1034 1166 973 1165 c 2,22,-1
 457 1165 l 1,23,-1
 457 868 l 1,24,-1
 918 868 l 2,25,26
 979 868 979 868 979 766 c 2,27,-1
 979 702 l 2,28,29
 979 600 979 600 918 600 c 2,30,-1
 457 600 l 1,31,-1
 457 268 l 1,32,-1
 975 268 l 2,33,34
 1036 268 1036 268 1036 166 c 2,35,-1
 1036 102 l 2,36,37
 1036 0 1036 0 975 0 c 2,38,-1
 223 0 l 2,39,40
 141 0 141 0 141 82 c 2,41,-1
 141 1352 l 2,42,43
 141 1434 141 1434 223 1434 c 2,16,-1
EndSplineSet
Position2: "'cpsp' Capital Spacing lookup 0 subtable" dx=10 dy=0 dh=20 dv=0
EndChar

StartChar: Ehookabove
Encoding: 7866 7866 56
Width: 1118
GlyphClass: 2
Flags: MW
HStem: 0 268<195 975 457 975 457 975> 600 268<457 918 457 918> 1165 268<457 973 457 457> 1776 125<595 631>
VStem: 141 315<268 600 868 1165> 680 178<1700 1745>
AnchorPoint: "Anchor-1" 606 1796 basechar 0
AnchorPoint: "Anchor-0" 588 0 basechar 0
LayerCount: 2
Fore
SplineSet
611.5 1643.5 m 128,-1,1
 680 1696 680 1696 680 1723.5 c 128,-1,2
 680 1751 680 1751 660.5 1763.5 c 128,-1,3
 641 1776 641 1776 614.5 1776 c 128,-1,4
 588 1776 588 1776 561.5 1763.5 c 128,-1,5
 535 1751 535 1751 525.5 1751 c 128,-1,6
 516 1751 516 1751 491.5 1783 c 128,-1,7
 467 1815 467 1815 467 1836.5 c 128,-1,8
 467 1858 467 1858 522.5 1879.5 c 128,-1,9
 578 1901 578 1901 631 1901 c 0,10,11
 740 1901 740 1901 799 1858 c 128,-1,12
 858 1815 858 1815 858 1741 c 128,-1,13
 858 1667 858 1667 775 1598.5 c 128,-1,14
 692 1530 692 1530 655 1530 c 128,-1,15
 618 1530 618 1530 580.5 1547.5 c 128,-1,16
 543 1565 543 1565 543 1578 c 128,-1,0
 543 1591 543 1591 611.5 1643.5 c 128,-1,1
223 1434 m 2,17,-1
 973 1434 l 2,18,19
 1034 1434 1034 1434 1034 1331 c 2,20,-1
 1034 1268 l 2,21,22
 1034 1166 1034 1166 973 1165 c 2,23,-1
 457 1165 l 1,24,-1
 457 868 l 1,25,-1
 918 868 l 2,26,27
 979 868 979 868 979 766 c 2,28,-1
 979 702 l 2,29,30
 979 600 979 600 918 600 c 2,31,-1
 457 600 l 1,32,-1
 457 268 l 1,33,-1
 975 268 l 2,34,35
 1036 268 1036 268 1036 166 c 2,36,-1
 1036 102 l 2,37,38
 1036 0 1036 0 975 0 c 2,39,-1
 223 0 l 2,40,41
 141 0 141 0 141 82 c 2,42,-1
 141 1352 l 2,43,44
 141 1434 141 1434 223 1434 c 2,17,-1
EndSplineSet
Position2: "'cpsp' Capital Spacing lookup 0 subtable" dx=10 dy=0 dh=20 dv=0
EndChar

StartChar: Emacron
Encoding: 274 274 57
Width: 1118
GlyphClass: 2
Flags: MW
HStem: 0 268<195 975 457 975 457 975> 600 268<457 918 457 918> 1165 268<457 973 457 457> 1585 195<364 825 385 825>
VStem: 141 315<268 600 868 1165>
AnchorPoint: "Anchor-1" 602 1796 basechar 0
AnchorPoint: "Anchor-0" 588 0 basechar 0
LayerCount: 2
Fore
SplineSet
385 1780 m 2,0,-1
 825 1780 l 2,1,2
 886 1780 886 1780 887 1698 c 2,3,-1
 887 1667 l 2,4,5
 887 1585 887 1585 825 1585 c 2,6,-1
 385 1585 l 2,7,8
 324 1585 324 1585 324 1667 c 2,9,-1
 324 1698 l 2,10,11
 324 1780 324 1780 385 1780 c 2,0,-1
223 1434 m 2,12,-1
 973 1434 l 2,13,14
 1034 1434 1034 1434 1034 1331 c 2,15,-1
 1034 1268 l 2,16,17
 1034 1166 1034 1166 973 1165 c 2,18,-1
 457 1165 l 1,19,-1
 457 868 l 1,20,-1
 918 868 l 2,21,22
 979 868 979 868 979 766 c 2,23,-1
 979 702 l 2,24,25
 979 600 979 600 918 600 c 2,26,-1
 457 600 l 1,27,-1
 457 268 l 1,28,-1
 975 268 l 2,29,30
 1036 268 1036 268 1036 166 c 2,31,-1
 1036 102 l 2,32,33
 1036 0 1036 0 975 0 c 2,34,-1
 223 0 l 2,35,36
 141 0 141 0 141 82 c 2,37,-1
 141 1352 l 2,38,39
 141 1434 141 1434 223 1434 c 2,12,-1
EndSplineSet
Position2: "'cpsp' Capital Spacing lookup 0 subtable" dx=10 dy=0 dh=20 dv=0
EndChar

StartChar: Eogonek
Encoding: 280 280 58
Width: 1118
GlyphClass: 2
Flags: MW
HStem: -375 143<1050 1090> 0 268<195 975 457 860 969 969 969 975> 600 268<457 918 457 918> 1165 268<457 973 457 457>
VStem: 141 315<268 600 868 1165> 809 137<-176 -148>
AnchorPoint: "Anchor-1" 604 1434 basechar 0
AnchorPoint: "Anchor-0" 834 -416 basechar 0
LayerCount: 2
Fore
SplineSet
1174 -215 m 0,0,1
 1219 -215 1219 -215 1219 -272 c 0,2,3
 1219 -374 1219 -374 1051 -375 c 0,4,5
 975 -375 975 -375 921.5 -351.5 c 128,-1,6
 868 -328 868 -328 847 -291 c 0,7,8
 809 -226 809 -226 809 -166 c 0,9,10
 809 -53 809 -53 860 0 c 1,11,-1
 223 0 l 2,12,13
 141 0 141 0 141 82 c 2,14,-1
 141 1352 l 2,15,16
 141 1434 141 1434 223 1434 c 2,17,-1
 973 1434 l 2,18,19
 1034 1434 1034 1434 1034 1331 c 2,20,-1
 1034 1268 l 2,21,22
 1034 1166 1034 1166 973 1165 c 2,23,-1
 457 1165 l 1,24,-1
 457 868 l 1,25,-1
 918 868 l 2,26,27
 979 868 979 868 979 766 c 2,28,-1
 979 702 l 2,29,30
 979 600 979 600 918 600 c 2,31,-1
 457 600 l 1,32,-1
 457 268 l 1,33,-1
 975 268 l 2,34,35
 1036 268 1036 268 1036 166 c 2,36,-1
 1036 102 l 2,37,38
 1036 0 1036 0 975 0 c 2,39,-1
 969 0 l 1,40,-1
 969 -10 l 2,41,42
 969 -22 969 -22 957.5 -58 c 128,-1,43
 946 -94 946 -94 946 -127 c 0,44,45
 946 -231 946 -231 1073 -231 c 0,46,47
 1100 -231 1100 -231 1129 -223 c 128,-1,48
 1158 -215 1158 -215 1174 -215 c 0,0,1
EndSplineSet
Position2: "'cpsp' Capital Spacing lookup 0 subtable" dx=10 dy=0 dh=20 dv=0
EndChar

StartChar: Etilde
Encoding: 7868 7868 59
Width: 1118
GlyphClass: 2
Flags: MW
HStem: 0 268<195 975 457 975 457 975> 600 268<457 918 457 918> 1165 268<457 973 457 457> 1550 176<718 746> 1606 176<443 475>
VStem: 141 315<268 600 868 1165>
AnchorPoint: "Anchor-1" 602 1796 basechar 0
AnchorPoint: "Anchor-0" 588 0 basechar 0
LayerCount: 2
Fore
SplineSet
274 1698 m 0,0,1
 380 1782 380 1782 468.5 1782 c 128,-1,2
 557 1782 557 1782 627.5 1754 c 128,-1,3
 698 1726 698 1726 746.5 1726 c 128,-1,4
 795 1726 795 1726 846 1757 c 128,-1,5
 897 1788 897 1788 938 1745 c 0,6,7
 977 1700 977 1700 922 1634 c 0,8,9
 838 1550 838 1550 705 1550 c 0,10,11
 635 1550 635 1550 569.5 1578 c 128,-1,12
 504 1606 504 1606 456 1606 c 128,-1,13
 408 1606 408 1606 357.5 1579 c 128,-1,14
 307 1552 307 1552 267 1601.5 c 128,-1,15
 227 1651 227 1651 274 1698 c 0,0,1
223 1434 m 2,16,-1
 973 1434 l 2,17,18
 1034 1434 1034 1434 1034 1331 c 2,19,-1
 1034 1268 l 2,20,21
 1034 1166 1034 1166 973 1165 c 2,22,-1
 457 1165 l 1,23,-1
 457 868 l 1,24,-1
 918 868 l 2,25,26
 979 868 979 868 979 766 c 2,27,-1
 979 702 l 2,28,29
 979 600 979 600 918 600 c 2,30,-1
 457 600 l 1,31,-1
 457 268 l 1,32,-1
 975 268 l 2,33,34
 1036 268 1036 268 1036 166 c 2,35,-1
 1036 102 l 2,36,37
 1036 0 1036 0 975 0 c 2,38,-1
 223 0 l 2,39,40
 141 0 141 0 141 82 c 2,41,-1
 141 1352 l 2,42,43
 141 1434 141 1434 223 1434 c 2,16,-1
EndSplineSet
Position2: "'cpsp' Capital Spacing lookup 0 subtable" dx=10 dy=0 dh=20 dv=0
EndChar

StartChar: F
Encoding: 70 70 60
Width: 1030
GlyphClass: 2
Flags: MW
HStem: 598 268<457 893 457 893> 1165 268<457 907 457 457>
VStem: 141 315<61 598 866 1165>
LayerCount: 2
Fore
SplineSet
223 1434 m 2,0,-1
 907 1434 l 2,1,2
 968 1434 968 1434 969 1331 c 2,3,-1
 969 1268 l 2,4,5
 969 1166 969 1166 907 1165 c 2,6,-1
 457 1165 l 1,7,-1
 457 866 l 1,8,-1
 893 866 l 2,9,10
 954 866 954 866 954 764 c 2,11,-1
 954 700 l 2,12,13
 954 598 954 598 893 598 c 2,14,-1
 457 598 l 1,15,-1
 457 61 l 2,16,17
 457 -5 457 -5 334 -4 c 2,18,-1
 264 -4 l 2,19,20
 141 -4 141 -4 141 61 c 2,21,-1
 141 1352 l 2,22,23
 141 1434 141 1434 223 1434 c 2,0,-1
EndSplineSet
Position2: "'cpsp' Capital Spacing lookup 0 subtable" dx=10 dy=0 dh=20 dv=0
EndChar

StartChar: G
Encoding: 71 71 61
Width: 1376
GlyphClass: 2
Flags: MW
HStem: -16 268<648 795 648 839> 526 270<724 1161 745 926> 1180 270<649 866 549 867>
VStem: 92 324<565 872 565 965> 926 317<266 526 526 526>
AnchorPoint: "Anchor-1" 717 1434 basechar 0
AnchorPoint: "Anchor-0" 727 0 basechar 0
LayerCount: 2
Fore
SplineSet
776 1450 m 0,0,1
 926 1450 926 1450 1070 1408 c 128,-1,2
 1214 1366 1214 1366 1214 1307 c 0,3,4
 1214 1262 1214 1262 1166 1188 c 128,-1,5
 1118 1114 1118 1114 1081 1114 c 0,6,7
 1075 1114 1075 1114 1037 1130 c 0,8,9
 923 1179 923 1179 770 1180 c 0,10,11
 416 1180 416 1180 416 716 c 128,-1,12
 416 252 416 252 766 252 c 0,13,14
 848 252 848 252 926 266 c 1,15,-1
 926 526 l 1,16,-1
 745 526 l 2,17,18
 684 526 684 526 684 629 c 2,19,-1
 684 694 l 2,20,21
 684 796 684 796 745 797 c 2,22,-1
 1161 797 l 2,23,24
 1243 797 1243 797 1243 715 c 2,25,-1
 1243 145 l 2,26,27
 1243 96 1243 96 1191 61.5 c 128,-1,28
 1139 27 1139 27 1057 11 c 0,29,30
 910 -17 910 -17 766 -16 c 0,31,32
 422 -16 422 -16 257 163 c 128,-1,33
 92 342 92 342 92 721 c 0,34,35
 92 1450 92 1450 776 1450 c 0,0,1
EndSplineSet
Position2: "'cpsp' Capital Spacing lookup 0 subtable" dx=10 dy=0 dh=20 dv=0
EndChar

StartChar: Gbreve
Encoding: 286 286 62
Width: 1376
GlyphClass: 2
Flags: MW
HStem: -16 268<648 795 648 839> 526 270<724 1161 745 926> 1180 270<649 866 549 867> 1540 186<665 772 665 806>
VStem: 92 324<565 872 565 965> 926 317<266 526 526 526>
AnchorPoint: "Anchor-1" 717 1767 basechar 0
AnchorPoint: "Anchor-0" 727 0 basechar 0
LayerCount: 2
Fore
SplineSet
946 1827 m 0,0,1
 1018 1827 1018 1827 1018 1769 c 0,2,3
 1018 1679 1018 1679 932 1609.5 c 128,-1,4
 846 1540 846 1540 717 1540 c 128,-1,5
 588 1540 588 1540 502 1609.5 c 128,-1,6
 416 1679 416 1679 416 1769 c 0,7,8
 416 1826 416 1826 487 1827 c 0,9,10
 522 1827 522 1827 547.5 1798 c 128,-1,11
 573 1769 573 1769 586 1759 c 0,12,13
 625 1726 625 1726 696.5 1726 c 128,-1,14
 768 1726 768 1726 805 1739.5 c 128,-1,15
 842 1753 842 1753 852 1762.5 c 128,-1,16
 862 1772 862 1772 886.5 1799.5 c 128,-1,17
 911 1827 911 1827 946 1827 c 0,0,1
776 1450 m 0,18,19
 926 1450 926 1450 1070 1408 c 128,-1,20
 1214 1366 1214 1366 1214 1307 c 0,21,22
 1214 1262 1214 1262 1166 1188 c 128,-1,23
 1118 1114 1118 1114 1081 1114 c 0,24,25
 1075 1114 1075 1114 1037 1130 c 0,26,27
 923 1179 923 1179 770 1180 c 0,28,29
 416 1180 416 1180 416 716 c 128,-1,30
 416 252 416 252 766 252 c 0,31,32
 848 252 848 252 926 266 c 1,33,-1
 926 526 l 1,34,-1
 745 526 l 2,35,36
 684 526 684 526 684 629 c 2,37,-1
 684 694 l 2,38,39
 684 796 684 796 745 797 c 2,40,-1
 1161 797 l 2,41,42
 1243 797 1243 797 1243 715 c 2,43,-1
 1243 145 l 2,44,45
 1243 96 1243 96 1191 61.5 c 128,-1,46
 1139 27 1139 27 1057 11 c 0,47,48
 910 -17 910 -17 766 -16 c 0,49,50
 422 -16 422 -16 257 163 c 128,-1,51
 92 342 92 342 92 721 c 0,52,53
 92 1450 92 1450 776 1450 c 0,18,19
EndSplineSet
Position2: "'cpsp' Capital Spacing lookup 0 subtable" dx=10 dy=0 dh=20 dv=0
EndChar

StartChar: Gcircumflex
Encoding: 284 284 63
Width: 1376
GlyphClass: 2
Flags: MW
HStem: -16 268<648 795 648 839> 526 270<724 1161 745 926> 1180 270<649 866 549 867> 1534 299<463 729 477 729 707 913 707 958>
VStem: 92 324<565 872 565 965> 926 317<266 526 526 526>
AnchorPoint: "Anchor-1" 1024 1624 basechar 0
AnchorPoint: "Anchor-0" 727 0 basechar 0
LayerCount: 2
Fore
SplineSet
707 1833 m 2,0,-1
 729 1833 l 2,1,2
 829 1833 829 1833 854 1794 c 2,3,-1
 987 1585 l 2,4,5
 999 1567 999 1567 999 1554 c 0,6,7
 999 1534 999 1534 958 1534 c 2,8,-1
 913 1534 l 2,9,10
 807 1534 807 1534 774 1583 c 2,11,-1
 717 1665 l 1,12,-1
 659 1585 l 2,13,14
 622 1534 622 1534 522 1534 c 2,15,-1
 477 1534 l 2,16,17
 436 1534 436 1534 436 1554 c 0,18,19
 436 1566 436 1566 449 1585 c 2,20,-1
 582 1794 l 2,21,22
 607 1833 607 1833 707 1833 c 2,0,-1
776 1450 m 0,23,24
 926 1450 926 1450 1070 1408 c 128,-1,25
 1214 1366 1214 1366 1214 1307 c 0,26,27
 1214 1262 1214 1262 1166 1188 c 128,-1,28
 1118 1114 1118 1114 1081 1114 c 0,29,30
 1075 1114 1075 1114 1037 1130 c 0,31,32
 923 1179 923 1179 770 1180 c 0,33,34
 416 1180 416 1180 416 716 c 128,-1,35
 416 252 416 252 766 252 c 0,36,37
 848 252 848 252 926 266 c 1,38,-1
 926 526 l 1,39,-1
 745 526 l 2,40,41
 684 526 684 526 684 629 c 2,42,-1
 684 694 l 2,43,44
 684 796 684 796 745 797 c 2,45,-1
 1161 797 l 2,46,47
 1243 797 1243 797 1243 715 c 2,48,-1
 1243 145 l 2,49,50
 1243 96 1243 96 1191 61.5 c 128,-1,51
 1139 27 1139 27 1057 11 c 0,52,53
 910 -17 910 -17 766 -16 c 0,54,55
 422 -16 422 -16 257 163 c 128,-1,56
 92 342 92 342 92 721 c 0,57,58
 92 1450 92 1450 776 1450 c 0,23,24
EndSplineSet
Position2: "'cpsp' Capital Spacing lookup 0 subtable" dx=10 dy=0 dh=20 dv=0
EndChar

StartChar: Gcommaaccent
Encoding: 290 290 64
Width: 1376
GlyphClass: 2
Flags: MW
HStem: -492 387<614 752> -16 268<648 795 648 839> 526 270<724 1161 745 926> 1180 270<649 866 549 867>
VStem: 92 324<565 872 565 965> 590 264<-263 -169 -263 -167> 926 317<266 526 526 526>
AnchorPoint: "Anchor-1" 717 1434 basechar 0
AnchorPoint: "Anchor-0" 727 -416 basechar 0
LayerCount: 2
Fore
SplineSet
776 1450 m 0,0,1
 926 1450 926 1450 1070 1408 c 128,-1,2
 1214 1366 1214 1366 1214 1307 c 0,3,4
 1214 1262 1214 1262 1166 1188 c 128,-1,5
 1118 1114 1118 1114 1081 1114 c 0,6,7
 1075 1114 1075 1114 1037 1130 c 0,8,9
 923 1179 923 1179 770 1180 c 0,10,11
 416 1180 416 1180 416 716 c 128,-1,12
 416 252 416 252 766 252 c 0,13,14
 848 252 848 252 926 266 c 1,15,-1
 926 526 l 1,16,-1
 745 526 l 2,17,18
 684 526 684 526 684 629 c 2,19,-1
 684 694 l 2,20,21
 684 796 684 796 745 797 c 2,22,-1
 1161 797 l 2,23,24
 1243 797 1243 797 1243 715 c 2,25,-1
 1243 145 l 2,26,27
 1243 96 1243 96 1191 61.5 c 128,-1,28
 1139 27 1139 27 1057 11 c 0,29,30
 910 -17 910 -17 766 -16 c 0,31,32
 422 -16 422 -16 257 163 c 128,-1,33
 92 342 92 342 92 721 c 0,34,35
 92 1450 92 1450 776 1450 c 0,0,1
713 -104 m 2,36,-1
 752 -104 l 2,37,38
 854 -104 854 -104 854 -195 c 0,39,40
 854 -291 854 -291 773 -391.5 c 128,-1,41
 692 -492 692 -492 633 -492 c 0,42,43
 600 -492 600 -492 570.5 -480.5 c 128,-1,44
 541 -469 541 -469 541 -446 c 0,45,46
 541 -444 541 -444 565.5 -368.5 c 128,-1,47
 590 -293 590 -293 590 -195 c 0,48,49
 590 -104 590 -104 713 -104 c 2,36,-1
EndSplineSet
Position2: "'cpsp' Capital Spacing lookup 0 subtable" dx=10 dy=0 dh=20 dv=0
EndChar

StartChar: Gdotaccent
Encoding: 288 288 65
Width: 1376
GlyphClass: 2
Flags: MW
HStem: -16 268<648 795 648 839> 526 270<724 1161 745 926> 1180 270<649 866 549 867> 1546 254<674 760>
VStem: 92 324<565 872 565 965> 594 246<1612 1735 1590 1756> 926 317<266 526 526 526>
AnchorPoint: "Anchor-1" 721 1796 basechar 0
AnchorPoint: "Anchor-0" 727 0 basechar 0
LayerCount: 2
Fore
SplineSet
717 1800 m 128,-1,1
 840 1800 840 1800 840 1735 c 2,2,-1
 840 1612 l 2,3,4
 840 1546 840 1546 717 1546 c 128,-1,5
 594 1546 594 1546 594 1612 c 2,6,-1
 594 1735 l 2,7,0
 594 1800 594 1800 717 1800 c 128,-1,1
776 1450 m 0,8,9
 926 1450 926 1450 1070 1408 c 128,-1,10
 1214 1366 1214 1366 1214 1307 c 0,11,12
 1214 1262 1214 1262 1166 1188 c 128,-1,13
 1118 1114 1118 1114 1081 1114 c 0,14,15
 1075 1114 1075 1114 1037 1130 c 0,16,17
 923 1179 923 1179 770 1180 c 0,18,19
 416 1180 416 1180 416 716 c 128,-1,20
 416 252 416 252 766 252 c 0,21,22
 848 252 848 252 926 266 c 1,23,-1
 926 526 l 1,24,-1
 745 526 l 2,25,26
 684 526 684 526 684 629 c 2,27,-1
 684 694 l 2,28,29
 684 796 684 796 745 797 c 2,30,-1
 1161 797 l 2,31,32
 1243 797 1243 797 1243 715 c 2,33,-1
 1243 145 l 2,34,35
 1243 96 1243 96 1191 61.5 c 128,-1,36
 1139 27 1139 27 1057 11 c 0,37,38
 910 -17 910 -17 766 -16 c 0,39,40
 422 -16 422 -16 257 163 c 128,-1,41
 92 342 92 342 92 721 c 0,42,43
 92 1450 92 1450 776 1450 c 0,8,9
EndSplineSet
Position2: "'cpsp' Capital Spacing lookup 0 subtable" dx=10 dy=0 dh=20 dv=0
EndChar

StartChar: H
Encoding: 72 72 66
Width: 1501
GlyphClass: 2
Flags: MW
HStem: 596 270<489 1042 489 1042> 1397 41G<295 367 367 410 1165 1237 1237 1280>
VStem: 172 317<61 596 866 1372> 1042 317<61 596 596 596 866 1372>
AnchorPoint: "Anchor-1" 752 1434 basechar 0
AnchorPoint: "Anchor-0" 780 0 basechar 0
LayerCount: 2
Fore
SplineSet
1165 1438 m 2,0,-1
 1237 1438 l 2,1,2
 1360 1438 1360 1438 1360 1372 c 2,3,-1
 1360 61 l 2,4,5
 1360 -5 1360 -5 1237 -4 c 2,6,-1
 1165 -4 l 2,7,8
 1042 -4 1042 -4 1042 61 c 2,9,-1
 1042 596 l 1,10,-1
 489 596 l 1,11,-1
 489 61 l 2,12,13
 489 -5 489 -5 367 -4 c 2,14,-1
 295 -4 l 2,15,16
 172 -4 172 -4 172 61 c 2,17,-1
 172 1372 l 2,18,19
 172 1438 172 1438 295 1438 c 2,20,-1
 367 1438 l 2,21,22
 490 1438 490 1438 489 1372 c 2,23,-1
 489 866 l 1,24,-1
 1042 866 l 1,25,-1
 1042 1372 l 2,26,27
 1042 1438 1042 1438 1165 1438 c 2,0,-1
EndSplineSet
Position2: "'cpsp' Capital Spacing lookup 0 subtable" dx=10 dy=0 dh=20 dv=0
EndChar

StartChar: Hbar
Encoding: 294 294 67
Width: 1501
GlyphClass: 2
Flags: MW
HStem: 596 270<489 1042 489 1042> 975 195<101 172 123 172 489 1042 1360 1382> 1397 41G<295 367 367 410 1165 1237 1237 1280>
VStem: 172 317<61 596 866 975 1169 1372> 1042 317<61 596 596 596 866 975 1169 1372>
AnchorPoint: "Anchor-1" 752 1434 basechar 0
AnchorPoint: "Anchor-0" 780 0 basechar 0
LayerCount: 2
Fore
SplineSet
1360 1169 m 1,0,-1
 1382 1169 l 2,1,2
 1443 1169 1443 1169 1444 1087 c 2,3,-1
 1444 1057 l 2,4,5
 1444 975 1444 975 1382 975 c 2,6,-1
 1360 975 l 1,7,-1
 1360 61 l 2,8,9
 1360 -5 1360 -5 1237 -4 c 2,10,-1
 1165 -4 l 2,11,12
 1042 -4 1042 -4 1042 61 c 2,13,-1
 1042 596 l 1,14,-1
 489 596 l 1,15,-1
 489 61 l 2,16,17
 489 -5 489 -5 367 -4 c 2,18,-1
 295 -4 l 2,19,20
 172 -4 172 -4 172 61 c 2,21,-1
 172 975 l 1,22,-1
 123 975 l 2,23,24
 62 975 62 975 61 1057 c 2,25,-1
 61 1087 l 2,26,27
 61 1169 61 1169 123 1169 c 2,28,-1
 172 1169 l 1,29,-1
 172 1372 l 2,30,31
 172 1438 172 1438 295 1438 c 2,32,-1
 367 1438 l 2,33,34
 490 1438 490 1438 489 1372 c 2,35,-1
 489 1169 l 1,36,-1
 1042 1169 l 1,37,-1
 1042 1372 l 2,38,39
 1042 1438 1042 1438 1165 1438 c 2,40,-1
 1237 1438 l 2,41,42
 1360 1438 1360 1438 1360 1372 c 2,43,-1
 1360 1169 l 1,0,-1
1042 975 m 1,44,-1
 489 975 l 1,45,-1
 489 866 l 1,46,-1
 1042 866 l 1,47,-1
 1042 975 l 1,44,-1
EndSplineSet
Position2: "'cpsp' Capital Spacing lookup 0 subtable" dx=10 dy=0 dh=20 dv=0
EndChar

StartChar: Hcircumflex
Encoding: 292 292 68
Width: 1501
GlyphClass: 2
Flags: MW
HStem: 596 270<489 1042 489 1042> 1397 41G<295 367 367 410 1165 1237 1237 1280> 1534 299<498 764 512 764 741 948 741 993>
VStem: 172 317<61 596 866 1372> 1042 317<61 596 596 596 866 1372>
AnchorPoint: "Anchor-1" 1059 1624 basechar 0
AnchorPoint: "Anchor-0" 780 0 basechar 0
LayerCount: 2
Fore
SplineSet
741 1833 m 2,0,-1
 764 1833 l 2,1,2
 864 1833 864 1833 889 1794 c 2,3,-1
 1022 1585 l 2,4,5
 1034 1567 1034 1567 1034 1554 c 0,6,7
 1034 1534 1034 1534 993 1534 c 2,8,-1
 948 1534 l 2,9,10
 842 1534 842 1534 809 1583 c 2,11,-1
 752 1665 l 1,12,-1
 694 1585 l 2,13,14
 657 1534 657 1534 557 1534 c 2,15,-1
 512 1534 l 2,16,17
 471 1534 471 1534 471 1554 c 0,18,19
 471 1566 471 1566 483 1585 c 2,20,-1
 616 1794 l 2,21,22
 641 1833 641 1833 741 1833 c 2,0,-1
1165 1438 m 2,23,-1
 1237 1438 l 2,24,25
 1360 1438 1360 1438 1360 1372 c 2,26,-1
 1360 61 l 2,27,28
 1360 -5 1360 -5 1237 -4 c 2,29,-1
 1165 -4 l 2,30,31
 1042 -4 1042 -4 1042 61 c 2,32,-1
 1042 596 l 1,33,-1
 489 596 l 1,34,-1
 489 61 l 2,35,36
 489 -5 489 -5 367 -4 c 2,37,-1
 295 -4 l 2,38,39
 172 -4 172 -4 172 61 c 2,40,-1
 172 1372 l 2,41,42
 172 1438 172 1438 295 1438 c 2,43,-1
 367 1438 l 2,44,45
 490 1438 490 1438 489 1372 c 2,46,-1
 489 866 l 1,47,-1
 1042 866 l 1,48,-1
 1042 1372 l 2,49,50
 1042 1438 1042 1438 1165 1438 c 2,23,-1
EndSplineSet
Position2: "'cpsp' Capital Spacing lookup 0 subtable" dx=10 dy=0 dh=20 dv=0
EndChar

StartChar: Hdotbelow
Encoding: 7716 7716 69
Width: 1501
GlyphClass: 2
Flags: MW
HStem: -418 254<741 827> 596 270<489 1042 489 1042> 1397 41G<295 367 367 410 1165 1237 1237 1280>
VStem: 172 317<61 596 866 1372> 662 246<-352 -229 -374 -208> 1042 317<61 596 596 596 866 1372>
AnchorPoint: "Anchor-1" 788 -168 basechar 0
AnchorPoint: "Anchor-0" 786 -416 basechar 0
LayerCount: 2
Fore
SplineSet
1165 1438 m 2,0,-1
 1237 1438 l 2,1,2
 1360 1438 1360 1438 1360 1372 c 2,3,-1
 1360 61 l 2,4,5
 1360 -5 1360 -5 1237 -4 c 2,6,-1
 1165 -4 l 2,7,8
 1042 -4 1042 -4 1042 61 c 2,9,-1
 1042 596 l 1,10,-1
 489 596 l 1,11,-1
 489 61 l 2,12,13
 489 -5 489 -5 367 -4 c 2,14,-1
 295 -4 l 2,15,16
 172 -4 172 -4 172 61 c 2,17,-1
 172 1372 l 2,18,19
 172 1438 172 1438 295 1438 c 2,20,-1
 367 1438 l 2,21,22
 490 1438 490 1438 489 1372 c 2,23,-1
 489 866 l 1,24,-1
 1042 866 l 1,25,-1
 1042 1372 l 2,26,27
 1042 1438 1042 1438 1165 1438 c 2,0,-1
784.5 -164 m 128,-1,29
 907 -164 907 -164 907 -229 c 2,30,-1
 907 -352 l 2,31,32
 907 -418 907 -418 784.5 -418 c 128,-1,33
 662 -418 662 -418 662 -352 c 2,34,-1
 662 -229 l 2,35,28
 662 -164 662 -164 784.5 -164 c 128,-1,29
EndSplineSet
Position2: "'cpsp' Capital Spacing lookup 0 subtable" dx=10 dy=0 dh=20 dv=0
EndChar

StartChar: I
Encoding: 73 73 70
Width: 577
GlyphClass: 2
Flags: MW
HStem: 1399 41G<252 324 324 367>
VStem: 129 317<61 1372>
AnchorPoint: "Anchor-1" 289 1434 basechar 0
AnchorPoint: "Anchor-0" 289 0 basechar 0
LayerCount: 2
Fore
SplineSet
252 1440 m 2,0,-1
 324 1440 l 2,1,2
 447 1440 447 1440 446 1372 c 2,3,-1
 446 61 l 2,4,5
 446 -7 446 -7 324 -6 c 2,6,-1
 252 -6 l 2,7,8
 129 -6 129 -6 129 61 c 2,9,-1
 129 1372 l 2,10,11
 129 1440 129 1440 252 1440 c 2,0,-1
EndSplineSet
Position2: "'cpsp' Capital Spacing lookup 0 subtable" dx=10 dy=0 dh=20 dv=0
EndChar

StartChar: IJ
Encoding: 306 306 71
Width: 1400
GlyphClass: 2
Flags: MW
HStem: -16 268<807 838 743 984> 1399 41G<252 324 324 367 1071 1143 1143 1186>
VStem: 129 317<61 1372> 948 317<465 1372>
AnchorPoint: "Anchor-1" 1112 1434 basechar 0
AnchorPoint: "Anchor-0" 289 0 basechar 0
LayerCount: 2
Fore
SplineSet
252 1440 m 2,0,-1
 324 1440 l 2,1,2
 447 1440 447 1440 446 1372 c 2,3,-1
 446 61 l 2,4,5
 446 -7 446 -7 324 -6 c 2,6,-1
 252 -6 l 2,7,8
 129 -6 129 -6 129 61 c 2,9,-1
 129 1372 l 2,10,11
 129 1440 129 1440 252 1440 c 2,0,-1
1071 1440 m 2,12,-1
 1143 1440 l 2,13,14
 1266 1440 1266 1440 1266 1372 c 2,15,-1
 1266 414 l 2,16,17
 1266 211 1266 211 1159.5 97.5 c 128,-1,18
 1053 -16 1053 -16 831 -16 c 0,19,20
 771 -16 771 -16 705 -5 c 0,21,22
 577 17 577 17 578 78 c 0,23,24
 578 125 578 125 599.5 194.5 c 128,-1,25
 621 264 621 264 662 268 c 0,26,27
 666 268 666 268 701.5 260 c 128,-1,28
 737 252 737 252 776 252 c 0,29,30
 868 252 868 252 908 302 c 128,-1,31
 948 352 948 352 948 465 c 2,32,-1
 948 1372 l 2,33,34
 948 1440 948 1440 1071 1440 c 2,12,-1
EndSplineSet
Position2: "'cpsp' Capital Spacing lookup 0 subtable" dx=10 dy=0 dh=20 dv=0
EndChar

StartChar: Iacute
Encoding: 205 205 72
Width: 577
GlyphClass: 2
Flags: MW
HStem: 1399 41G<252 324 324 367> 1540 326<184 494>
VStem: 129 317<61 1372>
AnchorPoint: "Anchor-1" 301 1796 basechar 0
AnchorPoint: "Anchor-0" 289 0 basechar 0
LayerCount: 2
Fore
SplineSet
279 1810 m 0,0,1
 310 1865 310 1865 442.5 1865.5 c 128,-1,2
 575 1866 575 1866 575 1837 c 0,3,4
 575 1825 575 1825 563 1808.5 c 128,-1,5
 551 1792 551 1792 514 1754 c 128,-1,6
 477 1716 477 1716 463 1701 c 128,-1,7
 449 1686 449 1686 420 1654 c 128,-1,8
 391 1622 391 1622 362 1591 c 0,9,10
 315 1540 315 1540 209 1540 c 0,11,12
 146 1540 146 1540 145 1571 c 0,13,14
 145 1593 145 1593 175 1637 c 128,-1,15
 205 1681 205 1681 229.5 1724 c 128,-1,16
 254 1767 254 1767 279 1810 c 0,0,1
252 1440 m 2,17,-1
 324 1440 l 2,18,19
 447 1440 447 1440 446 1372 c 2,20,-1
 446 61 l 2,21,22
 446 -7 446 -7 324 -6 c 2,23,-1
 252 -6 l 2,24,25
 129 -6 129 -6 129 61 c 2,26,-1
 129 1372 l 2,27,28
 129 1440 129 1440 252 1440 c 2,17,-1
EndSplineSet
Position2: "'cpsp' Capital Spacing lookup 0 subtable" dx=10 dy=0 dh=20 dv=0
EndChar

StartChar: Ibreve
Encoding: 300 300 73
Width: 577
GlyphClass: 2
Flags: MW
HStem: 1399 41G<252 324 324 367> 1540 186<237 344 237 378>
VStem: 129 317<61 1372>
AnchorPoint: "Anchor-1" 289 1767 basechar 0
AnchorPoint: "Anchor-0" 289 0 basechar 0
LayerCount: 2
Fore
SplineSet
518 1827 m 0,0,1
 590 1827 590 1827 590 1769 c 0,2,3
 590 1679 590 1679 504 1609.5 c 128,-1,4
 418 1540 418 1540 289 1540 c 128,-1,5
 160 1540 160 1540 74 1609.5 c 128,-1,6
 -12 1679 -12 1679 -12 1769 c 0,7,8
 -12 1826 -12 1826 59 1827 c 0,9,10
 94 1827 94 1827 119.5 1798 c 128,-1,11
 145 1769 145 1769 158 1759 c 0,12,13
 197 1726 197 1726 268.5 1726 c 128,-1,14
 340 1726 340 1726 377 1739.5 c 128,-1,15
 414 1753 414 1753 424 1762.5 c 128,-1,16
 434 1772 434 1772 458.5 1799.5 c 128,-1,17
 483 1827 483 1827 518 1827 c 0,0,1
252 1440 m 2,18,-1
 324 1440 l 2,19,20
 447 1440 447 1440 446 1372 c 2,21,-1
 446 61 l 2,22,23
 446 -7 446 -7 324 -6 c 2,24,-1
 252 -6 l 2,25,26
 129 -6 129 -6 129 61 c 2,27,-1
 129 1372 l 2,28,29
 129 1440 129 1440 252 1440 c 2,18,-1
EndSplineSet
Position2: "'cpsp' Capital Spacing lookup 0 subtable" dx=10 dy=0 dh=20 dv=0
EndChar

StartChar: Icircumflex
Encoding: 206 206 74
Width: 577
GlyphClass: 2
Flags: MW
HStem: 1399 41G<252 324 324 367> 1534 299<33 299 47 299 276 483 276 528>
VStem: 129 317<61 1372>
AnchorPoint: "Anchor-1" 594 1624 basechar 0
AnchorPoint: "Anchor-0" 289 0 basechar 0
LayerCount: 2
Fore
SplineSet
276 1833 m 2,0,-1
 299 1833 l 2,1,2
 399 1833 399 1833 424 1794 c 2,3,-1
 557 1585 l 2,4,5
 569 1567 569 1567 569 1554 c 0,6,7
 569 1534 569 1534 528 1534 c 2,8,-1
 483 1534 l 2,9,10
 377 1534 377 1534 344 1583 c 2,11,-1
 287 1665 l 1,12,-1
 229 1585 l 2,13,14
 192 1534 192 1534 92 1534 c 2,15,-1
 47 1534 l 2,16,17
 6 1534 6 1534 6 1554 c 0,18,19
 6 1566 6 1566 18 1585 c 2,20,-1
 152 1794 l 2,21,22
 176 1833 176 1833 276 1833 c 2,0,-1
252 1440 m 2,23,-1
 324 1440 l 2,24,25
 447 1440 447 1440 446 1372 c 2,26,-1
 446 61 l 2,27,28
 446 -7 446 -7 324 -6 c 2,29,-1
 252 -6 l 2,30,31
 129 -6 129 -6 129 61 c 2,32,-1
 129 1372 l 2,33,34
 129 1440 129 1440 252 1440 c 2,23,-1
EndSplineSet
Position2: "'cpsp' Capital Spacing lookup 0 subtable" dx=10 dy=0 dh=20 dv=0
EndChar

StartChar: Idieresis
Encoding: 207 207 75
Width: 577
GlyphClass: 2
Flags: MW
HStem: 1399 41G<252 324 324 367> 1546 254<61 147 430 516>
VStem: -18 246<1612 1735 1590 1756> 129 317<61 1372> 350 246<1612 1735 1590 1756>
AnchorPoint: "Anchor-1" 301 1796 basechar 0
AnchorPoint: "Anchor-0" 289 0 basechar 0
LayerCount: 2
Fore
SplineSet
104.5 1800 m 128,-1,1
 227 1800 227 1800 227 1735 c 2,2,-1
 227 1612 l 2,3,4
 227 1546 227 1546 104.5 1546 c 128,-1,5
 -18 1546 -18 1546 -18 1612 c 2,6,-1
 -18 1735 l 2,7,0
 -18 1800 -18 1800 104.5 1800 c 128,-1,1
473 1800 m 128,-1,9
 596 1800 596 1800 596 1735 c 2,10,-1
 596 1612 l 2,11,12
 596 1546 596 1546 473 1546 c 128,-1,13
 350 1546 350 1546 350 1612 c 2,14,-1
 350 1735 l 2,15,8
 350 1800 350 1800 473 1800 c 128,-1,9
252 1440 m 2,16,-1
 324 1440 l 2,17,18
 447 1440 447 1440 446 1372 c 2,19,-1
 446 61 l 2,20,21
 446 -7 446 -7 324 -6 c 2,22,-1
 252 -6 l 2,23,24
 129 -6 129 -6 129 61 c 2,25,-1
 129 1372 l 2,26,27
 129 1440 129 1440 252 1440 c 2,16,-1
EndSplineSet
Position2: "'cpsp' Capital Spacing lookup 0 subtable" dx=10 dy=0 dh=20 dv=0
EndChar

StartChar: Idotaccent
Encoding: 304 304 76
Width: 577
GlyphClass: 2
Flags: MW
HStem: 1399 41G<252 324 324 367> 1546 254<246 332>
VStem: 129 317<61 1372> 166 246<1612 1735 1590 1756>
AnchorPoint: "Anchor-1" 293 1796 basechar 0
AnchorPoint: "Anchor-0" 289 0 basechar 0
LayerCount: 2
Fore
SplineSet
289 1800 m 128,-1,1
 412 1800 412 1800 412 1735 c 2,2,-1
 412 1612 l 2,3,4
 412 1546 412 1546 289 1546 c 128,-1,5
 166 1546 166 1546 166 1612 c 2,6,-1
 166 1735 l 2,7,0
 166 1800 166 1800 289 1800 c 128,-1,1
252 1440 m 2,8,-1
 324 1440 l 2,9,10
 447 1440 447 1440 446 1372 c 2,11,-1
 446 61 l 2,12,13
 446 -7 446 -7 324 -6 c 2,14,-1
 252 -6 l 2,15,16
 129 -6 129 -6 129 61 c 2,17,-1
 129 1372 l 2,18,19
 129 1440 129 1440 252 1440 c 2,8,-1
EndSplineSet
Position2: "'cpsp' Capital Spacing lookup 0 subtable" dx=10 dy=0 dh=20 dv=0
EndChar

StartChar: Idotbelow
Encoding: 7882 7882 77
Width: 577
GlyphClass: 2
Flags: MW
HStem: -418 254<250 336> 1399 41G<252 324 324 367>
VStem: 129 317<61 1372> 170 246<-352 -229 -374 -208>
AnchorPoint: "Anchor-1" 297 -168 basechar 0
AnchorPoint: "Anchor-0" 295 -416 basechar 0
LayerCount: 2
Fore
SplineSet
252 1440 m 2,0,-1
 324 1440 l 2,1,2
 447 1440 447 1440 446 1372 c 2,3,-1
 446 61 l 2,4,5
 446 -7 446 -7 324 -6 c 2,6,-1
 252 -6 l 2,7,8
 129 -6 129 -6 129 61 c 2,9,-1
 129 1372 l 2,10,11
 129 1440 129 1440 252 1440 c 2,0,-1
293 -164 m 128,-1,13
 416 -164 416 -164 416 -229 c 2,14,-1
 416 -352 l 2,15,16
 416 -418 416 -418 293 -418 c 128,-1,17
 170 -418 170 -418 170 -352 c 2,18,-1
 170 -229 l 2,19,12
 170 -164 170 -164 293 -164 c 128,-1,13
EndSplineSet
Position2: "'cpsp' Capital Spacing lookup 0 subtable" dx=10 dy=0 dh=20 dv=0
EndChar

StartChar: Igrave
Encoding: 204 204 78
Width: 577
GlyphClass: 2
Flags: MW
HStem: 1399 41G<252 324 324 367> 1540 326<96 406>
VStem: 129 317<61 1372>
AnchorPoint: "Anchor-1" 283 1796 basechar 0
AnchorPoint: "Anchor-0" 289 0 basechar 0
LayerCount: 2
Fore
SplineSet
14 1837 m 0,0,1
 14 1866 14 1866 147.5 1866 c 128,-1,2
 281 1866 281 1866 311 1810 c 0,3,4
 336 1767 336 1767 360.5 1724 c 128,-1,5
 385 1681 385 1681 399.5 1659.5 c 128,-1,6
 414 1638 414 1638 425 1618 c 0,7,8
 444 1583 444 1583 444 1571 c 0,9,10
 444 1540 444 1540 381 1540 c 0,11,12
 275 1540 275 1540 220.5 1599.5 c 128,-1,13
 166 1659 166 1659 101.5 1727.5 c 128,-1,14
 37 1796 37 1796 25.5 1810.5 c 128,-1,15
 14 1825 14 1825 14 1837 c 0,0,1
252 1440 m 2,16,-1
 324 1440 l 2,17,18
 447 1440 447 1440 446 1372 c 2,19,-1
 446 61 l 2,20,21
 446 -7 446 -7 324 -6 c 2,22,-1
 252 -6 l 2,23,24
 129 -6 129 -6 129 61 c 2,25,-1
 129 1372 l 2,26,27
 129 1440 129 1440 252 1440 c 2,16,-1
EndSplineSet
Position2: "'cpsp' Capital Spacing lookup 0 subtable" dx=10 dy=0 dh=20 dv=0
EndChar

StartChar: Ihookabove
Encoding: 7880 7880 79
Width: 577
GlyphClass: 2
Flags: MW
HStem: 1399 41G<252 324 324 367> 1776 125<280 315>
VStem: 129 317<61 1372> 365 178<1700 1745>
AnchorPoint: "Anchor-1" 291 1796 basechar 0
AnchorPoint: "Anchor-0" 289 0 basechar 0
LayerCount: 2
Fore
SplineSet
296 1643.5 m 128,-1,1
 365 1696 365 1696 365 1723.5 c 128,-1,2
 365 1751 365 1751 345.5 1763.5 c 128,-1,3
 326 1776 326 1776 299 1776 c 128,-1,4
 272 1776 272 1776 245.5 1763.5 c 128,-1,5
 219 1751 219 1751 210 1751 c 128,-1,6
 201 1751 201 1751 176.5 1783 c 128,-1,7
 152 1815 152 1815 152 1836.5 c 128,-1,8
 152 1858 152 1858 207 1879.5 c 128,-1,9
 262 1901 262 1901 315 1901 c 0,10,11
 424 1901 424 1901 483.5 1858 c 128,-1,12
 543 1815 543 1815 543 1741 c 128,-1,13
 543 1667 543 1667 460 1598.5 c 128,-1,14
 377 1530 377 1530 340 1530 c 128,-1,15
 303 1530 303 1530 265 1547.5 c 128,-1,16
 227 1565 227 1565 227 1578 c 128,-1,0
 227 1591 227 1591 296 1643.5 c 128,-1,1
252 1440 m 2,17,-1
 324 1440 l 2,18,19
 447 1440 447 1440 446 1372 c 2,20,-1
 446 61 l 2,21,22
 446 -7 446 -7 324 -6 c 2,23,-1
 252 -6 l 2,24,25
 129 -6 129 -6 129 61 c 2,26,-1
 129 1372 l 2,27,28
 129 1440 129 1440 252 1440 c 2,17,-1
EndSplineSet
Position2: "'cpsp' Capital Spacing lookup 0 subtable" dx=10 dy=0 dh=20 dv=0
EndChar

StartChar: Imacron
Encoding: 298 298 80
Width: 577
GlyphClass: 2
Flags: MW
HStem: 1399 41G<252 324 324 367> 1585 195<46 508 68 508>
VStem: 129 317<61 1372>
AnchorPoint: "Anchor-1" 285 1796 basechar 0
AnchorPoint: "Anchor-0" 289 0 basechar 0
LayerCount: 2
Fore
SplineSet
68 1780 m 2,0,-1
 508 1780 l 2,1,2
 569 1780 569 1780 569 1698 c 2,3,-1
 569 1667 l 2,4,5
 569 1585 569 1585 508 1585 c 2,6,-1
 68 1585 l 2,7,8
 7 1585 7 1585 6 1667 c 2,9,-1
 6 1698 l 2,10,11
 7 1780 7 1780 68 1780 c 2,0,-1
252 1440 m 2,12,-1
 324 1440 l 2,13,14
 447 1440 447 1440 446 1372 c 2,15,-1
 446 61 l 2,16,17
 446 -7 446 -7 324 -6 c 2,18,-1
 252 -6 l 2,19,20
 129 -6 129 -6 129 61 c 2,21,-1
 129 1372 l 2,22,23
 129 1440 129 1440 252 1440 c 2,12,-1
EndSplineSet
Position2: "'cpsp' Capital Spacing lookup 0 subtable" dx=10 dy=0 dh=20 dv=0
EndChar

StartChar: Iogonek
Encoding: 302 302 81
Width: 577
GlyphClass: 2
Flags: MW
HStem: -375 143<454 494> 1399 41G<252 324 324 367>
VStem: 129 317<61 1372>
AnchorPoint: "Anchor-1" 289 1434 basechar 0
AnchorPoint: "Anchor-0" 238 -416 basechar 0
LayerCount: 2
Fore
SplineSet
578 -215 m 0,0,1
 623 -215 623 -215 623 -272 c 0,2,3
 623 -374 623 -374 455 -375 c 0,4,5
 379 -375 379 -375 325.5 -351.5 c 128,-1,6
 272 -328 272 -328 251 -291 c 0,7,8
 213 -226 213 -226 213 -144.5 c 128,-1,9
 213 -63 213 -63 258 -6 c 1,10,-1
 252 -6 l 2,11,12
 129 -6 129 -6 129 61 c 2,13,-1
 129 1372 l 2,14,15
 129 1440 129 1440 252 1440 c 2,16,-1
 324 1440 l 2,17,18
 447 1440 447 1440 446 1372 c 2,19,-1
 446 61 l 2,20,21
 446 10 446 10 373 -2 c 1,22,-1
 373 -10 l 2,23,24
 373 -22 373 -22 361.5 -58 c 128,-1,25
 350 -94 350 -94 350 -127 c 0,26,27
 350 -231 350 -231 477 -231 c 0,28,29
 504 -231 504 -231 533 -223 c 128,-1,30
 562 -215 562 -215 578 -215 c 0,0,1
EndSplineSet
Position2: "'cpsp' Capital Spacing lookup 0 subtable" dx=10 dy=0 dh=20 dv=0
EndChar

StartChar: Itilde
Encoding: 296 296 82
Width: 577
GlyphClass: 2
Flags: MW
HStem: 1399 41G<252 324 324 367> 1550 176<390 417> 1606 176<143 172>
VStem: 129 317<61 1372>
AnchorPoint: "Anchor-1" 287 1796 basechar 0
AnchorPoint: "Anchor-0" 289 0 basechar 0
LayerCount: 2
Fore
SplineSet
508 1757 m 0,0,1
 551 1790 551 1790 587 1745 c 0,2,3
 623 1700 623 1700 573 1634 c 1,4,5
 495 1550 495 1550 379 1550 c 0,6,7
 316 1550 316 1550 256 1578 c 0,8,9
 197 1606 197 1606 155 1606 c 0,10,11
 113 1606 113 1606 67 1579 c 0,12,13
 21 1552 21 1552 -15 1602 c 0,14,15
 -51 1651 -51 1651 -8 1698 c 0,16,17
 86 1782 86 1782 167 1782 c 0,18,19
 248 1782 248 1782 310 1754 c 0,20,21
 372 1726 372 1726 417 1726 c 0,22,23
 461 1726 461 1726 508 1757 c 0,0,1
252 1440 m 2,24,-1
 324 1440 l 2,25,26
 447 1440 447 1440 446 1372 c 2,27,-1
 446 61 l 2,28,29
 446 -7 446 -7 324 -6 c 2,30,-1
 252 -6 l 2,31,32
 129 -6 129 -6 129 61 c 2,33,-1
 129 1372 l 2,34,35
 129 1440 129 1440 252 1440 c 2,24,-1
EndSplineSet
Position2: "'cpsp' Capital Spacing lookup 0 subtable" dx=10 dy=0 dh=20 dv=0
EndChar

StartChar: J
Encoding: 74 74 83
Width: 823
GlyphClass: 2
Flags: MW
HStem: -16 268<229 260 166 407> 1399 41G<494 565 565 608>
VStem: 371 317<465 1372>
AnchorPoint: "Anchor-1" 535 1434 basechar 0
AnchorPoint: "Anchor-0" 0 0 basechar 0
LayerCount: 2
Fore
SplineSet
494 1440 m 2,0,-1
 565 1440 l 2,1,2
 688 1440 688 1440 688 1372 c 2,3,-1
 688 414 l 2,4,5
 688 211 688 211 581.5 97.5 c 128,-1,6
 475 -16 475 -16 254 -16 c 0,7,8
 194 -16 194 -16 128 -5 c 0,9,10
 0 17 0 17 0 78 c 0,11,12
 0 125 0 125 21.5 194.5 c 128,-1,13
 43 264 43 264 84 268 c 0,14,15
 88 268 88 268 124 260 c 128,-1,16
 160 252 160 252 199 252 c 0,17,18
 291 252 291 252 331 302 c 128,-1,19
 371 352 371 352 371 465 c 2,20,-1
 371 1372 l 2,21,22
 371 1440 371 1440 494 1440 c 2,0,-1
EndSplineSet
Position2: "'cpsp' Capital Spacing lookup 0 subtable" dx=10 dy=0 dh=20 dv=0
EndChar

StartChar: Jcircumflex
Encoding: 308 308 84
Width: 823
GlyphClass: 2
Flags: MW
HStem: -16 268<229 260 166 407> 1399 41G<494 565 565 608> 1534 299<281 547 295 547 524 731 524 776>
VStem: 371 317<465 1372>
AnchorPoint: "Anchor-1" 842 1624 basechar 0
AnchorPoint: "Anchor-0" 0 0 basechar 0
LayerCount: 2
Fore
SplineSet
524 1833 m 2,0,-1
 547 1833 l 2,1,2
 647 1833 647 1833 672 1794 c 2,3,-1
 805 1585 l 2,4,5
 817 1567 817 1567 817 1554 c 0,6,7
 817 1534 817 1534 776 1534 c 2,8,-1
 731 1534 l 2,9,10
 625 1534 625 1534 592 1583 c 2,11,-1
 535 1665 l 1,12,-1
 477 1585 l 2,13,14
 440 1534 440 1534 340 1534 c 2,15,-1
 295 1534 l 2,16,17
 254 1534 254 1534 254 1554 c 0,18,19
 254 1566 254 1566 266 1585 c 2,20,-1
 399 1794 l 2,21,22
 424 1833 424 1833 524 1833 c 2,0,-1
494 1440 m 2,23,-1
 565 1440 l 2,24,25
 688 1440 688 1440 688 1372 c 2,26,-1
 688 414 l 2,27,28
 688 211 688 211 581.5 97.5 c 128,-1,29
 475 -16 475 -16 254 -16 c 0,30,31
 194 -16 194 -16 128 -5 c 0,32,33
 0 17 0 17 0 78 c 0,34,35
 0 125 0 125 21.5 194.5 c 128,-1,36
 43 264 43 264 84 268 c 0,37,38
 88 268 88 268 124 260 c 128,-1,39
 160 252 160 252 199 252 c 0,40,41
 291 252 291 252 331 302 c 128,-1,42
 371 352 371 352 371 465 c 2,43,-1
 371 1372 l 2,44,45
 371 1440 371 1440 494 1440 c 2,23,-1
EndSplineSet
Position2: "'cpsp' Capital Spacing lookup 0 subtable" dx=10 dy=0 dh=20 dv=0
EndChar

StartChar: K
Encoding: 75 75 85
Width: 1179
GlyphClass: 2
Flags: MW
HStem: 1397 41G<264 336 336 379 946 1042 1042 1082>
VStem: 141 317<61 655 823 1372>
AnchorPoint: "Anchor-1" 631 1434 basechar 0
AnchorPoint: "Anchor-0" 610 0 basechar 0
LayerCount: 2
Fore
SplineSet
946 1438 m 2,0,-1
 1042 1438 l 2,1,2
 1157 1438 1157 1438 1157 1407 c 0,3,4
 1157 1389 1157 1389 1141 1364 c 2,5,-1
 745 758 l 1,6,-1
 1194 70 l 2,7,8
 1210 45 1210 45 1210 27 c 0,9,10
 1210 -4 1210 -4 1096 -4 c 2,11,-1
 977 -4 l 2,12,13
 875 -4 875 -4 852 35 c 2,14,-1
 467 657 l 1,15,-1
 459 655 l 1,16,-1
 459 61 l 2,17,18
 459 -5 459 -5 336 -4 c 2,19,-1
 264 -4 l 2,20,21
 141 -4 141 -4 141 61 c 2,22,-1
 141 1372 l 2,23,24
 141 1438 141 1438 264 1438 c 2,25,-1
 336 1438 l 2,26,27
 459 1438 459 1438 459 1372 c 2,28,-1
 459 823 l 1,29,-1
 467 821 l 1,30,-1
 823 1399 l 2,31,32
 846 1438 846 1438 946 1438 c 2,0,-1
EndSplineSet
Position2: "'cpsp' Capital Spacing lookup 0 subtable" dx=10 dy=0 dh=20 dv=0
EndChar

StartChar: Kcommaaccent
Encoding: 310 310 86
Width: 1179
GlyphClass: 2
Flags: MW
HStem: -492 387<498 635> 1397 41G<264 336 336 379 946 1042 1042 1082>
VStem: 141 317<61 655 823 1372> 473 264<-263 -169 -263 -167>
AnchorPoint: "Anchor-1" 631 1434 basechar 0
AnchorPoint: "Anchor-0" 610 -416 basechar 0
LayerCount: 2
Fore
SplineSet
946 1438 m 2,0,-1
 1042 1438 l 2,1,2
 1157 1438 1157 1438 1157 1407 c 0,3,4
 1157 1389 1157 1389 1141 1364 c 2,5,-1
 745 758 l 1,6,-1
 1194 70 l 2,7,8
 1210 45 1210 45 1210 27 c 0,9,10
 1210 -4 1210 -4 1096 -4 c 2,11,-1
 977 -4 l 2,12,13
 875 -4 875 -4 852 35 c 2,14,-1
 467 657 l 1,15,-1
 459 655 l 1,16,-1
 459 61 l 2,17,18
 459 -5 459 -5 336 -4 c 2,19,-1
 264 -4 l 2,20,21
 141 -4 141 -4 141 61 c 2,22,-1
 141 1372 l 2,23,24
 141 1438 141 1438 264 1438 c 2,25,-1
 336 1438 l 2,26,27
 459 1438 459 1438 459 1372 c 2,28,-1
 459 823 l 1,29,-1
 467 821 l 1,30,-1
 823 1399 l 2,31,32
 846 1438 846 1438 946 1438 c 2,0,-1
596 -104 m 2,33,-1
 635 -104 l 2,34,35
 737 -104 737 -104 737 -195 c 0,36,37
 737 -291 737 -291 656 -391.5 c 128,-1,38
 575 -492 575 -492 516 -492 c 0,39,40
 483 -492 483 -492 453.5 -480.5 c 128,-1,41
 424 -469 424 -469 424 -446 c 0,42,43
 424 -444 424 -444 448.5 -368.5 c 128,-1,44
 473 -293 473 -293 473 -195 c 0,45,46
 473 -104 473 -104 596 -104 c 2,33,-1
EndSplineSet
Position2: "'cpsp' Capital Spacing lookup 0 subtable" dx=10 dy=0 dh=20 dv=0
EndChar

StartChar: L
Encoding: 76 76 87
Width: 991
GlyphClass: 2
Flags: MW
HStem: 0 268<195 913 457 913 457 913> 1397 41G<264 334 334 377>
VStem: 141 315<268 1372 268 1372 268 1394>
AnchorPoint: "Anchor-1" 307 1434 basechar 0
AnchorPoint: "Anchor-0" 496 0 basechar 0
LayerCount: 2
Fore
SplineSet
264 1438 m 2,0,-1
 334 1438 l 2,1,2
 457 1438 457 1438 457 1372 c 2,3,-1
 457 268 l 1,4,-1
 913 268 l 2,5,6
 974 268 974 268 975 166 c 2,7,-1
 975 102 l 2,8,9
 975 0 975 0 913 0 c 2,10,-1
 223 0 l 2,11,12
 141 0 141 0 141 82 c 2,13,-1
 141 1372 l 2,14,15
 141 1438 141 1438 264 1438 c 2,0,-1
EndSplineSet
Position2: "'cpsp' Capital Spacing lookup 0 subtable" dx=10 dy=0 dh=20 dv=0
EndChar

StartChar: LJ
Encoding: 455 455 88
Width: 1470
GlyphClass: 2
Flags: MW
HStem: -371 268<893 924 829 1070> 0 268<195 770 457 770 457 770> 1397 41G<264 334 334 377> 1399 41G<1157 1229 1229 1272>
VStem: 141 315<268 1372 268 1372 268 1394> 1034 317<111 1372>
LayerCount: 2
Fore
SplineSet
1157 1440 m 2,0,-1
 1229 1440 l 2,1,2
 1352 1440 1352 1440 1352 1372 c 2,3,-1
 1352 86 l 2,4,5
 1352 -121 1352 -121 1244.5 -246 c 128,-1,6
 1137 -371 1137 -371 918 -371 c 0,7,8
 858 -371 858 -371 791 -359 c 0,9,10
 663 -337 663 -337 664 -276 c 0,11,12
 664 -229 664 -229 685.5 -159.5 c 128,-1,13
 707 -90 707 -90 748 -86 c 0,14,15
 752 -86 752 -86 787.5 -94 c 128,-1,16
 823 -102 823 -102 862 -102 c 0,17,18
 954 -102 954 -102 994 -52 c 128,-1,19
 1034 -2 1034 -2 1034 111 c 2,20,-1
 1034 1372 l 2,21,22
 1034 1440 1034 1440 1157 1440 c 2,0,-1
264 1438 m 2,23,-1
 334 1438 l 2,24,25
 457 1438 457 1438 457 1372 c 2,26,-1
 457 268 l 1,27,-1
 770 268 l 2,28,29
 831 268 831 268 831 166 c 2,30,-1
 831 102 l 2,31,32
 831 0 831 0 770 0 c 2,33,-1
 223 0 l 2,34,35
 141 0 141 0 141 82 c 2,36,-1
 141 1372 l 2,37,38
 141 1438 141 1438 264 1438 c 2,23,-1
EndSplineSet
Position2: "'cpsp' Capital Spacing lookup 0 subtable" dx=10 dy=0 dh=20 dv=0
EndChar

StartChar: Lacute
Encoding: 313 313 89
Width: 991
GlyphClass: 2
Flags: MW
HStem: 0 268<195 913 457 913 457 913> 1397 41G<264 334 334 377> 1540 326<203 512>
VStem: 141 315<268 1372 268 1372 268 1394>
AnchorPoint: "Anchor-1" 319 1796 basechar 0
AnchorPoint: "Anchor-0" 496 0 basechar 0
LayerCount: 2
Fore
SplineSet
297 1810 m 0,0,1
 328 1865 328 1865 461 1865.5 c 128,-1,2
 594 1866 594 1866 594 1837 c 0,3,4
 594 1825 594 1825 581.5 1808.5 c 128,-1,5
 569 1792 569 1792 532.5 1754 c 128,-1,6
 496 1716 496 1716 481.5 1701 c 128,-1,7
 467 1686 467 1686 438.5 1654 c 128,-1,8
 410 1622 410 1622 381 1591 c 0,9,10
 334 1540 334 1540 227 1540 c 0,11,12
 164 1540 164 1540 164 1571 c 0,13,14
 164 1593 164 1593 193.5 1637 c 128,-1,15
 223 1681 223 1681 247.5 1724 c 128,-1,16
 272 1767 272 1767 297 1810 c 0,0,1
264 1438 m 2,17,-1
 334 1438 l 2,18,19
 457 1438 457 1438 457 1372 c 2,20,-1
 457 268 l 1,21,-1
 913 268 l 2,22,23
 974 268 974 268 975 166 c 2,24,-1
 975 102 l 2,25,26
 975 0 975 0 913 0 c 2,27,-1
 223 0 l 2,28,29
 141 0 141 0 141 82 c 2,30,-1
 141 1372 l 2,31,32
 141 1438 141 1438 264 1438 c 2,17,-1
EndSplineSet
Position2: "'cpsp' Capital Spacing lookup 0 subtable" dx=10 dy=0 dh=20 dv=0
EndChar

StartChar: Lcaron
Encoding: 317 317 90
Width: 991
GlyphClass: 2
Flags: MW
HStem: 0 268<195 913 457 913 457 913> 1393 41G<776 815 815 851> 1397 41G<264 334 334 377>
VStem: 141 315<268 1372 268 1372 268 1394> 645 272<1075 1369>
AnchorPoint: "Anchor-1" 307 1434 basechar 0
AnchorPoint: "Anchor-0" 496 0 basechar 0
LayerCount: 2
Fore
SplineSet
264 1438 m 2,0,-1
 334 1438 l 2,1,2
 457 1438 457 1438 457 1372 c 2,3,-1
 457 268 l 1,4,-1
 913 268 l 2,5,6
 974 268 974 268 975 166 c 2,7,-1
 975 102 l 2,8,9
 975 0 975 0 913 0 c 2,10,-1
 223 0 l 2,11,12
 141 0 141 0 141 82 c 2,13,-1
 141 1372 l 2,14,15
 141 1438 141 1438 264 1438 c 2,0,-1
645 1092 m 2,16,-1
 653 1343 l 1,17,18
 653 1433 653 1433 776 1434 c 2,19,-1
 815 1434 l 2,20,21
 917 1434 917 1434 918 1343 c 0,22,23
 918 1247 918 1247 852 1149 c 128,-1,24
 786 1051 786 1051 745.5 1049 c 128,-1,25
 705 1047 705 1047 675 1058 c 128,-1,26
 645 1069 645 1069 645 1092 c 2,16,-1
EndSplineSet
Position2: "'cpsp' Capital Spacing lookup 0 subtable" dx=10 dy=0 dh=20 dv=0
EndChar

StartChar: Lcommaaccent
Encoding: 315 315 91
Width: 991
GlyphClass: 2
Flags: MW
HStem: -492 387<383 520> 0 268<195 913 457 913 457 913> 1397 41G<264 334 334 377>
VStem: 141 315<268 1372 268 1372 268 1394> 358 264<-263 -169 -263 -167>
AnchorPoint: "Anchor-1" 307 1434 basechar 0
AnchorPoint: "Anchor-0" 496 -416 basechar 0
LayerCount: 2
Fore
SplineSet
264 1438 m 2,0,-1
 334 1438 l 2,1,2
 457 1438 457 1438 457 1372 c 2,3,-1
 457 268 l 1,4,-1
 913 268 l 2,5,6
 974 268 974 268 975 166 c 2,7,-1
 975 102 l 2,8,9
 975 0 975 0 913 0 c 2,10,-1
 223 0 l 2,11,12
 141 0 141 0 141 82 c 2,13,-1
 141 1372 l 2,14,15
 141 1438 141 1438 264 1438 c 2,0,-1
481 -104 m 2,16,-1
 520 -104 l 2,17,18
 622 -104 622 -104 623 -195 c 0,19,20
 623 -291 623 -291 542 -391.5 c 128,-1,21
 461 -492 461 -492 401 -492 c 0,22,23
 368 -492 368 -492 338.5 -480.5 c 128,-1,24
 309 -469 309 -469 309 -446 c 0,25,26
 309 -444 309 -444 333.5 -368.5 c 128,-1,27
 358 -293 358 -293 358 -195 c 0,28,29
 358 -104 358 -104 481 -104 c 2,16,-1
EndSplineSet
Position2: "'cpsp' Capital Spacing lookup 0 subtable" dx=10 dy=0 dh=20 dv=0
EndChar

StartChar: Ldot
Encoding: 319 319 92
Width: 991
GlyphClass: 2
Flags: MW
HStem: 0 268<195 913 457 913 457 913> 592 287<638 718> 1397 41G<264 334 334 377>
VStem: 141 315<268 1372 268 1372 268 1394> 535 287<695 775>
AnchorPoint: "Anchor-1" 307 1434 basechar 0
AnchorPoint: "Anchor-0" 496 0 basechar 0
LayerCount: 2
Fore
SplineSet
264 1438 m 2,0,-1
 334 1438 l 2,1,2
 457 1438 457 1438 457 1372 c 2,3,-1
 457 268 l 1,4,-1
 913 268 l 2,5,6
 974 268 974 268 975 166 c 2,7,-1
 975 102 l 2,8,9
 975 0 975 0 913 0 c 2,10,-1
 223 0 l 2,11,12
 141 0 141 0 141 82 c 2,13,-1
 141 1372 l 2,14,15
 141 1438 141 1438 264 1438 c 2,0,-1
677.5 879 m 128,-1,17
 737 879 737 879 779 837 c 128,-1,18
 821 795 821 795 821 735.5 c 128,-1,19
 821 676 821 676 779 634 c 128,-1,20
 737 592 737 592 677.5 592 c 128,-1,21
 618 592 618 592 576.5 634 c 128,-1,22
 535 676 535 676 535 735.5 c 128,-1,23
 535 795 535 795 576.5 837 c 128,-1,16
 618 879 618 879 677.5 879 c 128,-1,17
EndSplineSet
Ligature2: "Ligature Substitution lookup 19 subtable" L periodcentered
Position2: "'cpsp' Capital Spacing lookup 0 subtable" dx=10 dy=0 dh=20 dv=0
EndChar

StartChar: Lj
Encoding: 456 456 93
Width: 1556
GlyphClass: 2
Flags: MW
HStem: -434 240<1058 1087 1050 1224> 0 268<195 913 457 913 457 913> 1034 41G<1257 1315 1315 1358> 1247 297<1214 1315 1257 1315> 1397 41G<264 334 334 377>
VStem: 141 315<268 1372 268 1372 268 1394> 1135 303<-106 -102 -102 1010 1313 1479>
AnchorPoint: "Anchor-1" 307 1434 basechar 0
AnchorPoint: "Anchor-0" 496 0 basechar 0
LayerCount: 2
Fore
SplineSet
1257 1544 m 2,0,-1
 1315 1544 l 2,1,2
 1438 1544 1438 1544 1438 1479 c 2,3,-1
 1438 1313 l 2,4,5
 1438 1247 1438 1247 1315 1247 c 2,6,-1
 1257 1247 l 2,7,8
 1134 1247 1134 1247 1135 1313 c 2,9,-1
 1135 1479 l 2,10,11
 1134 1544 1134 1544 1257 1544 c 2,0,-1
264 1438 m 2,12,-1
 334 1438 l 2,13,14
 457 1438 457 1438 457 1372 c 2,15,-1
 457 268 l 1,16,-1
 913 268 l 2,17,18
 974 268 974 268 975 166 c 2,19,-1
 975 102 l 2,20,21
 975 0 975 0 913 0 c 2,22,-1
 223 0 l 2,23,24
 141 0 141 0 141 82 c 2,25,-1
 141 1372 l 2,26,27
 141 1438 141 1438 264 1438 c 2,12,-1
999 -186 m 1,28,-1
 1061 -195 l 1,29,30
 1135 -195 1135 -195 1135 -106 c 2,31,-1
 1135 1010 l 2,32,33
 1135 1076 1135 1076 1257 1075 c 2,34,-1
 1315 1075 l 2,35,36
 1438 1075 1438 1075 1438 1010 c 2,37,-1
 1438 -102 l 2,38,39
 1438 -264 1438 -264 1355 -349 c 128,-1,40
 1272 -434 1272 -434 1145 -434 c 128,-1,41
 1018 -434 1018 -434 972 -410.5 c 128,-1,42
 926 -387 926 -387 926 -337 c 128,-1,43
 926 -287 926 -287 948 -236.5 c 128,-1,44
 970 -186 970 -186 999 -186 c 1,28,-1
EndSplineSet
Position2: "'cpsp' Capital Spacing lookup 0 subtable" dx=10 dy=0 dh=20 dv=0
EndChar

StartChar: Lslash
Encoding: 321 321 94
Width: 995
GlyphClass: 2
Flags: MW
HStem: 0 268<199 918 461 918 461 918> 1397 41G<268 338 338 381>
VStem: 145 315<268 616 616 616 780 809 973 1372>
LayerCount: 2
Fore
SplineSet
268 1438 m 2,0,-1
 338 1438 l 2,1,2
 461 1438 461 1438 461 1372 c 2,3,-1
 461 973 l 1,4,-1
 639 1081 l 2,5,6
 657 1093 657 1093 670 1094 c 0,7,8
 693 1094 693 1094 692 1053 c 2,9,-1
 692 1012 l 2,10,11
 692 951 692 951 639 918 c 2,12,-1
 461 809 l 1,13,-1
 461 268 l 1,14,-1
 918 268 l 2,15,16
 979 268 979 268 979 166 c 2,17,-1
 979 102 l 2,18,19
 979 0 979 0 918 0 c 2,20,-1
 227 0 l 2,21,22
 145 0 145 0 145 82 c 2,23,-1
 145 616 l 1,24,-1
 106 592 l 2,25,26
 90 582 90 582 76 582 c 0,27,28
 53 582 53 582 53 623 c 2,29,-1
 53 664 l 2,30,31
 53 723 53 723 106 756 c 2,32,-1
 145 780 l 1,33,-1
 145 1372 l 2,34,35
 145 1438 145 1438 268 1438 c 2,0,-1
EndSplineSet
Position2: "'cpsp' Capital Spacing lookup 0 subtable" dx=10 dy=0 dh=20 dv=0
EndChar

StartChar: M
Encoding: 77 77 95
Width: 1726
GlyphClass: 2
Flags: MW
HStem: 1397 41G<264 373 373 402 1356 1462 1462 1505>
VStem: 141 305<61 909> 1280 305<61 909 909 909>
LayerCount: 2
Fore
SplineSet
1356 1438 m 2,0,-1
 1462 1438 l 2,1,2
 1585 1438 1585 1438 1585 1372 c 2,3,-1
 1585 61 l 2,4,5
 1585 -5 1585 -5 1462 -4 c 2,6,-1
 1403 -4 l 2,7,8
 1280 -4 1280 -4 1280 61 c 2,9,-1
 1280 909 l 1,10,-1
 1272 911 l 1,11,-1
 975 381 l 1,12,13
 946 342 946 342 893 342 c 2,14,-1
 834 342 l 2,15,16
 781 342 781 342 752 381 c 1,17,-1
 455 911 l 1,18,-1
 446 909 l 1,19,-1
 446 61 l 2,20,21
 446 -5 446 -5 324 -4 c 2,22,-1
 264 -4 l 2,23,24
 141 -4 141 -4 141 61 c 2,25,-1
 141 1372 l 2,26,27
 141 1438 141 1438 264 1438 c 2,28,-1
 373 1438 l 2,29,30
 471 1438 471 1438 502 1382 c 2,31,-1
 862 741 l 1,32,-1
 1227 1382 l 2,33,34
 1258 1438 1258 1438 1356 1438 c 2,0,-1
EndSplineSet
Position2: "'cpsp' Capital Spacing lookup 0 subtable" dx=10 dy=0 dh=20 dv=0
EndChar

StartChar: N
Encoding: 78 78 96
Width: 1472
GlyphClass: 2
Flags: MW
HStem: 1397 41G<264 352 352 382 1149 1208 1208 1251>
VStem: 141 305<61 891> 1026 305<553 1372>
AnchorPoint: "Anchor-1" 737 1434 basechar 0
AnchorPoint: "Anchor-0" 737 0 basechar 0
LayerCount: 2
Fore
SplineSet
1149 1438 m 2,0,-1
 1208 1438 l 2,1,2
 1331 1438 1331 1438 1331 1372 c 2,3,-1
 1331 61 l 2,4,5
 1331 -5 1331 -5 1208 -4 c 2,6,-1
 1130 -4 l 2,7,8
 1032 -4 1032 -4 995 51 c 2,9,-1
 446 891 l 1,10,-1
 446 61 l 2,11,12
 446 -5 446 -5 324 -4 c 2,13,-1
 264 -4 l 2,14,15
 141 -4 141 -4 141 61 c 2,16,-1
 141 1372 l 2,17,18
 141 1438 141 1438 264 1438 c 2,19,-1
 352 1438 l 2,20,21
 450 1438 450 1438 487 1382 c 2,22,-1
 1026 553 l 1,23,-1
 1026 1372 l 2,24,25
 1026 1438 1026 1438 1149 1438 c 2,0,-1
EndSplineSet
Position2: "'cpsp' Capital Spacing lookup 0 subtable" dx=10 dy=0 dh=20 dv=0
EndChar

StartChar: NJ
Encoding: 458 458 97
Width: 2295
GlyphClass: 2
Flags: MW
HStem: -16 268<1702 1733 1638 1879> 1397 41G<264 352 352 382 1149 1208 1208 1251> 1399 41G<1966 2038 2038 2081>
VStem: 141 305<61 891> 1026 305<553 1372> 1843 317<465 1372>
AnchorPoint: "Anchor-1" 2007 1434 basechar 0
AnchorPoint: "Anchor-0" 737 0 basechar 0
LayerCount: 2
Fore
SplineSet
1966 1440 m 2,0,-1
 2038 1440 l 2,1,2
 2161 1440 2161 1440 2161 1372 c 2,3,-1
 2161 414 l 2,4,5
 2161 211 2161 211 2054.5 97.5 c 128,-1,6
 1948 -16 1948 -16 1726 -16 c 0,7,8
 1666 -16 1666 -16 1600 -5 c 0,9,10
 1472 17 1472 17 1473 78 c 0,11,12
 1473 125 1473 125 1494.5 194.5 c 128,-1,13
 1516 264 1516 264 1556 268 c 0,14,15
 1560 268 1560 268 1596 260 c 128,-1,16
 1632 252 1632 252 1671 252 c 0,17,18
 1763 252 1763 252 1803 302 c 128,-1,19
 1843 352 1843 352 1843 465 c 2,20,-1
 1843 1372 l 2,21,22
 1843 1440 1843 1440 1966 1440 c 2,0,-1
1149 1438 m 2,23,-1
 1208 1438 l 2,24,25
 1331 1438 1331 1438 1331 1372 c 2,26,-1
 1331 61 l 2,27,28
 1331 -5 1331 -5 1208 -4 c 2,29,-1
 1130 -4 l 2,30,31
 1032 -4 1032 -4 995 51 c 2,32,-1
 446 891 l 1,33,-1
 446 61 l 2,34,35
 446 -5 446 -5 324 -4 c 2,36,-1
 264 -4 l 2,37,38
 141 -4 141 -4 141 61 c 2,39,-1
 141 1372 l 2,40,41
 141 1438 141 1438 264 1438 c 2,42,-1
 352 1438 l 2,43,44
 450 1438 450 1438 487 1382 c 2,45,-1
 1026 553 l 1,46,-1
 1026 1372 l 2,47,48
 1026 1438 1026 1438 1149 1438 c 2,23,-1
EndSplineSet
Position2: "'cpsp' Capital Spacing lookup 0 subtable" dx=10 dy=0 dh=20 dv=0
EndChar

StartChar: Nacute
Encoding: 323 323 98
Width: 1472
GlyphClass: 2
Flags: MW
HStem: 1397 41G<264 352 352 382 1149 1208 1208 1251> 1540 326<633 942>
VStem: 141 305<61 891> 1026 305<553 1372>
AnchorPoint: "Anchor-1" 750 1796 basechar 0
AnchorPoint: "Anchor-0" 737 0 basechar 0
LayerCount: 2
Fore
SplineSet
727 1810 m 0,0,1
 758 1865 758 1865 891 1865.5 c 128,-1,2
 1024 1866 1024 1866 1024 1837 c 0,3,4
 1024 1825 1024 1825 1011.5 1808.5 c 128,-1,5
 999 1792 999 1792 962.5 1754 c 128,-1,6
 926 1716 926 1716 911.5 1701 c 128,-1,7
 897 1686 897 1686 868.5 1654 c 128,-1,8
 840 1622 840 1622 811 1591 c 0,9,10
 764 1540 764 1540 657 1540 c 0,11,12
 594 1540 594 1540 594 1571 c 0,13,14
 594 1593 594 1593 623.5 1637 c 128,-1,15
 653 1681 653 1681 677.5 1724 c 128,-1,16
 702 1767 702 1767 727 1810 c 0,0,1
1149 1438 m 2,17,-1
 1208 1438 l 2,18,19
 1331 1438 1331 1438 1331 1372 c 2,20,-1
 1331 61 l 2,21,22
 1331 -5 1331 -5 1208 -4 c 2,23,-1
 1130 -4 l 2,24,25
 1032 -4 1032 -4 995 51 c 2,26,-1
 446 891 l 1,27,-1
 446 61 l 2,28,29
 446 -5 446 -5 324 -4 c 2,30,-1
 264 -4 l 2,31,32
 141 -4 141 -4 141 61 c 2,33,-1
 141 1372 l 2,34,35
 141 1438 141 1438 264 1438 c 2,36,-1
 352 1438 l 2,37,38
 450 1438 450 1438 487 1382 c 2,39,-1
 1026 553 l 1,40,-1
 1026 1372 l 2,41,42
 1026 1438 1026 1438 1149 1438 c 2,17,-1
EndSplineSet
Substitution2: "'locl' Localized Forms in Latin lookup 11 subtable" Nacute.loclPLK
Substitution2: "'aalt' Access All Alternates lookup 0 subtable" Nacute.loclPLK
Position2: "'cpsp' Capital Spacing lookup 0 subtable" dx=10 dy=0 dh=20 dv=0
EndChar

StartChar: Ncaron
Encoding: 327 327 99
Width: 1472
GlyphClass: 2
Flags: MW
HStem: 1397 41G<264 352 352 382 1149 1208 1208 1251> 1534 299<498 727 498 750>
VStem: 141 305<61 891> 1026 305<553 1372>
AnchorPoint: "Anchor-1" 739 1796 basechar 0
AnchorPoint: "Anchor-0" 737 0 basechar 0
LayerCount: 2
Fore
SplineSet
934 1833 m 2,0,-1
 979 1833 l 2,1,2
 1020 1833 1020 1833 1020 1812 c 0,3,4
 1020 1800 1020 1800 1008 1782 c 2,5,-1
 874 1573 l 2,6,7
 849 1534 849 1534 750 1534 c 2,8,-1
 727 1534 l 2,9,10
 627 1534 627 1534 602 1573 c 2,11,-1
 469 1782 l 2,12,13
 457 1800 457 1800 457 1812 c 0,14,15
 457 1832 457 1832 498 1833 c 2,16,-1
 543 1833 l 2,17,18
 643 1833 643 1833 680 1782 c 2,19,-1
 737 1702 l 1,20,-1
 795 1784 l 2,21,22
 828 1833 828 1833 934 1833 c 2,0,-1
1149 1438 m 2,23,-1
 1208 1438 l 2,24,25
 1331 1438 1331 1438 1331 1372 c 2,26,-1
 1331 61 l 2,27,28
 1331 -5 1331 -5 1208 -4 c 2,29,-1
 1130 -4 l 2,30,31
 1032 -4 1032 -4 995 51 c 2,32,-1
 446 891 l 1,33,-1
 446 61 l 2,34,35
 446 -5 446 -5 324 -4 c 2,36,-1
 264 -4 l 2,37,38
 141 -4 141 -4 141 61 c 2,39,-1
 141 1372 l 2,40,41
 141 1438 141 1438 264 1438 c 2,42,-1
 352 1438 l 2,43,44
 450 1438 450 1438 487 1382 c 2,45,-1
 1026 553 l 1,46,-1
 1026 1372 l 2,47,48
 1026 1438 1026 1438 1149 1438 c 2,23,-1
EndSplineSet
Position2: "'cpsp' Capital Spacing lookup 0 subtable" dx=10 dy=0 dh=20 dv=0
EndChar

StartChar: Ncommaaccent
Encoding: 325 325 100
Width: 1472
GlyphClass: 2
Flags: MW
HStem: -492 387<625 762> 1397 41G<264 352 352 382 1149 1208 1208 1251>
VStem: 141 305<61 891> 600 264<-263 -169 -263 -167> 1026 305<553 1372>
AnchorPoint: "Anchor-1" 737 1434 basechar 0
AnchorPoint: "Anchor-0" 737 -416 basechar 0
LayerCount: 2
Fore
SplineSet
1149 1438 m 2,0,-1
 1208 1438 l 2,1,2
 1331 1438 1331 1438 1331 1372 c 2,3,-1
 1331 61 l 2,4,5
 1331 -5 1331 -5 1208 -4 c 2,6,-1
 1130 -4 l 2,7,8
 1032 -4 1032 -4 995 51 c 2,9,-1
 446 891 l 1,10,-1
 446 61 l 2,11,12
 446 -5 446 -5 324 -4 c 2,13,-1
 264 -4 l 2,14,15
 141 -4 141 -4 141 61 c 2,16,-1
 141 1372 l 2,17,18
 141 1438 141 1438 264 1438 c 2,19,-1
 352 1438 l 2,20,21
 450 1438 450 1438 487 1382 c 2,22,-1
 1026 553 l 1,23,-1
 1026 1372 l 2,24,25
 1026 1438 1026 1438 1149 1438 c 2,0,-1
723 -104 m 2,26,-1
 762 -104 l 2,27,28
 864 -104 864 -104 864 -195 c 0,29,30
 864 -291 864 -291 783 -391.5 c 128,-1,31
 702 -492 702 -492 643 -492 c 0,32,33
 610 -492 610 -492 580.5 -480.5 c 128,-1,34
 551 -469 551 -469 551 -446 c 0,35,36
 551 -444 551 -444 575.5 -368.5 c 128,-1,37
 600 -293 600 -293 600 -195 c 0,38,39
 600 -104 600 -104 723 -104 c 2,26,-1
EndSplineSet
Position2: "'cpsp' Capital Spacing lookup 0 subtable" dx=10 dy=0 dh=20 dv=0
EndChar

StartChar: Ndotaccent
Encoding: 7748 7748 101
Width: 1472
GlyphClass: 2
Flags: MW
HStem: 1397 41G<264 352 352 382 1149 1208 1208 1251> 1546 254<694 780>
VStem: 141 305<61 891> 614 246<1612 1735 1590 1756> 1026 305<553 1372>
AnchorPoint: "Anchor-1" 741 1796 basechar 0
AnchorPoint: "Anchor-0" 737 0 basechar 0
LayerCount: 2
Fore
SplineSet
737 1800 m 128,-1,1
 860 1800 860 1800 860 1735 c 2,2,-1
 860 1612 l 2,3,4
 860 1546 860 1546 737 1546 c 128,-1,5
 614 1546 614 1546 614 1612 c 2,6,-1
 614 1735 l 2,7,0
 614 1800 614 1800 737 1800 c 128,-1,1
1149 1438 m 2,8,-1
 1208 1438 l 2,9,10
 1331 1438 1331 1438 1331 1372 c 2,11,-1
 1331 61 l 2,12,13
 1331 -5 1331 -5 1208 -4 c 2,14,-1
 1130 -4 l 2,15,16
 1032 -4 1032 -4 995 51 c 2,17,-1
 446 891 l 1,18,-1
 446 61 l 2,19,20
 446 -5 446 -5 324 -4 c 2,21,-1
 264 -4 l 2,22,23
 141 -4 141 -4 141 61 c 2,24,-1
 141 1372 l 2,25,26
 141 1438 141 1438 264 1438 c 2,27,-1
 352 1438 l 2,28,29
 450 1438 450 1438 487 1382 c 2,30,-1
 1026 553 l 1,31,-1
 1026 1372 l 2,32,33
 1026 1438 1026 1438 1149 1438 c 2,8,-1
EndSplineSet
Position2: "'cpsp' Capital Spacing lookup 0 subtable" dx=10 dy=0 dh=20 dv=0
EndChar

StartChar: Eng
Encoding: 330 330 102
Width: 1472
GlyphClass: 2
Flags: MW
HStem: -434 240<951 981 943 1117> 1397 41G<264 352 352 382 1149 1208 1208 1251>
VStem: 141 305<61 891> 1026 305<553 1372>
AnchorPoint: "Anchor-1" 1180 1071 basechar 0
AnchorPoint: "Anchor-0" 0 0 basechar 0
LayerCount: 2
Fore
SplineSet
893 -186 m 1,0,-1
 954 -195 l 1,1,2
 1028 -195 1028 -195 1028 -106 c 2,3,-1
 1028 2 l 1,4,-1
 446 891 l 1,5,-1
 446 61 l 2,6,7
 446 -5 446 -5 324 -4 c 2,8,-1
 264 -4 l 2,9,10
 141 -4 141 -4 141 61 c 2,11,-1
 141 1372 l 2,12,13
 141 1438 141 1438 264 1438 c 2,14,-1
 352 1438 l 2,15,16
 450 1438 450 1438 487 1382 c 2,17,-1
 1026 553 l 1,18,-1
 1026 1372 l 2,19,20
 1026 1438 1026 1438 1149 1438 c 2,21,-1
 1208 1438 l 2,22,23
 1331 1438 1331 1438 1331 1372 c 2,24,-1
 1331 -102 l 2,25,26
 1331 -264 1331 -264 1248 -349 c 128,-1,27
 1165 -434 1165 -434 1038 -434 c 128,-1,28
 911 -434 911 -434 865 -410.5 c 128,-1,29
 819 -387 819 -387 819 -337 c 128,-1,30
 819 -287 819 -287 841.5 -236.5 c 128,-1,31
 864 -186 864 -186 893 -186 c 1,0,-1
EndSplineSet
Position2: "'cpsp' Capital Spacing lookup 0 subtable" dx=10 dy=0 dh=20 dv=0
EndChar

StartChar: Nj
Encoding: 459 459 103
Width: 2037
GlyphClass: 2
Flags: MW
HStem: -434 240<1539 1569 1531 1705> 1034 41G<1739 1796 1796 1839> 1247 297<1696 1796 1739 1796> 1397 41G<264 352 352 382 1149 1208 1208 1251>
VStem: 141 305<61 891> 1026 305<553 1372> 1616 303<-106 -102 -102 1010 1313 1479>
AnchorPoint: "Anchor-1" 737 1434 basechar 0
AnchorPoint: "Anchor-0" 737 0 basechar 0
LayerCount: 2
Fore
SplineSet
1739 1544 m 2,0,-1
 1796 1544 l 2,1,2
 1919 1544 1919 1544 1919 1479 c 2,3,-1
 1919 1313 l 2,4,5
 1919 1247 1919 1247 1796 1247 c 2,6,-1
 1739 1247 l 2,7,8
 1616 1247 1616 1247 1616 1313 c 2,9,-1
 1616 1479 l 2,10,11
 1616 1544 1616 1544 1739 1544 c 2,0,-1
1149 1438 m 2,12,-1
 1208 1438 l 2,13,14
 1331 1438 1331 1438 1331 1372 c 2,15,-1
 1331 61 l 2,16,17
 1331 -5 1331 -5 1208 -4 c 2,18,-1
 1130 -4 l 2,19,20
 1032 -4 1032 -4 995 51 c 2,21,-1
 446 891 l 1,22,-1
 446 61 l 2,23,24
 446 -5 446 -5 324 -4 c 2,25,-1
 264 -4 l 2,26,27
 141 -4 141 -4 141 61 c 2,28,-1
 141 1372 l 2,29,30
 141 1438 141 1438 264 1438 c 2,31,-1
 352 1438 l 2,32,33
 450 1438 450 1438 487 1382 c 2,34,-1
 1026 553 l 1,35,-1
 1026 1372 l 2,36,37
 1026 1438 1026 1438 1149 1438 c 2,12,-1
1481 -186 m 1,38,-1
 1542 -195 l 1,39,40
 1616 -195 1616 -195 1616 -106 c 2,41,-1
 1616 1010 l 2,42,43
 1616 1076 1616 1076 1739 1075 c 2,44,-1
 1796 1075 l 2,45,46
 1919 1075 1919 1075 1919 1010 c 2,47,-1
 1919 -102 l 2,48,49
 1919 -264 1919 -264 1836 -349 c 128,-1,50
 1753 -434 1753 -434 1626 -434 c 128,-1,51
 1499 -434 1499 -434 1453 -410.5 c 128,-1,52
 1407 -387 1407 -387 1407 -337 c 128,-1,53
 1407 -287 1407 -287 1429.5 -236.5 c 128,-1,54
 1452 -186 1452 -186 1481 -186 c 1,38,-1
EndSplineSet
Position2: "'cpsp' Capital Spacing lookup 0 subtable" dx=10 dy=0 dh=20 dv=0
EndChar

StartChar: Ntilde
Encoding: 209 209 104
Width: 1472
GlyphClass: 2
Flags: MW
HStem: 1397 41G<264 352 352 382 1149 1208 1208 1251> 1550 176<851 880> 1606 176<577 608>
VStem: 141 305<61 891> 1026 305<553 1372>
AnchorPoint: "Anchor-1" 735 1796 basechar 0
AnchorPoint: "Anchor-0" 737 0 basechar 0
LayerCount: 2
Fore
SplineSet
408 1698 m 0,0,1
 514 1782 514 1782 602 1782 c 128,-1,2
 690 1782 690 1782 760.5 1754 c 128,-1,3
 831 1726 831 1726 879.5 1726 c 128,-1,4
 928 1726 928 1726 979 1757 c 128,-1,5
 1030 1788 1030 1788 1071 1745 c 0,6,7
 1110 1700 1110 1700 1055 1634 c 0,8,9
 971 1550 971 1550 838 1550 c 0,10,11
 768 1550 768 1550 702.5 1578 c 128,-1,12
 637 1606 637 1606 589 1606 c 128,-1,13
 541 1606 541 1606 490.5 1579 c 128,-1,14
 440 1552 440 1552 400.5 1601.5 c 128,-1,15
 361 1651 361 1651 408 1698 c 0,0,1
1149 1438 m 2,16,-1
 1208 1438 l 2,17,18
 1331 1438 1331 1438 1331 1372 c 2,19,-1
 1331 61 l 2,20,21
 1331 -5 1331 -5 1208 -4 c 2,22,-1
 1130 -4 l 2,23,24
 1032 -4 1032 -4 995 51 c 2,25,-1
 446 891 l 1,26,-1
 446 61 l 2,27,28
 446 -5 446 -5 324 -4 c 2,29,-1
 264 -4 l 2,30,31
 141 -4 141 -4 141 61 c 2,32,-1
 141 1372 l 2,33,34
 141 1438 141 1438 264 1438 c 2,35,-1
 352 1438 l 2,36,37
 450 1438 450 1438 487 1382 c 2,38,-1
 1026 553 l 1,39,-1
 1026 1372 l 2,40,41
 1026 1438 1026 1438 1149 1438 c 2,16,-1
EndSplineSet
Position2: "'cpsp' Capital Spacing lookup 0 subtable" dx=10 dy=0 dh=20 dv=0
EndChar

StartChar: O
Encoding: 79 79 105
Width: 1497
GlyphClass: 2
Flags: MW
HStem: -16 268<640 859 640 961> 1180 270<640 859>
VStem: 92 324<566 867 566 953> 1081 324<566 867>
AnchorPoint: "Anchor-1" 750 1434 basechar 0
AnchorPoint: "Anchor-0" 752 0 basechar 0
LayerCount: 2
Fore
SplineSet
749.5 1450 m 128,-1,1
 1067 1450 1067 1450 1236 1260.5 c 128,-1,2
 1405 1071 1405 1071 1405 716.5 c 128,-1,3
 1405 362 1405 362 1236 173 c 128,-1,4
 1067 -16 1067 -16 749.5 -16 c 128,-1,5
 432 -16 432 -16 262 173 c 128,-1,6
 92 362 92 362 92 716.5 c 128,-1,7
 92 1071 92 1071 262 1260.5 c 128,-1,0
 432 1450 432 1450 749.5 1450 c 128,-1,1
749.5 1180 m 128,-1,9
 586 1180 586 1180 501 1062 c 128,-1,10
 416 944 416 944 416 716.5 c 128,-1,11
 416 489 416 489 501 370.5 c 128,-1,12
 586 252 586 252 749.5 252 c 128,-1,13
 913 252 913 252 997 370.5 c 128,-1,14
 1081 489 1081 489 1081 716.5 c 128,-1,15
 1081 944 1081 944 997 1062 c 128,-1,8
 913 1180 913 1180 749.5 1180 c 128,-1,9
EndSplineSet
Substitution2: "Single Substitution lookup 20 subtable" ordmasculine
Substitution2: "'aalt' Access All Alternates lookup 0 subtable" ordmasculine
Position2: "'cpsp' Capital Spacing lookup 0 subtable" dx=10 dy=0 dh=20 dv=0
EndChar

StartChar: Oacute
Encoding: 211 211 106
Width: 1497
GlyphClass: 2
Flags: MW
HStem: -16 268<640 859 640 961> 1180 270<640 859> 1540 326<645 954>
VStem: 92 324<566 867 566 953> 1081 324<566 867>
AnchorPoint: "Anchor-1" 762 1796 basechar 0
AnchorPoint: "Anchor-0" 752 0 basechar 0
LayerCount: 2
Fore
SplineSet
739 1810 m 0,0,1
 770 1865 770 1865 903 1865.5 c 128,-1,2
 1036 1866 1036 1866 1036 1837 c 0,3,4
 1036 1825 1036 1825 1024 1808.5 c 128,-1,5
 1012 1792 1012 1792 975 1754 c 128,-1,6
 938 1716 938 1716 923.5 1701 c 128,-1,7
 909 1686 909 1686 880.5 1654 c 128,-1,8
 852 1622 852 1622 823 1591 c 0,9,10
 776 1540 776 1540 670 1540 c 0,11,12
 607 1540 607 1540 606 1571 c 0,13,14
 606 1593 606 1593 636 1637 c 128,-1,15
 666 1681 666 1681 690 1724 c 128,-1,16
 714 1767 714 1767 739 1810 c 0,0,1
749.5 1450 m 128,-1,18
 1067 1450 1067 1450 1236 1260.5 c 128,-1,19
 1405 1071 1405 1071 1405 716.5 c 128,-1,20
 1405 362 1405 362 1236 173 c 128,-1,21
 1067 -16 1067 -16 749.5 -16 c 128,-1,22
 432 -16 432 -16 262 173 c 128,-1,23
 92 362 92 362 92 716.5 c 128,-1,24
 92 1071 92 1071 262 1260.5 c 128,-1,17
 432 1450 432 1450 749.5 1450 c 128,-1,18
749.5 1180 m 128,-1,26
 586 1180 586 1180 501 1062 c 128,-1,27
 416 944 416 944 416 716.5 c 128,-1,28
 416 489 416 489 501 370.5 c 128,-1,29
 586 252 586 252 749.5 252 c 128,-1,30
 913 252 913 252 997 370.5 c 128,-1,31
 1081 489 1081 489 1081 716.5 c 128,-1,32
 1081 944 1081 944 997 1062 c 128,-1,25
 913 1180 913 1180 749.5 1180 c 128,-1,26
EndSplineSet
Substitution2: "'locl' Localized Forms in Latin lookup 11 subtable" Oacute.loclPLK
Substitution2: "'aalt' Access All Alternates lookup 0 subtable" Oacute.loclPLK
Position2: "'cpsp' Capital Spacing lookup 0 subtable" dx=10 dy=0 dh=20 dv=0
EndChar

StartChar: Obreve
Encoding: 334 334 107
Width: 1497
GlyphClass: 2
Flags: MW
HStem: -16 268<640 859 640 961> 1180 270<640 859> 1540 186<697 805 697 839>
VStem: 92 324<566 867 566 953> 1081 324<566 867>
AnchorPoint: "Anchor-1" 750 1767 basechar 0
AnchorPoint: "Anchor-0" 752 0 basechar 0
LayerCount: 2
Fore
SplineSet
979 1827 m 0,0,1
 1051 1827 1051 1827 1051 1769 c 0,2,3
 1051 1679 1051 1679 965 1609.5 c 128,-1,4
 879 1540 879 1540 750 1540 c 128,-1,5
 621 1540 621 1540 535 1609.5 c 128,-1,6
 449 1679 449 1679 449 1769 c 0,7,8
 449 1826 449 1826 520 1827 c 0,9,10
 555 1827 555 1827 580.5 1798 c 128,-1,11
 606 1769 606 1769 618 1759 c 0,12,13
 657 1726 657 1726 729 1726 c 128,-1,14
 801 1726 801 1726 837.5 1739.5 c 128,-1,15
 874 1753 874 1753 884.5 1762.5 c 128,-1,16
 895 1772 895 1772 919.5 1799.5 c 128,-1,17
 944 1827 944 1827 979 1827 c 0,0,1
749.5 1450 m 128,-1,19
 1067 1450 1067 1450 1236 1260.5 c 128,-1,20
 1405 1071 1405 1071 1405 716.5 c 128,-1,21
 1405 362 1405 362 1236 173 c 128,-1,22
 1067 -16 1067 -16 749.5 -16 c 128,-1,23
 432 -16 432 -16 262 173 c 128,-1,24
 92 362 92 362 92 716.5 c 128,-1,25
 92 1071 92 1071 262 1260.5 c 128,-1,18
 432 1450 432 1450 749.5 1450 c 128,-1,19
749.5 1180 m 128,-1,27
 586 1180 586 1180 501 1062 c 128,-1,28
 416 944 416 944 416 716.5 c 128,-1,29
 416 489 416 489 501 370.5 c 128,-1,30
 586 252 586 252 749.5 252 c 128,-1,31
 913 252 913 252 997 370.5 c 128,-1,32
 1081 489 1081 489 1081 716.5 c 128,-1,33
 1081 944 1081 944 997 1062 c 128,-1,26
 913 1180 913 1180 749.5 1180 c 128,-1,27
EndSplineSet
Position2: "'cpsp' Capital Spacing lookup 0 subtable" dx=10 dy=0 dh=20 dv=0
EndChar

StartChar: Ocircumflex
Encoding: 212 212 108
Width: 1497
GlyphClass: 2
Flags: MW
HStem: -16 268<640 859 640 961> 1180 270<640 859> 1534 299<496 762 510 762 739 946 739 991>
VStem: 92 324<566 867 566 953> 1081 324<566 867>
AnchorPoint: "Anchor-1" 1057 1624 basechar 0
AnchorPoint: "Anchor-0" 752 0 basechar 0
LayerCount: 2
Fore
SplineSet
739 1833 m 2,0,-1
 762 1833 l 2,1,2
 862 1833 862 1833 887 1794 c 2,3,-1
 1020 1585 l 2,4,5
 1032 1567 1032 1567 1032 1554 c 0,6,7
 1032 1534 1032 1534 991 1534 c 2,8,-1
 946 1534 l 2,9,10
 840 1534 840 1534 807 1583 c 2,11,-1
 750 1665 l 1,12,-1
 692 1585 l 2,13,14
 655 1534 655 1534 555 1534 c 2,15,-1
 510 1534 l 2,16,17
 469 1534 469 1534 469 1554 c 0,18,19
 469 1566 469 1566 481 1585 c 2,20,-1
 614 1794 l 2,21,22
 639 1833 639 1833 739 1833 c 2,0,-1
749.5 1450 m 128,-1,24
 1067 1450 1067 1450 1236 1260.5 c 128,-1,25
 1405 1071 1405 1071 1405 716.5 c 128,-1,26
 1405 362 1405 362 1236 173 c 128,-1,27
 1067 -16 1067 -16 749.5 -16 c 128,-1,28
 432 -16 432 -16 262 173 c 128,-1,29
 92 362 92 362 92 716.5 c 128,-1,30
 92 1071 92 1071 262 1260.5 c 128,-1,23
 432 1450 432 1450 749.5 1450 c 128,-1,24
749.5 1180 m 128,-1,32
 586 1180 586 1180 501 1062 c 128,-1,33
 416 944 416 944 416 716.5 c 128,-1,34
 416 489 416 489 501 370.5 c 128,-1,35
 586 252 586 252 749.5 252 c 128,-1,36
 913 252 913 252 997 370.5 c 128,-1,37
 1081 489 1081 489 1081 716.5 c 128,-1,38
 1081 944 1081 944 997 1062 c 128,-1,31
 913 1180 913 1180 749.5 1180 c 128,-1,32
EndSplineSet
Position2: "'cpsp' Capital Spacing lookup 0 subtable" dx=10 dy=0 dh=20 dv=0
EndChar

StartChar: Ocircumflexacute
Encoding: 7888 7888 109
Width: 1497
GlyphClass: 2
Flags: MW
HStem: -16 268<640 859 640 961> 1180 270<640 859> 1720 113
VStem: 92 324<566 867 566 953> 1081 324<566 867>
AnchorPoint: "Anchor-1" 1024 1698 basechar 0
AnchorPoint: "Anchor-0" 752 0 basechar 0
LayerCount: 2
Fore
SplineSet
1165 1974 m 0,0,1
 1247 1974 1247 1974 1247 1925 c 0,2,3
 1247 1911 1247 1911 1221.5 1876 c 128,-1,4
 1196 1841 1196 1841 1096 1720 c 0,5,6
 1065 1689 1065 1689 983 1690 c 0,7,8
 940 1690 940 1690 940 1720 c 0,9,10
 940 1726 940 1726 1012 1919 c 0,11,12
 1040 1974 1040 1974 1165 1974 c 0,0,1
739 1833 m 2,13,-1
 762 1833 l 2,14,15
 844 1833 844 1833 866 1794 c 2,16,-1
 989 1585 l 2,17,18
 1001 1567 1001 1567 1001 1554 c 0,19,20
 1001 1534 1001 1534 961 1534 c 2,21,-1
 915 1534 l 2,22,23
 792 1534 792 1534 776 1583 c 2,24,-1
 750 1665 l 1,25,-1
 692 1585 l 2,26,27
 655 1534 655 1534 555 1534 c 2,28,-1
 510 1534 l 2,29,30
 469 1534 469 1534 469 1554 c 0,31,32
 469 1566 469 1566 481 1585 c 2,33,-1
 614 1794 l 2,34,35
 639 1833 639 1833 739 1833 c 2,13,-1
749.5 1450 m 128,-1,37
 1067 1450 1067 1450 1236 1260.5 c 128,-1,38
 1405 1071 1405 1071 1405 716.5 c 128,-1,39
 1405 362 1405 362 1236 173 c 128,-1,40
 1067 -16 1067 -16 749.5 -16 c 128,-1,41
 432 -16 432 -16 262 173 c 128,-1,42
 92 362 92 362 92 716.5 c 128,-1,43
 92 1071 92 1071 262 1260.5 c 128,-1,36
 432 1450 432 1450 749.5 1450 c 128,-1,37
749.5 1180 m 128,-1,45
 586 1180 586 1180 501 1062 c 128,-1,46
 416 944 416 944 416 716.5 c 128,-1,47
 416 489 416 489 501 370.5 c 128,-1,48
 586 252 586 252 749.5 252 c 128,-1,49
 913 252 913 252 997 370.5 c 128,-1,50
 1081 489 1081 489 1081 716.5 c 128,-1,51
 1081 944 1081 944 997 1062 c 128,-1,44
 913 1180 913 1180 749.5 1180 c 128,-1,45
EndSplineSet
Position2: "'cpsp' Capital Spacing lookup 0 subtable" dx=10 dy=0 dh=20 dv=0
EndChar

StartChar: Ocircumflexdotbelow
Encoding: 7896 7896 110
Width: 1497
GlyphClass: 2
Flags: MW
HStem: -418 254<713 799> -16 268<640 859 640 961> 1180 270<640 859> 1534 299<496 762 510 762 739 946 739 991>
VStem: 92 324<566 867 566 953> 633 246<-352 -229 -374 -208> 1081 324<566 867>
AnchorPoint: "Anchor-1" 760 -168 basechar 0
AnchorPoint: "Anchor-0" 758 -416 basechar 0
LayerCount: 2
Fore
SplineSet
739 1833 m 2,0,-1
 762 1833 l 2,1,2
 862 1833 862 1833 887 1794 c 2,3,-1
 1020 1585 l 2,4,5
 1032 1567 1032 1567 1032 1554 c 0,6,7
 1032 1534 1032 1534 991 1534 c 2,8,-1
 946 1534 l 2,9,10
 840 1534 840 1534 807 1583 c 2,11,-1
 750 1665 l 1,12,-1
 692 1585 l 2,13,14
 655 1534 655 1534 555 1534 c 2,15,-1
 510 1534 l 2,16,17
 469 1534 469 1534 469 1554 c 0,18,19
 469 1566 469 1566 481 1585 c 2,20,-1
 614 1794 l 2,21,22
 639 1833 639 1833 739 1833 c 2,0,-1
749.5 1450 m 128,-1,24
 1067 1450 1067 1450 1236 1260.5 c 128,-1,25
 1405 1071 1405 1071 1405 716.5 c 128,-1,26
 1405 362 1405 362 1236 173 c 128,-1,27
 1067 -16 1067 -16 749.5 -16 c 128,-1,28
 432 -16 432 -16 262 173 c 128,-1,29
 92 362 92 362 92 716.5 c 128,-1,30
 92 1071 92 1071 262 1260.5 c 128,-1,23
 432 1450 432 1450 749.5 1450 c 128,-1,24
749.5 1180 m 128,-1,32
 586 1180 586 1180 501 1062 c 128,-1,33
 416 944 416 944 416 716.5 c 128,-1,34
 416 489 416 489 501 370.5 c 128,-1,35
 586 252 586 252 749.5 252 c 128,-1,36
 913 252 913 252 997 370.5 c 128,-1,37
 1081 489 1081 489 1081 716.5 c 128,-1,38
 1081 944 1081 944 997 1062 c 128,-1,31
 913 1180 913 1180 749.5 1180 c 128,-1,32
756 -164 m 128,-1,40
 879 -164 879 -164 879 -229 c 2,41,-1
 879 -352 l 2,42,43
 879 -418 879 -418 756 -418 c 128,-1,44
 633 -418 633 -418 633 -352 c 2,45,-1
 633 -229 l 2,46,39
 633 -164 633 -164 756 -164 c 128,-1,40
EndSplineSet
Position2: "'cpsp' Capital Spacing lookup 0 subtable" dx=10 dy=0 dh=20 dv=0
EndChar

StartChar: Ocircumflexgrave
Encoding: 7890 7890 111
Width: 1497
GlyphClass: 2
Flags: MW
HStem: -16 268<640 859 640 961> 1180 270<640 859> 1534 299<496 762 510 762 739 915 739 961> 1688 285<856 1090>
VStem: 92 324<566 867 566 953> 1081 324<566 867>
AnchorPoint: "Anchor-1" 1024 1698 basechar 0
AnchorPoint: "Anchor-0" 752 0 basechar 0
LayerCount: 2
Fore
SplineSet
887 1972 m 0,0,1
 1037 1972 1037 1972 1061 1917 c 0,2,3
 1129 1749 1129 1749 1128.5 1718.5 c 128,-1,4
 1128 1688 1128 1688 1055 1688 c 0,5,6
 981 1688 981 1688 943 1735 c 0,7,8
 905 1782 905 1782 858 1842 c 0,9,10
 811 1902 811 1902 801 1916.5 c 128,-1,11
 791 1931 791 1931 791 1944 c 0,12,13
 791 1972 791 1972 887 1972 c 0,0,1
739 1833 m 2,14,-1
 762 1833 l 2,15,16
 844 1833 844 1833 866 1794 c 2,17,-1
 989 1585 l 2,18,19
 1001 1567 1001 1567 1001 1554 c 0,20,21
 1001 1534 1001 1534 961 1534 c 2,22,-1
 915 1534 l 2,23,24
 792 1534 792 1534 776 1583 c 2,25,-1
 750 1665 l 1,26,-1
 692 1585 l 2,27,28
 655 1534 655 1534 555 1534 c 2,29,-1
 510 1534 l 2,30,31
 469 1534 469 1534 469 1554 c 0,32,33
 469 1566 469 1566 481 1585 c 2,34,-1
 614 1794 l 2,35,36
 639 1833 639 1833 739 1833 c 2,14,-1
749.5 1450 m 128,-1,38
 1067 1450 1067 1450 1236 1260.5 c 128,-1,39
 1405 1071 1405 1071 1405 716.5 c 128,-1,40
 1405 362 1405 362 1236 173 c 128,-1,41
 1067 -16 1067 -16 749.5 -16 c 128,-1,42
 432 -16 432 -16 262 173 c 128,-1,43
 92 362 92 362 92 716.5 c 128,-1,44
 92 1071 92 1071 262 1260.5 c 128,-1,37
 432 1450 432 1450 749.5 1450 c 128,-1,38
749.5 1180 m 128,-1,46
 586 1180 586 1180 501 1062 c 128,-1,47
 416 944 416 944 416 716.5 c 128,-1,48
 416 489 416 489 501 370.5 c 128,-1,49
 586 252 586 252 749.5 252 c 128,-1,50
 913 252 913 252 997 370.5 c 128,-1,51
 1081 489 1081 489 1081 716.5 c 128,-1,52
 1081 944 1081 944 997 1062 c 128,-1,45
 913 1180 913 1180 749.5 1180 c 128,-1,46
EndSplineSet
Position2: "'cpsp' Capital Spacing lookup 0 subtable" dx=10 dy=0 dh=20 dv=0
EndChar

StartChar: Ocircumflexhookabove
Encoding: 7892 7892 112
Width: 1497
GlyphClass: 2
Flags: MW
HStem: -16 268<640 859 640 961> 1180 270<640 859> 1534 299<496 762 510 762 886 902 739 915 739 961> 1833 143<885 1055>
VStem: 92 324<566 867 566 953> 1044 141<1825 1844> 1081 324<566 867>
AnchorPoint: "Anchor-1" 1024 1698 basechar 0
AnchorPoint: "Anchor-0" 752 0 basechar 0
LayerCount: 2
Fore
SplineSet
1044 1833 m 0,0,1
 1044 1868 1044 1868 1003.5 1868 c 128,-1,2
 963 1868 963 1868 930 1850.5 c 128,-1,3
 897 1833 897 1833 889 1833 c 128,-1,4
 881 1833 881 1833 856 1864.5 c 128,-1,5
 831 1896 831 1896 831 1917.5 c 128,-1,6
 831 1939 831 1939 885.5 1957.5 c 128,-1,7
 940 1976 940 1976 1011.5 1976 c 128,-1,8
 1083 1976 1083 1976 1134.5 1939.5 c 128,-1,9
 1186 1903 1186 1903 1186 1845.5 c 128,-1,10
 1186 1788 1186 1788 1131.5 1744 c 128,-1,11
 1077 1700 1077 1700 1034 1700 c 128,-1,12
 991 1700 991 1700 966.5 1712 c 128,-1,13
 942 1724 942 1724 942 1743 c 0,14,15
 942 1761 942 1761 1009 1789 c 0,16,17
 1044 1804 1044 1804 1044 1833 c 0,0,1
739 1833 m 2,18,-1
 762 1833 l 2,19,20
 844 1833 844 1833 866 1794 c 2,21,-1
 989 1585 l 2,22,23
 1001 1567 1001 1567 1001 1554 c 0,24,25
 1001 1534 1001 1534 961 1534 c 2,26,-1
 915 1534 l 2,27,28
 792 1534 792 1534 776 1583 c 2,29,-1
 750 1665 l 1,30,-1
 692 1585 l 2,31,32
 655 1534 655 1534 555 1534 c 2,33,-1
 510 1534 l 2,34,35
 469 1534 469 1534 469 1554 c 0,36,37
 469 1566 469 1566 481 1585 c 2,38,-1
 614 1794 l 2,39,40
 639 1833 639 1833 739 1833 c 2,18,-1
749.5 1450 m 128,-1,42
 1067 1450 1067 1450 1236 1260.5 c 128,-1,43
 1405 1071 1405 1071 1405 716.5 c 128,-1,44
 1405 362 1405 362 1236 173 c 128,-1,45
 1067 -16 1067 -16 749.5 -16 c 128,-1,46
 432 -16 432 -16 262 173 c 128,-1,47
 92 362 92 362 92 716.5 c 128,-1,48
 92 1071 92 1071 262 1260.5 c 128,-1,41
 432 1450 432 1450 749.5 1450 c 128,-1,42
749.5 1180 m 128,-1,50
 586 1180 586 1180 501 1062 c 128,-1,51
 416 944 416 944 416 716.5 c 128,-1,52
 416 489 416 489 501 370.5 c 128,-1,53
 586 252 586 252 749.5 252 c 128,-1,54
 913 252 913 252 997 370.5 c 128,-1,55
 1081 489 1081 489 1081 716.5 c 128,-1,56
 1081 944 1081 944 997 1062 c 128,-1,49
 913 1180 913 1180 749.5 1180 c 128,-1,50
EndSplineSet
Position2: "'cpsp' Capital Spacing lookup 0 subtable" dx=10 dy=0 dh=20 dv=0
EndChar

StartChar: Ocircumflextilde
Encoding: 7894 7894 113
Width: 1497
GlyphClass: 2
Flags: MW
HStem: -16 268<640 859 640 961> 1180 270<640 859> 1534 250<496 762 510 762 739 946 739 991> 1847 176<863 890> 1903 176<613 643>
VStem: 92 324<566 867 566 953> 1081 324<566 867>
AnchorPoint: "Anchor-1" 1018 1714 basechar 0
AnchorPoint: "Anchor-0" 752 0 basechar 0
LayerCount: 2
Fore
SplineSet
981 2054 m 128,-1,1
 1028 2085 1028 2085 1063 2041 c 128,-1,2
 1098 1997 1098 1997 1049 1931 c 1,3,4
 971 1847 971 1847 852 1847 c 0,5,6
 786 1847 786 1847 727 1875 c 128,-1,7
 668 1903 668 1903 625 1903 c 128,-1,8
 582 1903 582 1903 535.5 1876 c 128,-1,9
 489 1849 489 1849 453.5 1898.5 c 128,-1,10
 418 1948 418 1948 461 1995 c 0,11,12
 555 2079 555 2079 651 2079 c 0,13,14
 717 2079 717 2079 781.5 2051 c 128,-1,15
 846 2023 846 2023 890 2023 c 128,-1,0
 934 2023 934 2023 981 2054 c 128,-1,1
739 1784 m 2,16,-1
 762 1784 l 2,17,18
 850 1784 850 1784 887 1745 c 1,19,-1
 1020 1585 l 1,20,21
 1032 1567 1032 1567 1032 1554 c 0,22,23
 1032 1534 1032 1534 991 1534 c 2,24,-1
 946 1534 l 2,25,26
 887 1534 887 1534 807 1583 c 1,27,-1
 750 1638 l 1,28,-1
 692 1585 l 2,29,30
 688 1583 688 1583 670.5 1572 c 128,-1,31
 653 1561 653 1561 648 1558.5 c 128,-1,32
 643 1556 643 1556 628.5 1549 c 128,-1,33
 614 1542 614 1542 605 1540 c 0,34,35
 577 1534 577 1534 555 1534 c 2,36,-1
 510 1534 l 2,37,38
 469 1534 469 1534 469 1554 c 0,39,40
 469 1566 469 1566 481 1585 c 1,41,-1
 614 1745 l 1,42,43
 651 1784 651 1784 739 1784 c 2,16,-1
749.5 1450 m 128,-1,45
 1067 1450 1067 1450 1236 1260.5 c 128,-1,46
 1405 1071 1405 1071 1405 716.5 c 128,-1,47
 1405 362 1405 362 1236 173 c 128,-1,48
 1067 -16 1067 -16 749.5 -16 c 128,-1,49
 432 -16 432 -16 262 173 c 128,-1,50
 92 362 92 362 92 716.5 c 128,-1,51
 92 1071 92 1071 262 1260.5 c 128,-1,44
 432 1450 432 1450 749.5 1450 c 128,-1,45
749.5 1180 m 128,-1,53
 586 1180 586 1180 501 1062 c 128,-1,54
 416 944 416 944 416 716.5 c 128,-1,55
 416 489 416 489 501 370.5 c 128,-1,56
 586 252 586 252 749.5 252 c 128,-1,57
 913 252 913 252 997 370.5 c 128,-1,58
 1081 489 1081 489 1081 716.5 c 128,-1,59
 1081 944 1081 944 997 1062 c 128,-1,52
 913 1180 913 1180 749.5 1180 c 128,-1,53
EndSplineSet
Position2: "'cpsp' Capital Spacing lookup 0 subtable" dx=10 dy=0 dh=20 dv=0
EndChar

StartChar: Odieresis
Encoding: 214 214 114
Width: 1497
GlyphClass: 2
Flags: MW
HStem: -16 268<640 859 640 961> 1180 270<640 859> 1546 254<522 608 891 977>
VStem: 92 324<566 867 566 953> 442 246<1612 1735 1590 1756> 811 246<1612 1735 1590 1756> 1081 324<566 867>
AnchorPoint: "Anchor-1" 762 1796 basechar 0
AnchorPoint: "Anchor-0" 752 0 basechar 0
LayerCount: 2
Fore
SplineSet
565 1800 m 128,-1,1
 688 1800 688 1800 688 1735 c 2,2,-1
 688 1612 l 2,3,4
 688 1546 688 1546 565 1546 c 128,-1,5
 442 1546 442 1546 442 1612 c 2,6,-1
 442 1735 l 2,7,0
 442 1800 442 1800 565 1800 c 128,-1,1
934 1800 m 128,-1,9
 1057 1800 1057 1800 1057 1735 c 2,10,-1
 1057 1612 l 2,11,12
 1057 1546 1057 1546 934 1546 c 128,-1,13
 811 1546 811 1546 811 1612 c 2,14,-1
 811 1735 l 2,15,8
 811 1800 811 1800 934 1800 c 128,-1,9
749.5 1450 m 128,-1,17
 1067 1450 1067 1450 1236 1260.5 c 128,-1,18
 1405 1071 1405 1071 1405 716.5 c 128,-1,19
 1405 362 1405 362 1236 173 c 128,-1,20
 1067 -16 1067 -16 749.5 -16 c 128,-1,21
 432 -16 432 -16 262 173 c 128,-1,22
 92 362 92 362 92 716.5 c 128,-1,23
 92 1071 92 1071 262 1260.5 c 128,-1,16
 432 1450 432 1450 749.5 1450 c 128,-1,17
749.5 1180 m 128,-1,25
 586 1180 586 1180 501 1062 c 128,-1,26
 416 944 416 944 416 716.5 c 128,-1,27
 416 489 416 489 501 370.5 c 128,-1,28
 586 252 586 252 749.5 252 c 128,-1,29
 913 252 913 252 997 370.5 c 128,-1,30
 1081 489 1081 489 1081 716.5 c 128,-1,31
 1081 944 1081 944 997 1062 c 128,-1,24
 913 1180 913 1180 749.5 1180 c 128,-1,25
EndSplineSet
Position2: "'cpsp' Capital Spacing lookup 0 subtable" dx=10 dy=0 dh=20 dv=0
EndChar

StartChar: Odotbelow
Encoding: 7884 7884 115
Width: 1497
GlyphClass: 2
Flags: MW
HStem: -418 254<713 799> -16 268<640 859 640 961> 1180 270<640 859>
VStem: 92 324<566 867 566 953> 633 246<-352 -229 -374 -208> 1081 324<566 867>
AnchorPoint: "Anchor-1" 760 -168 basechar 0
AnchorPoint: "Anchor-0" 758 -416 basechar 0
LayerCount: 2
Fore
SplineSet
749.5 1450 m 128,-1,1
 1067 1450 1067 1450 1236 1260.5 c 128,-1,2
 1405 1071 1405 1071 1405 716.5 c 128,-1,3
 1405 362 1405 362 1236 173 c 128,-1,4
 1067 -16 1067 -16 749.5 -16 c 128,-1,5
 432 -16 432 -16 262 173 c 128,-1,6
 92 362 92 362 92 716.5 c 128,-1,7
 92 1071 92 1071 262 1260.5 c 128,-1,0
 432 1450 432 1450 749.5 1450 c 128,-1,1
749.5 1180 m 128,-1,9
 586 1180 586 1180 501 1062 c 128,-1,10
 416 944 416 944 416 716.5 c 128,-1,11
 416 489 416 489 501 370.5 c 128,-1,12
 586 252 586 252 749.5 252 c 128,-1,13
 913 252 913 252 997 370.5 c 128,-1,14
 1081 489 1081 489 1081 716.5 c 128,-1,15
 1081 944 1081 944 997 1062 c 128,-1,8
 913 1180 913 1180 749.5 1180 c 128,-1,9
756 -164 m 128,-1,17
 879 -164 879 -164 879 -229 c 2,18,-1
 879 -352 l 2,19,20
 879 -418 879 -418 756 -418 c 128,-1,21
 633 -418 633 -418 633 -352 c 2,22,-1
 633 -229 l 2,23,16
 633 -164 633 -164 756 -164 c 128,-1,17
EndSplineSet
Position2: "'cpsp' Capital Spacing lookup 0 subtable" dx=10 dy=0 dh=20 dv=0
EndChar

StartChar: Ograve
Encoding: 210 210 116
Width: 1497
GlyphClass: 2
Flags: MW
HStem: -16 268<640 859 640 961> 1180 270<640 859> 1540 326<557 866>
VStem: 92 324<566 867 566 953> 1081 324<566 867>
AnchorPoint: "Anchor-1" 743 1796 basechar 0
AnchorPoint: "Anchor-0" 752 0 basechar 0
LayerCount: 2
Fore
SplineSet
475 1837 m 0,0,1
 475 1866 475 1866 608 1866 c 128,-1,2
 741 1866 741 1866 772 1810 c 0,3,4
 797 1767 797 1767 821.5 1724 c 128,-1,5
 846 1681 846 1681 860 1659.5 c 128,-1,6
 874 1638 874 1638 886 1618 c 0,7,8
 905 1583 905 1583 905 1571 c 0,9,10
 905 1540 905 1540 842 1540 c 0,11,12
 736 1540 736 1540 681.5 1599.5 c 128,-1,13
 627 1659 627 1659 562.5 1727.5 c 128,-1,14
 498 1796 498 1796 486.5 1810.5 c 128,-1,15
 475 1825 475 1825 475 1837 c 0,0,1
749.5 1450 m 128,-1,17
 1067 1450 1067 1450 1236 1260.5 c 128,-1,18
 1405 1071 1405 1071 1405 716.5 c 128,-1,19
 1405 362 1405 362 1236 173 c 128,-1,20
 1067 -16 1067 -16 749.5 -16 c 128,-1,21
 432 -16 432 -16 262 173 c 128,-1,22
 92 362 92 362 92 716.5 c 128,-1,23
 92 1071 92 1071 262 1260.5 c 128,-1,16
 432 1450 432 1450 749.5 1450 c 128,-1,17
749.5 1180 m 128,-1,25
 586 1180 586 1180 501 1062 c 128,-1,26
 416 944 416 944 416 716.5 c 128,-1,27
 416 489 416 489 501 370.5 c 128,-1,28
 586 252 586 252 749.5 252 c 128,-1,29
 913 252 913 252 997 370.5 c 128,-1,30
 1081 489 1081 489 1081 716.5 c 128,-1,31
 1081 944 1081 944 997 1062 c 128,-1,24
 913 1180 913 1180 749.5 1180 c 128,-1,25
EndSplineSet
Position2: "'cpsp' Capital Spacing lookup 0 subtable" dx=10 dy=0 dh=20 dv=0
EndChar

StartChar: Ohookabove
Encoding: 7886 7886 117
Width: 1497
GlyphClass: 2
Flags: MW
HStem: -16 268<640 859 640 961> 1180 270<640 859> 1776 125<740 776>
VStem: 92 324<566 867 566 953> 825 178<1700 1745> 1081 324<566 867>
AnchorPoint: "Anchor-1" 752 1796 basechar 0
AnchorPoint: "Anchor-0" 752 0 basechar 0
LayerCount: 2
Fore
SplineSet
756.5 1643.5 m 128,-1,1
 825 1696 825 1696 825 1723.5 c 128,-1,2
 825 1751 825 1751 805.5 1763.5 c 128,-1,3
 786 1776 786 1776 759.5 1776 c 128,-1,4
 733 1776 733 1776 706.5 1763.5 c 128,-1,5
 680 1751 680 1751 671 1751 c 128,-1,6
 662 1751 662 1751 637 1783 c 128,-1,7
 612 1815 612 1815 612 1836.5 c 128,-1,8
 612 1858 612 1858 667.5 1879.5 c 128,-1,9
 723 1901 723 1901 776 1901 c 0,10,11
 885 1901 885 1901 944.5 1858 c 128,-1,12
 1004 1815 1004 1815 1004 1741 c 128,-1,13
 1004 1667 1004 1667 921 1598.5 c 128,-1,14
 838 1530 838 1530 801 1530 c 128,-1,15
 764 1530 764 1530 726 1547.5 c 128,-1,16
 688 1565 688 1565 688 1578 c 128,-1,0
 688 1591 688 1591 756.5 1643.5 c 128,-1,1
749.5 1450 m 128,-1,18
 1067 1450 1067 1450 1236 1260.5 c 128,-1,19
 1405 1071 1405 1071 1405 716.5 c 128,-1,20
 1405 362 1405 362 1236 173 c 128,-1,21
 1067 -16 1067 -16 749.5 -16 c 128,-1,22
 432 -16 432 -16 262 173 c 128,-1,23
 92 362 92 362 92 716.5 c 128,-1,24
 92 1071 92 1071 262 1260.5 c 128,-1,17
 432 1450 432 1450 749.5 1450 c 128,-1,18
749.5 1180 m 128,-1,26
 586 1180 586 1180 501 1062 c 128,-1,27
 416 944 416 944 416 716.5 c 128,-1,28
 416 489 416 489 501 370.5 c 128,-1,29
 586 252 586 252 749.5 252 c 128,-1,30
 913 252 913 252 997 370.5 c 128,-1,31
 1081 489 1081 489 1081 716.5 c 128,-1,32
 1081 944 1081 944 997 1062 c 128,-1,25
 913 1180 913 1180 749.5 1180 c 128,-1,26
EndSplineSet
Position2: "'cpsp' Capital Spacing lookup 0 subtable" dx=10 dy=0 dh=20 dv=0
EndChar

StartChar: Ohorn
Encoding: 416 416 118
Width: 1497
GlyphClass: 2
Flags: MW
HStem: -16 268<640 859 640 961> 1180 217<640 1090> 1180 270<640 805 539 859>
VStem: 92 324<566 867 566 953> 1081 324<566 854 480 867> 1186 164<1454 1493>
AnchorPoint: "Anchor-1" 788 1438 basechar 0
AnchorPoint: "Anchor-0" 752 0 basechar 0
LayerCount: 2
Fore
SplineSet
1178 1317 m 1,0,1
 1405 1131 1405 1131 1405 717 c 0,2,3
 1405 363 1405 363 1236 173.5 c 128,-1,4
 1067 -16 1067 -16 749.5 -16 c 128,-1,5
 432 -16 432 -16 262 173 c 128,-1,6
 92 362 92 362 92 716.5 c 128,-1,7
 92 1071 92 1071 262 1260.5 c 128,-1,8
 432 1450 432 1450 750 1450 c 0,9,10
 914 1450 914 1450 1042 1397 c 1,11,-1
 1090 1397 l 2,12,13
 1186 1397 1186 1397 1186 1470 c 0,14,15
 1186 1495 1186 1495 1159.5 1531 c 128,-1,16
 1133 1567 1133 1567 1133 1584 c 0,17,18
 1133 1601 1133 1601 1155 1616 c 2,19,-1
 1221 1661 l 2,20,21
 1233 1671 1233 1671 1253 1671 c 0,22,23
 1290 1671 1290 1671 1320 1611.5 c 128,-1,24
 1350 1552 1350 1552 1350 1501 c 0,25,26
 1350 1350 1350 1350 1178 1317 c 1,0,1
749.5 252 m 128,-1,28
 913 252 913 252 997 370.5 c 128,-1,29
 1081 489 1081 489 1081 716.5 c 128,-1,30
 1081 944 1081 944 997 1062 c 128,-1,31
 913 1180 913 1180 749.5 1180 c 128,-1,32
 586 1180 586 1180 501 1062 c 128,-1,33
 416 944 416 944 416 716.5 c 128,-1,34
 416 489 416 489 501 370.5 c 128,-1,27
 586 252 586 252 749.5 252 c 128,-1,28
EndSplineSet
Position2: "'cpsp' Capital Spacing lookup 0 subtable" dx=10 dy=0 dh=20 dv=0
EndChar

StartChar: Ohornacute
Encoding: 7898 7898 119
Width: 1497
GlyphClass: 2
Flags: MW
HStem: -16 268<640 859 640 961> 1180 217<640 1090> 1180 270<640 805 539 859> 1544 326<684 993>
VStem: 92 324<566 867 566 953> 1081 324<566 854 480 867> 1186 164<1454 1493>
AnchorPoint: "Anchor-1" 788 1438 basechar 0
AnchorPoint: "Anchor-0" 752 0 basechar 0
LayerCount: 2
Fore
SplineSet
709 1544 m 0,0,1
 646 1544 646 1544 645 1575 c 0,2,3
 645 1597 645 1597 675 1641.5 c 128,-1,4
 705 1686 705 1686 729.5 1729 c 128,-1,5
 754 1772 754 1772 778 1815 c 0,6,7
 809 1870 809 1870 942 1870 c 128,-1,8
 1075 1870 1075 1870 1075 1841 c 0,9,10
 1075 1829 1075 1829 1063 1812.5 c 128,-1,11
 1051 1796 1051 1796 1014 1758 c 128,-1,12
 977 1720 977 1720 962.5 1705 c 128,-1,13
 948 1690 948 1690 919.5 1658 c 128,-1,14
 891 1626 891 1626 862 1595 c 0,15,16
 815 1544 815 1544 709 1544 c 0,0,1
1178 1317 m 1,17,18
 1405 1131 1405 1131 1405 717 c 0,19,20
 1405 363 1405 363 1236 173.5 c 128,-1,21
 1067 -16 1067 -16 749.5 -16 c 128,-1,22
 432 -16 432 -16 262 173 c 128,-1,23
 92 362 92 362 92 716.5 c 128,-1,24
 92 1071 92 1071 262 1260.5 c 128,-1,25
 432 1450 432 1450 750 1450 c 0,26,27
 914 1450 914 1450 1042 1397 c 1,28,-1
 1090 1397 l 2,29,30
 1186 1397 1186 1397 1186 1470 c 0,31,32
 1186 1495 1186 1495 1159.5 1531 c 128,-1,33
 1133 1567 1133 1567 1133 1584.5 c 128,-1,34
 1133 1602 1133 1602 1155 1616 c 2,35,-1
 1221 1661 l 2,36,37
 1233 1671 1233 1671 1253 1671 c 0,38,39
 1290 1671 1290 1671 1320 1611.5 c 128,-1,40
 1350 1552 1350 1552 1350 1501 c 0,41,42
 1350 1350 1350 1350 1178 1317 c 1,17,18
749.5 252 m 128,-1,44
 913 252 913 252 997 370.5 c 128,-1,45
 1081 489 1081 489 1081 716.5 c 128,-1,46
 1081 944 1081 944 997 1062 c 128,-1,47
 913 1180 913 1180 749.5 1180 c 128,-1,48
 586 1180 586 1180 501 1062 c 128,-1,49
 416 944 416 944 416 716.5 c 128,-1,50
 416 489 416 489 501 370.5 c 128,-1,43
 586 252 586 252 749.5 252 c 128,-1,44
EndSplineSet
Position2: "'cpsp' Capital Spacing lookup 0 subtable" dx=10 dy=0 dh=20 dv=0
EndChar

StartChar: Ohorndotbelow
Encoding: 7906 7906 120
Width: 1497
GlyphClass: 2
Flags: MW
HStem: -418 254<713 799> -16 268<640 859 640 961> 1180 217<640 1090> 1180 270<640 805 539 859>
VStem: 92 324<566 867 566 953> 633 246<-352 -229 -374 -208> 1081 324<566 854 480 867> 1186 164<1454 1493>
AnchorPoint: "Anchor-1" 788 1438 basechar 0
AnchorPoint: "Anchor-0" 758 -416 basechar 0
LayerCount: 2
Fore
SplineSet
1178 1317 m 1,0,1
 1405 1131 1405 1131 1405 717 c 0,2,3
 1405 363 1405 363 1236 173.5 c 128,-1,4
 1067 -16 1067 -16 749.5 -16 c 128,-1,5
 432 -16 432 -16 262 173 c 128,-1,6
 92 362 92 362 92 716.5 c 128,-1,7
 92 1071 92 1071 262 1260.5 c 128,-1,8
 432 1450 432 1450 750 1450 c 0,9,10
 914 1450 914 1450 1042 1397 c 1,11,-1
 1090 1397 l 2,12,13
 1186 1397 1186 1397 1186 1470 c 0,14,15
 1186 1495 1186 1495 1159.5 1531 c 128,-1,16
 1133 1567 1133 1567 1133 1584 c 0,17,18
 1133 1601 1133 1601 1155 1616 c 2,19,-1
 1221 1661 l 2,20,21
 1233 1671 1233 1671 1253 1671 c 0,22,23
 1290 1671 1290 1671 1320 1611.5 c 128,-1,24
 1350 1552 1350 1552 1350 1501 c 0,25,26
 1350 1350 1350 1350 1178 1317 c 1,0,1
749.5 252 m 128,-1,28
 913 252 913 252 997 370.5 c 128,-1,29
 1081 489 1081 489 1081 716.5 c 128,-1,30
 1081 944 1081 944 997 1062 c 128,-1,31
 913 1180 913 1180 749.5 1180 c 128,-1,32
 586 1180 586 1180 501 1062 c 128,-1,33
 416 944 416 944 416 716.5 c 128,-1,34
 416 489 416 489 501 370.5 c 128,-1,27
 586 252 586 252 749.5 252 c 128,-1,28
756 -164 m 128,-1,36
 879 -164 879 -164 879 -229 c 2,37,-1
 879 -352 l 2,38,39
 879 -418 879 -418 756 -418 c 128,-1,40
 633 -418 633 -418 633 -352 c 2,41,-1
 633 -229 l 2,42,35
 633 -164 633 -164 756 -164 c 128,-1,36
EndSplineSet
Position2: "'cpsp' Capital Spacing lookup 0 subtable" dx=10 dy=0 dh=20 dv=0
EndChar

StartChar: Ohorngrave
Encoding: 7900 7900 121
Width: 1497
GlyphClass: 2
Flags: MW
HStem: -16 268<640 859 640 961> 1180 217<640 1090> 1180 270<640 805 539 859> 1544 326<596 905>
VStem: 92 324<566 867 566 953> 1081 324<566 854 480 867> 1186 164<1454 1493>
AnchorPoint: "Anchor-1" 788 1438 basechar 0
AnchorPoint: "Anchor-0" 752 0 basechar 0
LayerCount: 2
Fore
SplineSet
881 1544 m 0,0,1
 775 1544 775 1544 720.5 1603.5 c 128,-1,2
 666 1663 666 1663 601.5 1731.5 c 128,-1,3
 537 1800 537 1800 525.5 1814.5 c 128,-1,4
 514 1829 514 1829 514 1841 c 0,5,6
 514 1870 514 1870 647 1870 c 128,-1,7
 780 1870 780 1870 811 1815 c 0,8,9
 836 1772 836 1772 860.5 1729 c 128,-1,10
 885 1686 885 1686 899 1664 c 128,-1,11
 913 1642 913 1642 925 1622 c 0,12,13
 944 1587 944 1587 944 1575 c 0,14,15
 944 1544 944 1544 881 1544 c 0,0,1
1178 1317 m 1,16,17
 1405 1131 1405 1131 1405 717 c 0,18,19
 1405 363 1405 363 1236 173.5 c 128,-1,20
 1067 -16 1067 -16 749.5 -16 c 128,-1,21
 432 -16 432 -16 262 173 c 128,-1,22
 92 362 92 362 92 716.5 c 128,-1,23
 92 1071 92 1071 262 1260.5 c 128,-1,24
 432 1450 432 1450 750 1450 c 0,25,26
 914 1450 914 1450 1042 1397 c 1,27,-1
 1090 1397 l 2,28,29
 1186 1397 1186 1397 1186 1470 c 0,30,31
 1186 1495 1186 1495 1159.5 1531 c 128,-1,32
 1133 1567 1133 1567 1133 1584.5 c 128,-1,33
 1133 1602 1133 1602 1155 1616 c 2,34,-1
 1221 1661 l 2,35,36
 1233 1671 1233 1671 1253 1671 c 0,37,38
 1290 1671 1290 1671 1320 1611.5 c 128,-1,39
 1350 1552 1350 1552 1350 1501 c 0,40,41
 1350 1350 1350 1350 1178 1317 c 1,16,17
749.5 252 m 128,-1,43
 913 252 913 252 997 370.5 c 128,-1,44
 1081 489 1081 489 1081 716.5 c 128,-1,45
 1081 944 1081 944 997 1062 c 128,-1,46
 913 1180 913 1180 749.5 1180 c 128,-1,47
 586 1180 586 1180 501 1062 c 128,-1,48
 416 944 416 944 416 716.5 c 128,-1,49
 416 489 416 489 501 370.5 c 128,-1,42
 586 252 586 252 749.5 252 c 128,-1,43
EndSplineSet
Position2: "'cpsp' Capital Spacing lookup 0 subtable" dx=10 dy=0 dh=20 dv=0
EndChar

StartChar: Ohornhookabove
Encoding: 7902 7902 122
Width: 1497
GlyphClass: 2
Flags: MW
HStem: -16 268<640 859 640 961> 1180 217<640 1090> 1180 270<640 805 539 859> 1780 125<779 815>
VStem: 92 324<566 867 566 953> 864 178<1704 1749> 1081 324<566 854 480 867> 1186 164<1454 1493>
AnchorPoint: "Anchor-1" 788 1438 basechar 0
AnchorPoint: "Anchor-0" 752 0 basechar 0
LayerCount: 2
Fore
SplineSet
745.5 1767.5 m 128,-1,1
 719 1755 719 1755 709.5 1755 c 128,-1,2
 700 1755 700 1755 675.5 1787 c 128,-1,3
 651 1819 651 1819 651 1840.5 c 128,-1,4
 651 1862 651 1862 706.5 1883.5 c 128,-1,5
 762 1905 762 1905 815 1905 c 0,6,7
 924 1905 924 1905 983 1862 c 128,-1,8
 1042 1819 1042 1819 1042 1745 c 128,-1,9
 1042 1671 1042 1671 959.5 1602.5 c 128,-1,10
 877 1534 877 1534 840 1534 c 128,-1,11
 803 1534 803 1534 765 1551.5 c 128,-1,12
 727 1569 727 1569 727 1582 c 128,-1,13
 727 1595 727 1595 795.5 1647.5 c 128,-1,14
 864 1700 864 1700 864 1727.5 c 128,-1,15
 864 1755 864 1755 844.5 1767.5 c 128,-1,16
 825 1780 825 1780 798.5 1780 c 128,-1,0
 772 1780 772 1780 745.5 1767.5 c 128,-1,1
1178 1317 m 1,17,18
 1405 1131 1405 1131 1405 717 c 0,19,20
 1405 363 1405 363 1236 173.5 c 128,-1,21
 1067 -16 1067 -16 749.5 -16 c 128,-1,22
 432 -16 432 -16 262 173 c 128,-1,23
 92 362 92 362 92 716.5 c 128,-1,24
 92 1071 92 1071 262 1260.5 c 128,-1,25
 432 1450 432 1450 750 1450 c 0,26,27
 914 1450 914 1450 1042 1397 c 1,28,-1
 1090 1397 l 2,29,30
 1186 1397 1186 1397 1186 1470 c 0,31,32
 1186 1495 1186 1495 1159.5 1531 c 128,-1,33
 1133 1567 1133 1567 1133 1584.5 c 128,-1,34
 1133 1602 1133 1602 1155 1616 c 2,35,-1
 1221 1661 l 2,36,37
 1233 1671 1233 1671 1253 1671 c 0,38,39
 1290 1671 1290 1671 1320 1611.5 c 128,-1,40
 1350 1552 1350 1552 1350 1501 c 0,41,42
 1350 1350 1350 1350 1178 1317 c 1,17,18
749.5 252 m 128,-1,44
 913 252 913 252 997 370.5 c 128,-1,45
 1081 489 1081 489 1081 716.5 c 128,-1,46
 1081 944 1081 944 997 1062 c 128,-1,47
 913 1180 913 1180 749.5 1180 c 128,-1,48
 586 1180 586 1180 501 1062 c 128,-1,49
 416 944 416 944 416 716.5 c 128,-1,50
 416 489 416 489 501 370.5 c 128,-1,43
 586 252 586 252 749.5 252 c 128,-1,44
EndSplineSet
Position2: "'cpsp' Capital Spacing lookup 0 subtable" dx=10 dy=0 dh=20 dv=0
EndChar

StartChar: Ohorntilde
Encoding: 7904 7904 123
Width: 1497
GlyphClass: 2
Flags: MW
HStem: -16 268<640 859 640 961> 1180 217<640 1090> 1180 270<640 805 539 859> 1554 176<890 916> 1610 176<643 672>
VStem: 92 324<566 867 566 953> 1081 324<566 854 480 867> 1186 164<1454 1493>
AnchorPoint: "Anchor-1" 788 1438 basechar 0
AnchorPoint: "Anchor-0" 752 0 basechar 0
LayerCount: 2
Fore
SplineSet
879 1554 m 0,0,1
 816 1554 816 1554 756 1582 c 128,-1,2
 696 1610 696 1610 654 1610 c 128,-1,3
 612 1610 612 1610 566 1583 c 128,-1,4
 520 1556 520 1556 484.5 1605.5 c 128,-1,5
 449 1655 449 1655 492 1702 c 0,6,7
 586 1786 586 1786 667 1786 c 128,-1,8
 748 1786 748 1786 810 1758.5 c 128,-1,9
 872 1731 872 1731 917.5 1731 c 128,-1,10
 963 1731 963 1731 1007 1762.5 c 128,-1,11
 1051 1794 1051 1794 1086.5 1749 c 128,-1,12
 1122 1704 1122 1704 1073 1638 c 1,13,14
 996 1554 996 1554 879 1554 c 0,0,1
1178 1317 m 1,15,16
 1405 1131 1405 1131 1405 717 c 0,17,18
 1405 363 1405 363 1236 173.5 c 128,-1,19
 1067 -16 1067 -16 749.5 -16 c 128,-1,20
 432 -16 432 -16 262 173 c 128,-1,21
 92 362 92 362 92 716.5 c 128,-1,22
 92 1071 92 1071 262 1260.5 c 128,-1,23
 432 1450 432 1450 750 1450 c 0,24,25
 914 1450 914 1450 1042 1397 c 1,26,-1
 1090 1397 l 2,27,28
 1186 1397 1186 1397 1186 1470 c 0,29,30
 1186 1495 1186 1495 1159.5 1531 c 128,-1,31
 1133 1567 1133 1567 1133 1584.5 c 128,-1,32
 1133 1602 1133 1602 1155 1616 c 2,33,-1
 1221 1661 l 2,34,35
 1233 1671 1233 1671 1253 1671 c 0,36,37
 1290 1671 1290 1671 1320 1611.5 c 128,-1,38
 1350 1552 1350 1552 1350 1501 c 0,39,40
 1350 1350 1350 1350 1178 1317 c 1,15,16
749.5 252 m 128,-1,42
 913 252 913 252 997 370.5 c 128,-1,43
 1081 489 1081 489 1081 716.5 c 128,-1,44
 1081 944 1081 944 997 1062 c 128,-1,45
 913 1180 913 1180 749.5 1180 c 128,-1,46
 586 1180 586 1180 501 1062 c 128,-1,47
 416 944 416 944 416 716.5 c 128,-1,48
 416 489 416 489 501 370.5 c 128,-1,41
 586 252 586 252 749.5 252 c 128,-1,42
EndSplineSet
Position2: "'cpsp' Capital Spacing lookup 0 subtable" dx=10 dy=0 dh=20 dv=0
EndChar

StartChar: Ohungarumlaut
Encoding: 336 336 124
Width: 1497
GlyphClass: 2
Flags: MW
HStem: -16 268<640 859 640 961> 1180 270<640 859> 1540 326<473 782 700 921>
VStem: 92 324<566 867 566 953> 1081 324<566 867>
AnchorPoint: "Anchor-1" 752 1796 basechar 0
AnchorPoint: "Anchor-0" 752 0 basechar 0
LayerCount: 2
Fore
SplineSet
567 1810 m 0,0,1
 598 1865 598 1865 731 1865.5 c 128,-1,2
 864 1866 864 1866 864 1837 c 0,3,4
 864 1825 864 1825 852 1808.5 c 128,-1,5
 840 1792 840 1792 803 1754 c 128,-1,6
 766 1716 766 1716 751.5 1701 c 128,-1,7
 737 1686 737 1686 708.5 1654 c 128,-1,8
 680 1622 680 1622 651 1591 c 0,9,10
 604 1540 604 1540 498 1540 c 0,11,12
 435 1540 435 1540 434 1571 c 0,13,14
 434 1593 434 1593 464 1637 c 128,-1,15
 494 1681 494 1681 518 1724 c 128,-1,16
 542 1767 542 1767 567 1810 c 0,0,1
942 1810 m 0,17,18
 973 1865 973 1865 1106 1865.5 c 128,-1,19
 1239 1866 1239 1866 1239 1837 c 0,20,21
 1239 1825 1239 1825 1226.5 1808.5 c 128,-1,22
 1214 1792 1214 1792 1177.5 1754 c 128,-1,23
 1141 1716 1141 1716 1126.5 1701 c 128,-1,24
 1112 1686 1112 1686 1083.5 1654 c 128,-1,25
 1055 1622 1055 1622 1026 1591 c 0,26,27
 979 1540 979 1540 872 1540 c 0,28,29
 809 1540 809 1540 809 1571 c 0,30,31
 809 1593 809 1593 838.5 1637 c 128,-1,32
 868 1681 868 1681 892.5 1724 c 128,-1,33
 917 1767 917 1767 942 1810 c 0,17,18
749.5 1450 m 128,-1,35
 1067 1450 1067 1450 1236 1260.5 c 128,-1,36
 1405 1071 1405 1071 1405 716.5 c 128,-1,37
 1405 362 1405 362 1236 173 c 128,-1,38
 1067 -16 1067 -16 749.5 -16 c 128,-1,39
 432 -16 432 -16 262 173 c 128,-1,40
 92 362 92 362 92 716.5 c 128,-1,41
 92 1071 92 1071 262 1260.5 c 128,-1,34
 432 1450 432 1450 749.5 1450 c 128,-1,35
749.5 1180 m 128,-1,43
 586 1180 586 1180 501 1062 c 128,-1,44
 416 944 416 944 416 716.5 c 128,-1,45
 416 489 416 489 501 370.5 c 128,-1,46
 586 252 586 252 749.5 252 c 128,-1,47
 913 252 913 252 997 370.5 c 128,-1,48
 1081 489 1081 489 1081 716.5 c 128,-1,49
 1081 944 1081 944 997 1062 c 128,-1,42
 913 1180 913 1180 749.5 1180 c 128,-1,43
EndSplineSet
Position2: "'cpsp' Capital Spacing lookup 0 subtable" dx=10 dy=0 dh=20 dv=0
EndChar

StartChar: Omacron
Encoding: 332 332 125
Width: 1497
GlyphClass: 2
Flags: MW
HStem: -16 268<640 859 640 961> 1180 270<640 859> 1585 195<509 971 530 971>
VStem: 92 324<566 867 566 953> 1081 324<566 867>
AnchorPoint: "Anchor-1" 748 1796 basechar 0
AnchorPoint: "Anchor-0" 752 0 basechar 0
LayerCount: 2
Fore
SplineSet
530 1780 m 2,0,-1
 971 1780 l 2,1,2
 1032 1780 1032 1780 1032 1698 c 2,3,-1
 1032 1667 l 2,4,5
 1032 1585 1032 1585 971 1585 c 2,6,-1
 530 1585 l 2,7,8
 469 1585 469 1585 469 1667 c 2,9,-1
 469 1698 l 2,10,11
 469 1780 469 1780 530 1780 c 2,0,-1
749.5 1450 m 128,-1,13
 1067 1450 1067 1450 1236 1260.5 c 128,-1,14
 1405 1071 1405 1071 1405 716.5 c 128,-1,15
 1405 362 1405 362 1236 173 c 128,-1,16
 1067 -16 1067 -16 749.5 -16 c 128,-1,17
 432 -16 432 -16 262 173 c 128,-1,18
 92 362 92 362 92 716.5 c 128,-1,19
 92 1071 92 1071 262 1260.5 c 128,-1,12
 432 1450 432 1450 749.5 1450 c 128,-1,13
749.5 1180 m 128,-1,21
 586 1180 586 1180 501 1062 c 128,-1,22
 416 944 416 944 416 716.5 c 128,-1,23
 416 489 416 489 501 370.5 c 128,-1,24
 586 252 586 252 749.5 252 c 128,-1,25
 913 252 913 252 997 370.5 c 128,-1,26
 1081 489 1081 489 1081 716.5 c 128,-1,27
 1081 944 1081 944 997 1062 c 128,-1,20
 913 1180 913 1180 749.5 1180 c 128,-1,21
EndSplineSet
Position2: "'cpsp' Capital Spacing lookup 0 subtable" dx=10 dy=0 dh=20 dv=0
EndChar

StartChar: Oogonek
Encoding: 490 490 126
Width: 1497
GlyphClass: 2
Flags: MW
HStem: -375 143<988 1028> -16 268<640 750 750 786> 1180 270<640 859>
VStem: 92 324<566 867 566 953> 748 137<-176 -151> 1081 324<566 867>
AnchorPoint: "Anchor-1" 750 1434 basechar 0
AnchorPoint: "Anchor-0" 772 -416 basechar 0
LayerCount: 2
Fore
SplineSet
1236 1260.5 m 128,-1,1
 1405 1071 1405 1071 1405 740.5 c 128,-1,2
 1405 410 1405 410 1277 225.5 c 128,-1,3
 1149 41 1149 41 907 -2 c 1,4,-1
 907 -10 l 2,5,6
 907 -22 907 -22 896 -58 c 128,-1,7
 885 -94 885 -94 885 -127 c 0,8,9
 885 -231 885 -231 1012 -231 c 0,10,11
 1039 -231 1039 -231 1067.5 -223 c 128,-1,12
 1096 -215 1096 -215 1112 -215 c 0,13,14
 1157 -215 1157 -215 1157 -272 c 0,15,16
 1157 -374 1157 -374 989 -375 c 0,17,18
 913 -375 913 -375 860 -351.5 c 128,-1,19
 807 -328 807 -328 785 -291 c 0,20,21
 747 -226 747 -226 747.5 -149 c 128,-1,22
 748 -72 748 -72 786 -16 c 1,23,-1
 750 -16 l 2,24,25
 433 -16 433 -16 262.5 173 c 128,-1,26
 92 362 92 362 92 716.5 c 128,-1,27
 92 1071 92 1071 262 1260.5 c 128,-1,28
 432 1450 432 1450 749.5 1450 c 128,-1,0
 1067 1450 1067 1450 1236 1260.5 c 128,-1,1
749.5 252 m 128,-1,30
 913 252 913 252 997 370.5 c 128,-1,31
 1081 489 1081 489 1081 716.5 c 128,-1,32
 1081 944 1081 944 997 1062 c 128,-1,33
 913 1180 913 1180 749.5 1180 c 128,-1,34
 586 1180 586 1180 501 1062 c 128,-1,35
 416 944 416 944 416 716.5 c 128,-1,36
 416 489 416 489 501 370.5 c 128,-1,29
 586 252 586 252 749.5 252 c 128,-1,30
EndSplineSet
Position2: "'cpsp' Capital Spacing lookup 0 subtable" dx=10 dy=0 dh=20 dv=0
EndChar

StartChar: Oslash
Encoding: 216 216 127
Width: 1497
GlyphClass: 2
Flags: MW
HStem: -16 268<696 859 696 961> 1180 270<640 790>
VStem: 92 324<682 867 682 953> 1081 324<566 767>
AnchorPoint: "Anchor-1" 750 1434 basechar 0
AnchorPoint: "Anchor-0" 0 0 basechar 0
LayerCount: 2
Fore
SplineSet
750 1450 m 0,0,1
 992 1450 992 1450 1147 1337 c 1,2,-1
 1253 1458 l 2,3,4
 1273 1483 1273 1483 1299 1483 c 0,5,6
 1325 1483 1325 1483 1361 1449 c 128,-1,7
 1397 1415 1397 1415 1397 1392 c 0,8,9
 1397 1368 1397 1368 1376 1348 c 2,10,-1
 1266 1223 l 1,11,12
 1405 1033 1405 1033 1405 697 c 0,13,14
 1405 362 1405 362 1236 173 c 128,-1,15
 1067 -16 1067 -16 766 -16 c 0,16,17
 465 -16 465 -16 301 135 c 1,18,-1
 182 0 l 2,19,20
 159 -25 159 -25 135 -25 c 0,21,22
 110 -25 110 -25 74.5 8 c 128,-1,23
 39 41 39 41 39 66 c 0,24,25
 39 91 39 91 59 111 c 2,26,-1
 195 264 l 1,27,28
 93 440 93 440 92 717 c 0,29,30
 92 1071 92 1071 262.5 1260.5 c 128,-1,31
 433 1450 433 1450 750 1450 c 0,0,1
750 1180 m 0,32,33
 586 1180 586 1180 501 1062 c 128,-1,34
 416 944 416 944 416 717 c 0,35,36
 416 621 416 621 432 532 c 1,37,-1
 948 1114 l 1,38,39
 871 1180 871 1180 750 1180 c 0,32,33
1042 971 m 1,40,-1
 506 365 l 1,41,42
 590 252 590 252 752 252 c 0,43,44
 914 252 914 252 997.5 370.5 c 128,-1,45
 1081 489 1081 489 1081 717 c 0,46,47
 1081 865 1081 865 1042 971 c 1,40,-1
EndSplineSet
Position2: "'cpsp' Capital Spacing lookup 0 subtable" dx=10 dy=0 dh=20 dv=0
EndChar

StartChar: Oslashacute
Encoding: 510 510 128
Width: 1497
GlyphClass: 2
Flags: MW
HStem: -16 268<696 859 696 961> 1180 270<640 790> 1540 326<645 954>
VStem: 92 324<682 867 682 953> 1081 324<566 767>
AnchorPoint: "Anchor-1" 762 1796 basechar 0
AnchorPoint: "Anchor-0" 0 0 basechar 0
LayerCount: 2
Fore
SplineSet
739 1810 m 0,0,1
 770 1865 770 1865 903 1865.5 c 128,-1,2
 1036 1866 1036 1866 1036 1837 c 0,3,4
 1036 1825 1036 1825 1024 1808.5 c 128,-1,5
 1012 1792 1012 1792 975 1754 c 128,-1,6
 938 1716 938 1716 923.5 1701 c 128,-1,7
 909 1686 909 1686 880.5 1654 c 128,-1,8
 852 1622 852 1622 823 1591 c 0,9,10
 776 1540 776 1540 670 1540 c 0,11,12
 607 1540 607 1540 606 1571 c 0,13,14
 606 1593 606 1593 636 1637 c 128,-1,15
 666 1681 666 1681 690 1724 c 128,-1,16
 714 1767 714 1767 739 1810 c 0,0,1
750 1450 m 0,17,18
 992 1450 992 1450 1147 1337 c 1,19,-1
 1253 1458 l 2,20,21
 1273 1483 1273 1483 1299 1483 c 128,-1,22
 1325 1483 1325 1483 1361 1449 c 128,-1,23
 1397 1415 1397 1415 1397 1391.5 c 128,-1,24
 1397 1368 1397 1368 1376 1348 c 2,25,-1
 1266 1223 l 1,26,27
 1405 1033 1405 1033 1405 697.5 c 128,-1,28
 1405 362 1405 362 1236 173 c 128,-1,29
 1067 -16 1067 -16 766 -16 c 128,-1,30
 465 -16 465 -16 301 135 c 1,31,-1
 182 0 l 2,32,33
 159 -25 159 -25 135 -25 c 128,-1,34
 111 -25 111 -25 75 8 c 128,-1,35
 39 41 39 41 39 65.5 c 128,-1,36
 39 90 39 90 59 111 c 2,37,-1
 195 264 l 1,38,39
 93 440 93 440 92 717 c 0,40,41
 92 1071 92 1071 262.5 1260.5 c 128,-1,42
 433 1450 433 1450 750 1450 c 0,17,18
750 1180 m 0,43,44
 586 1180 586 1180 501 1062 c 128,-1,45
 416 944 416 944 416 717 c 0,46,47
 416 621 416 621 432 532 c 1,48,-1
 948 1114 l 1,49,50
 871 1180 871 1180 750 1180 c 0,43,44
1042 971 m 1,51,-1
 506 365 l 1,52,53
 590 252 590 252 751.5 252 c 128,-1,54
 913 252 913 252 997 370.5 c 128,-1,55
 1081 489 1081 489 1081 717 c 0,56,57
 1081 865 1081 865 1042 971 c 1,51,-1
EndSplineSet
Position2: "'cpsp' Capital Spacing lookup 0 subtable" dx=10 dy=0 dh=20 dv=0
EndChar

StartChar: Otilde
Encoding: 213 213 129
Width: 1497
GlyphClass: 2
Flags: MW
HStem: -16 268<640 859 640 961> 1180 270<640 859> 1550 176<863 892> 1606 176<589 621>
VStem: 92 324<566 867 566 953> 1081 324<566 867>
AnchorPoint: "Anchor-1" 748 1796 basechar 0
AnchorPoint: "Anchor-0" 752 0 basechar 0
LayerCount: 2
Fore
SplineSet
420 1698 m 0,0,1
 526 1782 526 1782 614 1782 c 128,-1,2
 702 1782 702 1782 773 1754 c 128,-1,3
 844 1726 844 1726 893 1726 c 128,-1,4
 942 1726 942 1726 992 1757 c 128,-1,5
 1042 1788 1042 1788 1083 1745 c 0,6,7
 1122 1700 1122 1700 1067 1634 c 0,8,9
 983 1550 983 1550 850 1550 c 0,10,11
 780 1550 780 1550 714.5 1578 c 128,-1,12
 649 1606 649 1606 601 1606 c 128,-1,13
 553 1606 553 1606 503 1579 c 128,-1,14
 453 1552 453 1552 413 1601.5 c 128,-1,15
 373 1651 373 1651 420 1698 c 0,0,1
749.5 1450 m 128,-1,17
 1067 1450 1067 1450 1236 1260.5 c 128,-1,18
 1405 1071 1405 1071 1405 716.5 c 128,-1,19
 1405 362 1405 362 1236 173 c 128,-1,20
 1067 -16 1067 -16 749.5 -16 c 128,-1,21
 432 -16 432 -16 262 173 c 128,-1,22
 92 362 92 362 92 716.5 c 128,-1,23
 92 1071 92 1071 262 1260.5 c 128,-1,16
 432 1450 432 1450 749.5 1450 c 128,-1,17
749.5 1180 m 128,-1,25
 586 1180 586 1180 501 1062 c 128,-1,26
 416 944 416 944 416 716.5 c 128,-1,27
 416 489 416 489 501 370.5 c 128,-1,28
 586 252 586 252 749.5 252 c 128,-1,29
 913 252 913 252 997 370.5 c 128,-1,30
 1081 489 1081 489 1081 716.5 c 128,-1,31
 1081 944 1081 944 997 1062 c 128,-1,24
 913 1180 913 1180 749.5 1180 c 128,-1,25
EndSplineSet
Position2: "'cpsp' Capital Spacing lookup 0 subtable" dx=10 dy=0 dh=20 dv=0
EndChar

StartChar: OE
Encoding: 338 338 130
Width: 2091
GlyphClass: 2
Flags: MW
HStem: -16 268<640 798> 0 268<1140 1919 1401 1919 1401 1919> 600 268<1401 1862 1401 1862> 1165 268<1401 1917 1401 1401> 1180 270<640 799 524 859>
VStem: 92 324<566 867 566 953> 1081 319<566 600>
AnchorPoint: "Anchor-1" 1047 1434 basechar 0
AnchorPoint: "Anchor-0" 0 0 basechar 0
LayerCount: 2
Fore
SplineSet
1401 268 m 1,0,-1
 1919 268 l 2,1,2
 1980 268 1980 268 1980 166 c 2,3,-1
 1980 102 l 2,4,5
 1980 0 1980 0 1919 0 c 2,6,-1
 1167 0 l 2,7,8
 1087 0 1087 0 1085 76 c 1,9,10
 934 -16 934 -16 729 -16 c 0,11,12
 422 -16 422 -16 257 173 c 128,-1,13
 92 362 92 362 92 716.5 c 128,-1,14
 92 1071 92 1071 257 1260.5 c 128,-1,15
 422 1450 422 1450 729 1450 c 0,16,17
 936 1450 936 1450 1085 1356 c 1,18,19
 1085 1434 1085 1434 1167 1434 c 2,20,-1
 1917 1434 l 2,21,22
 1978 1434 1978 1434 1978 1331 c 2,23,-1
 1978 1268 l 2,24,25
 1978 1166 1978 1166 1917 1165 c 2,26,-1
 1401 1165 l 1,27,-1
 1401 868 l 1,28,-1
 1862 868 l 2,29,30
 1923 868 1923 868 1923 766 c 2,31,-1
 1923 702 l 2,32,33
 1923 600 1923 600 1862 600 c 2,34,-1
 1401 600 l 1,35,-1
 1401 268 l 1,0,-1
749.5 252 m 128,-1,37
 913 252 913 252 997 370.5 c 128,-1,38
 1081 489 1081 489 1081 716.5 c 128,-1,39
 1081 944 1081 944 997 1062 c 128,-1,40
 913 1180 913 1180 749.5 1180 c 128,-1,41
 586 1180 586 1180 501 1062 c 128,-1,42
 416 944 416 944 416 716.5 c 128,-1,43
 416 489 416 489 501 370.5 c 128,-1,36
 586 252 586 252 749.5 252 c 128,-1,37
EndSplineSet
Position2: "'cpsp' Capital Spacing lookup 0 subtable" dx=10 dy=0 dh=20 dv=0
EndChar

StartChar: P
Encoding: 80 80 131
Width: 1167
GlyphClass: 2
Flags: MW
HStem: 537 270<457 639 639 674 457 639> 1165 268<457 457 457 639>
VStem: 141 315<61 537 807 1165> 817 324<911 1059>
LayerCount: 2
Fore
SplineSet
223 1434 m 2,0,-1
 653 1434 l 2,1,2
 892 1434 892 1434 1023 1314 c 0,3,4
 1073 1268 1073 1268 1107 1183 c 128,-1,5
 1141 1098 1141 1098 1141 985 c 128,-1,6
 1141 872 1141 872 1102 787 c 128,-1,7
 1063 702 1063 702 1008.5 656 c 128,-1,8
 954 610 954 610 885 582 c 0,9,10
 776 537 776 537 674 537 c 2,11,-1
 457 537 l 1,12,-1
 457 61 l 2,13,14
 457 -5 457 -5 334 -4 c 2,15,-1
 264 -4 l 2,16,17
 141 -4 141 -4 141 61 c 2,18,-1
 141 1352 l 2,19,20
 141 1434 141 1434 223 1434 c 2,0,-1
457 1165 m 1,21,-1
 457 807 l 1,22,-1
 639 807 l 2,23,24
 713 807 713 807 765 846 c 128,-1,25
 817 885 817 885 817 985 c 128,-1,26
 817 1085 817 1085 765 1125 c 128,-1,27
 713 1165 713 1165 639 1165 c 2,28,-1
 457 1165 l 1,21,-1
EndSplineSet
Position2: "'cpsp' Capital Spacing lookup 0 subtable" dx=10 dy=0 dh=20 dv=0
EndChar

StartChar: Thorn
Encoding: 222 222 132
Width: 1161
GlyphClass: 2
Flags: MW
HStem: 317 270<455 651 651 686 455 651> 946 268<455 666 455 651> 1397 41G<262 332 332 375>
VStem: 139 315<61 317 588 946 1214 1372> 829 324<692 840>
LayerCount: 2
Fore
SplineSet
262 1438 m 2,0,-1
 332 1438 l 2,1,2
 455 1438 455 1438 455 1372 c 2,3,-1
 455 1214 l 1,4,-1
 666 1214 l 2,5,6
 905 1214 905 1214 1035 1095 c 0,7,8
 1085 1049 1085 1049 1119 964 c 128,-1,9
 1153 879 1153 879 1153 766 c 128,-1,10
 1153 653 1153 653 1114 568 c 128,-1,11
 1075 483 1075 483 1021 437 c 128,-1,12
 967 391 967 391 897 362 c 0,13,14
 788 317 788 317 686 317 c 2,15,-1
 455 317 l 1,16,-1
 455 61 l 2,17,18
 455 -5 455 -5 332 -4 c 2,19,-1
 262 -4 l 2,20,21
 139 -4 139 -4 139 61 c 2,22,-1
 139 1372 l 2,23,24
 139 1438 139 1438 262 1438 c 2,0,-1
455 946 m 1,25,-1
 455 588 l 1,26,-1
 651 588 l 2,27,28
 725 588 725 588 777 627 c 128,-1,29
 829 666 829 666 829 766 c 128,-1,30
 829 866 829 866 777 906 c 128,-1,31
 725 946 725 946 651 946 c 2,32,-1
 455 946 l 1,25,-1
EndSplineSet
Position2: "'cpsp' Capital Spacing lookup 0 subtable" dx=10 dy=0 dh=20 dv=0
EndChar

StartChar: Q
Encoding: 81 81 133
Width: 1497
GlyphClass: 2
Flags: MW
HStem: 1180 270<640 859>
VStem: 92 324<563 867 563 953> 1081 324<563 867>
LayerCount: 2
Fore
SplineSet
749.5 1450 m 128,-1,1
 1067 1450 1067 1450 1236 1260.5 c 128,-1,2
 1405 1071 1405 1071 1405 717 c 0,3,4
 1405 230 1405 230 1083 63 c 1,5,-1
 1083 55 l 1,6,-1
 1397 -57 l 2,7,8
 1426 -67 1426 -67 1425 -99 c 0,9,10
 1425 -131 1425 -131 1390.5 -215 c 128,-1,11
 1356 -299 1356 -299 1313 -299 c 0,12,13
 1301 -299 1301 -299 1031 -191 c 0,14,15
 762 -83 762 -83 465 33 c 0,16,17
 283 105 283 105 187.5 279 c 128,-1,18
 92 453 92 453 92 717 c 0,19,20
 92 1071 92 1071 262 1260.5 c 128,-1,0
 432 1450 432 1450 749.5 1450 c 128,-1,1
749.5 1180 m 128,-1,22
 586 1180 586 1180 501 1062 c 128,-1,23
 416 944 416 944 416 715 c 0,24,25
 416 486 416 486 501 365 c 128,-1,26
 586 244 586 244 749.5 244 c 128,-1,27
 913 244 913 244 997 364.5 c 128,-1,28
 1081 485 1081 485 1081 715 c 0,29,30
 1081 944 1081 944 997 1062 c 128,-1,21
 913 1180 913 1180 749.5 1180 c 128,-1,22
EndSplineSet
Position2: "'cpsp' Capital Spacing lookup 0 subtable" dx=10 dy=0 dh=20 dv=0
EndChar

StartChar: R
Encoding: 82 82 134
Width: 1249
GlyphClass: 2
Flags: MW
HStem: 561 272<457 537 457 651> 1165 268<457 457 457 623 623 637>
VStem: 141 315<61 561 834 1165> 809 324<970 1057>
AnchorPoint: "Anchor-1" 625 1434 basechar 0
AnchorPoint: "Anchor-0" 625 0 basechar 0
LayerCount: 2
Fore
SplineSet
223 1434 m 2,0,-1
 623 1434 l 2,1,2
 1133 1434 1133 1434 1133 1049 c 0,3,4
 1133 934 1133 934 1068.5 849 c 128,-1,5
 1004 764 1004 764 893 723 c 1,6,-1
 893 715 l 1,7,8
 932 701 932 701 973 646.5 c 128,-1,9
 1014 592 1014 592 1040 526 c 2,10,-1
 1221 76 l 2,11,12
 1231 49 1231 49 1231 37 c 0,13,14
 1231 -4 1231 -4 1108 -4 c 2,15,-1
 1024 -4 l 2,16,17
 922 -4 922 -4 905 39 c 2,18,-1
 743 438 l 1,19,20
 708 506 708 506 668.5 533.5 c 128,-1,21
 629 561 629 561 537 561 c 2,22,-1
 457 561 l 1,23,-1
 457 61 l 2,24,25
 457 -5 457 -5 334 -4 c 2,26,-1
 264 -4 l 2,27,28
 141 -4 141 -4 141 61 c 2,29,-1
 141 1352 l 2,30,31
 141 1434 141 1434 223 1434 c 2,0,-1
457 1165 m 1,32,-1
 457 834 l 1,33,-1
 651 834 l 2,34,35
 714 834 714 834 761.5 885 c 128,-1,36
 809 936 809 936 809 1009 c 0,37,38
 809 1082 809 1082 763 1123.5 c 128,-1,39
 717 1165 717 1165 637 1165 c 2,40,-1
 457 1165 l 1,32,-1
EndSplineSet
Position2: "'cpsp' Capital Spacing lookup 0 subtable" dx=10 dy=0 dh=20 dv=0
EndChar

StartChar: Racute
Encoding: 340 340 135
Width: 1249
GlyphClass: 2
Flags: MW
HStem: 561 272<457 537 457 651> 1165 268<457 457 457 623 623 637> 1540 326<520 829>
VStem: 141 315<61 561 834 1165> 809 324<970 1057>
AnchorPoint: "Anchor-1" 637 1796 basechar 0
AnchorPoint: "Anchor-0" 625 0 basechar 0
LayerCount: 2
Fore
SplineSet
614 1810 m 0,0,1
 645 1865 645 1865 778 1865.5 c 128,-1,2
 911 1866 911 1866 911 1837 c 0,3,4
 911 1825 911 1825 899 1808.5 c 128,-1,5
 887 1792 887 1792 850 1754 c 128,-1,6
 813 1716 813 1716 798.5 1701 c 128,-1,7
 784 1686 784 1686 755.5 1654 c 128,-1,8
 727 1622 727 1622 698 1591 c 0,9,10
 651 1540 651 1540 545 1540 c 0,11,12
 482 1540 482 1540 481 1571 c 0,13,14
 481 1593 481 1593 511 1637 c 128,-1,15
 541 1681 541 1681 565 1724 c 128,-1,16
 589 1767 589 1767 614 1810 c 0,0,1
223 1434 m 2,17,-1
 623 1434 l 2,18,19
 1133 1434 1133 1434 1133 1049 c 0,20,21
 1133 934 1133 934 1068.5 849 c 128,-1,22
 1004 764 1004 764 893 723 c 1,23,-1
 893 715 l 1,24,25
 932 701 932 701 973 646.5 c 128,-1,26
 1014 592 1014 592 1040 526 c 2,27,-1
 1221 76 l 2,28,29
 1231 49 1231 49 1231 37 c 0,30,31
 1231 -4 1231 -4 1108 -4 c 2,32,-1
 1024 -4 l 2,33,34
 922 -4 922 -4 905 39 c 2,35,-1
 743 438 l 1,36,37
 708 506 708 506 668.5 533.5 c 128,-1,38
 629 561 629 561 537 561 c 2,39,-1
 457 561 l 1,40,-1
 457 61 l 2,41,42
 457 -5 457 -5 334 -4 c 2,43,-1
 264 -4 l 2,44,45
 141 -4 141 -4 141 61 c 2,46,-1
 141 1352 l 2,47,48
 141 1434 141 1434 223 1434 c 2,17,-1
457 1165 m 1,49,-1
 457 834 l 1,50,-1
 651 834 l 2,51,52
 714 834 714 834 761.5 885 c 128,-1,53
 809 936 809 936 809 1008.5 c 128,-1,54
 809 1081 809 1081 763 1123 c 128,-1,55
 717 1165 717 1165 637 1165 c 2,56,-1
 457 1165 l 1,49,-1
EndSplineSet
Position2: "'cpsp' Capital Spacing lookup 0 subtable" dx=10 dy=0 dh=20 dv=0
EndChar

